AdventPro-Thin.ufo
<glyph name="exclam" format="1">
  <advance width="190"/>
  <unicode hex="0021"/>
  <outline>
    <contour>
      <point x="104" y="4" type="qcurve"/>
      <point x="100" y="0"/>
      <point x="88" y="0"/>
      <point x="79" y="9"/>
      <point x="79" y="21"/>
      <point x="88" y="30"/>
      <point x="100" y="30"/>
      <point x="109" y="21"/>
      <point x="109" y="9"/>
    </contour>
    <contour>
      <point x="102" y="120" type="line"/>
      <point x="87" y="120" type="line"/>
      <point x="78" y="692" type="line"/>
      <point x="78" y="701"/>
      <point x="89" y="710"/>
      <point x="95" y="710" type="qcurve"/>
      <point x="110" y="710"/>
      <point x="110" y="692" type="qcurve"/>
    </contour>
  </outline>
</glyph>
<glyph name="quotedbl" format="1">
  <advance width="426"/>
  <unicode hex="0022"/>
  <outline>
    <contour>
      <point x="161" y="512" type="line"/>
      <point x="145" y="512" type="line"/>
      <point x="138" y="718" type="line"/>
      <point x="138" y="729"/>
      <point x="149" y="737"/>
      <point x="156" y="737"/>
      <point x="167" y="730"/>
      <point x="167" y="718" type="qcurve"/>
    </contour>
    <contour>
      <point x="280" y="512" type="line"/>
      <point x="264" y="512" type="line"/>
      <point x="257" y="718" type="line"/>
      <point x="257" y="729"/>
      <point x="268" y="737"/>
      <point x="276" y="737"/>
      <point x="286" y="730"/>
      <point x="286" y="718" type="qcurve"/>
    </contour>
  </outline>
</glyph>
<glyph name="numbersign" format="1">
  <advance width="613"/>
  <unicode hex="0023"/>
  <outline>
    <contour>
      <point x="377" y="245" type="line"/>
      <point x="417" y="413" type="line"/>
      <point x="226" y="413" type="line"/>
      <point x="186" y="245" type="line"/>
    </contour>
    <contour>
      <point x="582" y="226" type="line"/>
      <point x="392" y="226" type="line"/>
      <point x="339" y="0" type="line"/>
      <point x="320" y="0" type="line"/>
      <point x="373" y="226" type="line"/>
      <point x="182" y="226" type="line"/>
      <point x="129" y="0" type="line"/>
      <point x="110" y="0" type="line"/>
      <point x="163" y="226" type="line"/>
      <point x="34" y="226" type="line"/>
      <point x="34" y="245" type="line"/>
      <point x="167" y="245" type="line"/>
      <point x="207" y="413" type="line"/>
      <point x="34" y="413" type="line"/>
      <point x="34" y="432" type="line"/>
      <point x="212" y="432" type="line"/>
      <point x="274" y="700" type="line"/>
      <point x="293" y="700" type="line"/>
      <point x="231" y="432" type="line"/>
      <point x="421" y="432" type="line"/>
      <point x="484" y="700" type="line"/>
      <point x="503" y="700" type="line"/>
      <point x="440" y="432" type="line"/>
      <point x="582" y="432" type="line"/>
      <point x="582" y="413" type="line"/>
      <point x="436" y="413" type="line"/>
      <point x="396" y="245" type="line"/>
      <point x="582" y="245" type="line"/>
    </contour>
  </outline>
</glyph>
<glyph name="dollar" format="1">
  <advance width="540"/>
  <unicode hex="0024"/>
  <outline>
    <contour>
      <point x="260" y="386" type="qcurve"/>
      <point x="260" y="690" type="line"/>
      <point x="179" y="686"/>
      <point x="73" y="605"/>
      <point x="73" y="535" type="qcurve"/>
      <point x="73" y="469"/>
      <point x="152" y="429" type="qcurve"/>
      <point x="193" y="408"/>
    </contour>
    <contour>
      <point x="278" y="360" type="qcurve"/>
      <point x="278" y="7" type="line"/>
      <point x="372" y="9"/>
      <point x="488" y="95"/>
      <point x="488" y="187" type="qcurve"/>
      <point x="488" y="243"/>
      <point x="446" y="282" type="qcurve"/>
      <point x="411" y="313"/>
      <point x="342" y="338" type="qcurve"/>
      <point x="318" y="347"/>
    </contour>
    <contour>
      <point x="278" y="-114" type="line"/>
      <point x="260" y="-114" type="line"/>
      <point x="260" y="-11" type="line"/>
      <point x="156" y="-8"/>
      <point x="36" y="106"/>
      <point x="34" y="178" type="qcurve"/>
      <point x="56" y="178" type="line"/>
      <point x="56" y="117"/>
      <point x="162" y="10"/>
      <point x="260" y="7" type="qcurve"/>
      <point x="260" y="366" type="line"/>
      <point x="130" y="408"/>
      <point x="94" y="444" type="qcurve"/>
      <point x="52" y="484"/>
      <point x="52" y="605"/>
      <point x="159" y="705"/>
      <point x="260" y="709" type="qcurve"/>
      <point x="260" y="817" type="line"/>
      <point x="278" y="817" type="line"/>
      <point x="278" y="710" type="line"/>
      <point x="360" y="710"/>
      <point x="423" y="680" type="qcurve"/>
      <point x="415" y="660" type="line"/>
      <point x="355" y="691"/>
      <point x="279" y="691" type="qcurve"/>
      <point x="278" y="691" type="line"/>
      <point x="278" y="381" type="line"/>
      <point x="400" y="340"/>
      <point x="436" y="314" type="qcurve"/>
      <point x="487" y="277"/>
      <point x="500" y="238" type="qcurve"/>
      <point x="509" y="215"/>
      <point x="509" y="187" type="qcurve"/>
      <point x="509" y="97"/>
      <point x="396" y="-9"/>
      <point x="278" y="-11" type="qcurve"/>
    </contour>
  </outline>
</glyph>
<glyph name="percent" format="1">
  <advance width="664"/>
  <unicode hex="0025"/>
  <outline>
    <contour>
      <point x="268" y="496" type="qcurve"/>
      <point x="302" y="534"/>
      <point x="302" y="632"/>
      <point x="234" y="707"/>
      <point x="122" y="707"/>
      <point x="54" y="632"/>
      <point x="54" y="534"/>
      <point x="122" y="459"/>
      <point x="234" y="459"/>
    </contour>
    <contour>
      <point x="280" y="481" type="qcurve"/>
      <point x="238" y="439"/>
      <point x="118" y="439"/>
      <point x="34" y="523"/>
      <point x="34" y="643"/>
      <point x="118" y="727"/>
      <point x="238" y="727"/>
      <point x="322" y="643"/>
      <point x="322" y="523"/>
    </contour>
    <contour>
      <point x="489" y="8" type="qcurve"/>
      <point x="545" y="8"/>
      <point x="614" y="83"/>
      <point x="614" y="182"/>
      <point x="545" y="258"/>
      <point x="433" y="258"/>
      <point x="364" y="182"/>
      <point x="364" y="83"/>
      <point x="433" y="8"/>
    </contour>
    <contour>
      <point x="591" y="31" type="qcurve"/>
      <point x="549" y="-11"/>
      <point x="429" y="-11"/>
      <point x="345" y="73"/>
      <point x="345" y="193"/>
      <point x="429" y="277"/>
      <point x="549" y="277"/>
      <point x="633" y="193"/>
      <point x="633" y="73"/>
    </contour>
    <contour>
      <point x="63" y="1" type="line"/>
      <point x="50" y="17" type="line"/>
      <point x="595" y="740" type="line"/>
      <point x="610" y="727" type="line"/>
    </contour>
  </outline>
</glyph>
<glyph name="ampersand" format="1">
  <advance width="540"/>
  <unicode hex="0026"/>
  <outline>
    <contour>
      <point x="413" y="204" type="qcurve"/>
      <point x="413" y="460" type="line"/>
      <point x="284" y="431"/>
      <point x="201" y="392"/>
      <point x="132" y="350"/>
      <point x="111" y="326" type="qcurve"/>
      <point x="54" y="261"/>
      <point x="54" y="115"/>
      <point x="133" y="7"/>
      <point x="303" y="7"/>
      <point x="413" y="133"/>
    </contour>
    <contour>
      <point x="488" y="7" type="qcurve"/>
      <point x="482" y="-11" type="line"/>
      <point x="413" y="11"/>
      <point x="413" y="113" type="qcurve"/>
      <point x="370" y="45"/>
      <point x="275" y="-11"/>
      <point x="213" y="-11" type="qcurve"/>
      <point x="123" y="-11"/>
      <point x="76" y="52" type="qcurve"/>
      <point x="35" y="107"/>
      <point x="35" y="179" type="qcurve"/>
      <point x="35" y="242"/>
      <point x="83" y="333"/>
      <point x="154" y="389"/>
      <point x="211" y="420"/>
      <point x="252" y="438" type="qcurve"/>
      <point x="214" y="443"/>
      <point x="187" y="474" type="qcurve"/>
      <point x="155" y="511"/>
      <point x="155" y="615"/>
      <point x="185" y="654" type="qcurve"/>
      <point x="228" y="710"/>
      <point x="311" y="710" type="qcurve"/>
      <point x="344" y="710"/>
      <point x="381" y="699" type="qcurve"/>
      <point x="371" y="682" type="line"/>
      <point x="341" y="692"/>
      <point x="267" y="692"/>
      <point x="228" y="665" type="qcurve"/>
      <point x="175" y="628"/>
      <point x="175" y="570" type="qcurve"/>
      <point x="175" y="560"/>
      <point x="177" y="549" type="qcurve"/>
      <point x="187" y="487"/>
      <point x="228" y="466" type="qcurve"/>
      <point x="255" y="454"/>
      <point x="301" y="454"/>
      <point x="319" y="458" type="qcurve"/>
      <point x="413" y="480" type="line"/>
      <point x="413" y="609" type="line"/>
      <point x="432" y="609" type="line"/>
      <point x="432" y="484" type="line"/>
      <point x="505" y="500" type="line"/>
      <point x="509" y="481" type="line"/>
      <point x="432" y="464" type="line"/>
      <point x="432" y="122" type="line"/>
      <point x="432" y="26"/>
    </contour>
  </outline>
</glyph>
<glyph name="quotesingle" format="1">
  <advance width="164"/>
  <unicode hex="0027"/>
  <outline>
    <contour>
      <point x="68" y="589" type="line"/>
      <point x="52" y="589" type="line"/>
      <point x="46" y="713" type="line"/>
      <point x="46" y="727"/>
      <point x="56" y="735"/>
      <point x="64" y="735"/>
      <point x="75" y="727"/>
      <point x="75" y="713" type="qcurve"/>
    </contour>
  </outline>
</glyph>
<glyph name="parenleft" format="1">
  <advance width="271"/>
  <unicode hex="0028"/>
  <outline>
    <contour>
      <point x="191" y="-101" type="qcurve"/>
      <point x="183" y="-119" type="line"/>
      <point x="126" y="-86"/>
      <point x="78" y="-7"/>
      <point x="78" y="71" type="qcurve"/>
      <point x="78" y="627" type="line"/>
      <point x="78" y="705"/>
      <point x="126" y="784"/>
      <point x="183" y="817" type="qcurve"/>
      <point x="190" y="800" type="line"/>
      <point x="121" y="762"/>
      <point x="105" y="703" type="qcurve"/>
      <point x="97" y="674"/>
      <point x="97" y="636" type="qcurve"/>
      <point x="97" y="65" type="line"/>
      <point x="97" y="-26"/>
      <point x="144" y="-68" type="qcurve"/>
      <point x="161" y="-83"/>
      <point x="172" y="-90"/>
    </contour>
  </outline>
</glyph>
<glyph name="parenright" format="1">
  <advance width="271"/>
  <unicode hex="0029"/>
  <outline>
    <contour>
      <point x="86" y="-119" type="qcurve"/>
      <point x="78" y="-101" type="line"/>
      <point x="97" y="-90"/>
      <point x="108" y="-83"/>
      <point x="143" y="-52"/>
      <point x="150" y="-38" type="qcurve"/>
      <point x="172" y="8"/>
      <point x="172" y="65" type="qcurve"/>
      <point x="172" y="636" type="line"/>
      <point x="172" y="714"/>
      <point x="140" y="750" type="qcurve"/>
      <point x="114" y="781"/>
      <point x="79" y="800" type="qcurve"/>
      <point x="86" y="817" type="line"/>
      <point x="143" y="784"/>
      <point x="191" y="705"/>
      <point x="191" y="627" type="qcurve"/>
      <point x="191" y="71" type="line"/>
      <point x="191" y="-7"/>
      <point x="143" y="-86"/>
    </contour>
  </outline>
</glyph>
<glyph name="asterisk" format="1">
  <advance width="352"/>
  <unicode hex="002A"/>
  <outline>
    <contour>
      <point x="273" y="441" type="line"/>
      <point x="256" y="428" type="line"/>
      <point x="175" y="537" type="line"/>
      <point x="98" y="428" type="line"/>
      <point x="82" y="439" type="line"/>
      <point x="158" y="547" type="line"/>
      <point x="30" y="594" type="line"/>
      <point x="37" y="613" type="line"/>
      <point x="164" y="563" type="line"/>
      <point x="163" y="700" type="line"/>
      <point x="185" y="700" type="line"/>
      <point x="184" y="563" type="line"/>
      <point x="314" y="613" type="line"/>
      <point x="321" y="594" type="line"/>
      <point x="190" y="547" type="line"/>
    </contour>
  </outline>
</glyph>
<glyph name="plus" format="1">
  <advance width="385"/>
  <unicode hex="002B"/>
  <outline>
    <contour>
      <point x="354" y="395" type="line"/>
      <point x="204" y="395" type="line"/>
      <point x="204" y="255" type="line"/>
      <point x="185" y="255" type="line"/>
      <point x="185" y="395" type="line"/>
      <point x="34" y="395" type="line"/>
      <point x="34" y="413" type="line"/>
      <point x="185" y="413" type="line"/>
      <point x="185" y="545" type="line"/>
      <point x="204" y="545" type="line"/>
      <point x="204" y="413" type="line"/>
      <point x="354" y="413" type="line"/>
    </contour>
  </outline>
</glyph>
<glyph name="period" format="1">
  <advance width="131"/>
  <unicode hex="002E"/>
  <outline>
    <contour>
      <point x="55" y="4" type="qcurve"/>
      <point x="51" y="0"/>
      <point x="39" y="0"/>
      <point x="30" y="9"/>
      <point x="30" y="21"/>
      <point x="39" y="30"/>
      <point x="51" y="30"/>
      <point x="60" y="21"/>
      <point x="60" y="9"/>
    </contour>
  </outline>
</glyph>
<glyph name="slash" format="1">
  <advance width="405"/>
  <unicode hex="002F"/>
  <outline>
    <contour>
      <point x="50" y="-114" type="line"/>
      <point x="30" y="-114" type="line"/>
      <point x="354" y="817" type="line"/>
      <point x="374" y="817" type="line"/>
    </contour>
  </outline>
</glyph>
<glyph name="one" format="1">
  <advance width="213"/>
  <unicode hex="0031"/>
  <outline>
    <contour>
      <point x="182" y="0" type="line"/>
      <point x="163" y="0" type="line"/>
      <point x="163" y="662" type="line"/>
      <point x="139" y="634"/>
      <point x="75" y="599"/>
      <point x="55" y="595" type="qcurve"/>
      <point x="35" y="591" type="line"/>
      <point x="30" y="609" type="line"/>
      <point x="40" y="611"/>
      <point x="72" y="619"/>
      <point x="143" y="666"/>
      <point x="163" y="700" type="qcurve"/>
      <point x="182" y="700" type="line"/>
    </contour>
  </outline>
</glyph>
<glyph name="two" format="1">
  <advance width="413"/>
  <unicode hex="0032"/>
  <outline>
    <contour>
      <point x="381" y="0" type="line"/>
      <point x="30" y="0" type="line"/>
      <point x="30" y="20" type="line"/>
      <point x="321" y="424" type="line"/>
      <point x="363" y="488"/>
      <point x="363" y="607"/>
      <point x="279" y="691"/>
      <point x="151" y="691"/>
      <point x="75" y="629"/>
      <point x="61" y="583" type="qcurve"/>
      <point x="43" y="590" type="line"/>
      <point x="85" y="710"/>
      <point x="221" y="710" type="qcurve"/>
      <point x="283" y="710"/>
      <point x="330" y="667" type="qcurve"/>
      <point x="382" y="618"/>
      <point x="382" y="484"/>
      <point x="335" y="413" type="qcurve"/>
      <point x="53" y="20" type="line"/>
      <point x="381" y="20" type="line"/>
    </contour>
  </outline>
</glyph>
<glyph name="three" format="1">
  <advance width="451"/>
  <unicode hex="0033"/>
  <outline>
    <contour>
      <point x="30" y="83" type="qcurve"/>
      <point x="48" y="94" type="line"/>
      <point x="107" y="7"/>
      <point x="296" y="7"/>
      <point x="401" y="127"/>
      <point x="401" y="288"/>
      <point x="284" y="391"/>
      <point x="213" y="394" type="qcurve"/>
      <point x="127" y="394" type="line"/>
      <point x="340" y="680" type="line"/>
      <point x="77" y="680" type="line"/>
      <point x="77" y="700" type="line"/>
      <point x="364" y="700" type="line"/>
      <point x="364" y="680" type="line"/>
      <point x="164" y="413" type="line"/>
      <point x="207" y="413" type="line"/>
      <point x="296" y="413"/>
      <point x="420" y="289"/>
      <point x="420" y="112"/>
      <point x="296" y="-12"/>
      <point x="207" y="-12" type="qcurve"/>
      <point x="153" y="-12"/>
      <point x="59" y="39"/>
    </contour>
  </outline>
</glyph>
<glyph name="four" format="1">
  <advance width="484"/>
  <unicode hex="0034"/>
  <outline>
    <contour>
      <point x="380" y="0" type="line"/>
      <point x="361" y="0" type="line"/>
      <point x="360" y="394" type="line"/>
      <point x="30" y="394" type="line"/>
      <point x="202" y="700" type="line"/>
      <point x="222" y="700" type="line"/>
      <point x="63" y="413" type="line"/>
      <point x="361" y="413" type="line"/>
      <point x="361" y="700" type="line"/>
      <point x="380" y="700" type="line"/>
      <point x="380" y="413" type="line"/>
      <point x="453" y="413" type="line"/>
      <point x="447" y="394" type="line"/>
      <point x="380" y="394" type="line"/>
    </contour>
  </outline>
</glyph>
<glyph name="five" format="1">
  <advance width="451"/>
  <unicode hex="0035"/>
  <outline>
    <contour>
      <point x="30" y="83" type="qcurve"/>
      <point x="46" y="93" type="line"/>
      <point x="69" y="54"/>
      <point x="159" y="7"/>
      <point x="207" y="7" type="qcurve"/>
      <point x="292" y="7"/>
      <point x="401" y="124"/>
      <point x="401" y="277"/>
      <point x="294" y="394"/>
      <point x="209" y="394" type="qcurve"/>
      <point x="67" y="394" type="line"/>
      <point x="99" y="700" type="line"/>
      <point x="364" y="700" type="line"/>
      <point x="364" y="680" type="line"/>
      <point x="117" y="680" type="line"/>
      <point x="88" y="413" type="line"/>
      <point x="207" y="413" type="line"/>
      <point x="296" y="413"/>
      <point x="420" y="289"/>
      <point x="420" y="112"/>
      <point x="296" y="-12"/>
      <point x="207" y="-12" type="qcurve"/>
      <point x="153" y="-12"/>
      <point x="59" y="39"/>
    </contour>
  </outline>
</glyph>
<glyph name="six" format="1">
  <advance width="486"/>
  <unicode hex="0036"/>
  <outline>
    <contour>
      <point x="49" y="209" type="qcurve"/>
      <point x="49" y="201" type="line"/>
      <point x="49" y="120"/>
      <point x="161" y="7"/>
      <point x="323" y="7"/>
      <point x="436" y="120"/>
      <point x="436" y="282"/>
      <point x="323" y="394"/>
      <point x="163" y="394"/>
      <point x="52" y="287"/>
    </contour>
    <contour>
      <point x="30" y="201" type="qcurve"/>
      <point x="30" y="461" type="line"/>
      <point x="30" y="544"/>
      <point x="80" y="616" type="qcurve"/>
      <point x="107" y="653"/>
      <point x="207" y="700"/>
      <point x="274" y="700" type="qcurve"/>
      <point x="309" y="700" type="line"/>
      <point x="309" y="680" type="line"/>
      <point x="270" y="680" type="line"/>
      <point x="187" y="680"/>
      <point x="122" y="632" type="qcurve"/>
      <point x="89" y="607"/>
      <point x="49" y="513"/>
      <point x="49" y="449" type="qcurve"/>
      <point x="49" y="287" type="line"/>
      <point x="79" y="354"/>
      <point x="184" y="413"/>
      <point x="242" y="413" type="qcurve"/>
      <point x="331" y="413"/>
      <point x="455" y="289"/>
      <point x="455" y="112"/>
      <point x="330" y="-12"/>
      <point x="154" y="-12"/>
      <point x="30" y="112"/>
    </contour>
  </outline>
</glyph>
<glyph name="seven" format="1">
  <advance width="455"/>
  <unicode hex="0037"/>
  <outline>
    <contour>
      <point x="64" y="0" type="line"/>
      <point x="43" y="0" type="line"/>
      <point x="401" y="680" type="line"/>
      <point x="30" y="680" type="line"/>
      <point x="30" y="700" type="line"/>
      <point x="424" y="700" type="line"/>
      <point x="424" y="680" type="line"/>
    </contour>
  </outline>
</glyph>
<glyph name="eight" format="1">
  <advance width="475"/>
  <unicode hex="0038"/>
  <outline>
    <contour>
      <point x="239" y="392" type="qcurve"/>
      <point x="297" y="392"/>
      <point x="387" y="475"/>
      <point x="387" y="603"/>
      <point x="303" y="690"/>
      <point x="174" y="690"/>
      <point x="90" y="603"/>
      <point x="90" y="476"/>
      <point x="181" y="392"/>
    </contour>
    <contour>
      <point x="293" y="386" type="qcurve"/>
      <point x="361" y="368"/>
      <point x="444" y="254"/>
      <point x="444" y="192" type="qcurve"/>
      <point x="444" y="104"/>
      <point x="327" y="-12"/>
      <point x="149" y="-12"/>
      <point x="30" y="104"/>
      <point x="30" y="192" type="qcurve"/>
      <point x="30" y="256"/>
      <point x="110" y="366"/>
      <point x="180" y="386" type="qcurve"/>
      <point x="132" y="402"/>
      <point x="71" y="490"/>
      <point x="71" y="537" type="qcurve"/>
      <point x="71" y="611"/>
      <point x="166" y="709"/>
      <point x="311" y="709"/>
      <point x="406" y="611"/>
      <point x="406" y="537" type="qcurve"/>
      <point x="406" y="489"/>
      <point x="347" y="404"/>
    </contour>
    <contour>
      <point x="237" y="7" type="qcurve"/>
      <point x="318" y="7"/>
      <point x="425" y="112"/>
      <point x="425" y="269"/>
      <point x="313" y="375"/>
      <point x="159" y="375"/>
      <point x="49" y="270"/>
      <point x="49" y="112"/>
      <point x="157" y="7"/>
    </contour>
  </outline>
</glyph>
<glyph name="nine" format="1">
  <advance width="486"/>
  <unicode hex="0039"/>
  <outline>
    <contour>
      <point x="436" y="488" type="qcurve"/>
      <point x="436" y="496" type="line"/>
      <point x="436" y="577"/>
      <point x="324" y="690"/>
      <point x="162" y="690"/>
      <point x="49" y="577"/>
      <point x="49" y="415"/>
      <point x="162" y="303"/>
      <point x="322" y="303"/>
      <point x="433" y="410"/>
    </contour>
    <contour>
      <point x="211" y="0" type="qcurve"/>
      <point x="176" y="0" type="line"/>
      <point x="176" y="20" type="line"/>
      <point x="215" y="20" type="line"/>
      <point x="299" y="20"/>
      <point x="362" y="66" type="qcurve"/>
      <point x="396" y="91"/>
      <point x="436" y="184"/>
      <point x="436" y="248" type="qcurve"/>
      <point x="436" y="410" type="line"/>
      <point x="406" y="343"/>
      <point x="301" y="284"/>
      <point x="243" y="284" type="qcurve"/>
      <point x="154" y="284"/>
      <point x="30" y="408"/>
      <point x="30" y="584"/>
      <point x="154" y="709"/>
      <point x="331" y="709"/>
      <point x="455" y="585"/>
      <point x="455" y="496" type="qcurve"/>
      <point x="455" y="236" type="line"/>
      <point x="455" y="154"/>
      <point x="404" y="83" type="qcurve"/>
      <point x="378" y="46"/>
      <point x="278" y="0"/>
    </contour>
  </outline>
</glyph>
<glyph name="colon" format="1">
  <advance width="91"/>
  <unicode hex="003A"/>
  <outline>
    <contour>
      <point x="55" y="392" type="qcurve"/>
      <point x="51" y="388"/>
      <point x="39" y="388"/>
      <point x="30" y="397"/>
      <point x="30" y="409"/>
      <point x="39" y="418"/>
      <point x="51" y="418"/>
      <point x="60" y="409"/>
      <point x="60" y="397"/>
    </contour>
    <contour>
      <point x="55" y="114" type="qcurve"/>
      <point x="51" y="110"/>
      <point x="39" y="110"/>
      <point x="30" y="119"/>
      <point x="30" y="131"/>
      <point x="39" y="140"/>
      <point x="51" y="140"/>
      <point x="60" y="131"/>
      <point x="60" y="119"/>
    </contour>
  </outline>
</glyph>
<glyph name="semicolon" format="1">
  <advance width="138"/>
  <unicode hex="003B"/>
  <outline>
    <contour>
      <point x="46" y="-82" type="qcurve"/>
      <point x="30" y="-71" type="line"/>
      <point x="55" y="-57"/>
      <point x="86" y="-21"/>
      <point x="89" y="-10" type="qcurve"/>
      <point x="92" y="1" type="line"/>
      <point x="90" y="1" type="line"/>
      <point x="77" y="4"/>
      <point x="77" y="31"/>
      <point x="107" y="31"/>
      <point x="107" y="16" type="qcurve"/>
      <point x="107" y="-32"/>
    </contour>
    <contour>
      <point x="101" y="272" type="qcurve"/>
      <point x="97" y="268"/>
      <point x="85" y="268"/>
      <point x="76" y="277"/>
      <point x="76" y="289"/>
      <point x="85" y="298"/>
      <point x="97" y="298"/>
      <point x="106" y="289"/>
      <point x="106" y="277"/>
    </contour>
  </outline>
</glyph>
<glyph name="less" format="1">
  <advance width="353"/>
  <unicode hex="003C"/>
  <outline>
    <contour>
      <point x="308" y="80" type="line"/>
      <point x="30" y="358" type="line"/>
      <point x="30" y="359" type="line"/>
      <point x="308" y="637" type="line"/>
      <point x="322" y="624" type="line"/>
      <point x="54" y="358" type="line"/>
      <point x="322" y="94" type="line"/>
    </contour>
  </outline>
</glyph>
<glyph name="equal" format="1">
  <advance width="381"/>
  <unicode hex="003D"/>
  <outline>
    <contour>
      <point x="350" y="289" type="line"/>
      <point x="30" y="289" type="line"/>
      <point x="30" y="308" type="line"/>
      <point x="350" y="308" type="line"/>
    </contour>
    <contour>
      <point x="350" y="394" type="line"/>
      <point x="30" y="394" type="line"/>
      <point x="30" y="413" type="line"/>
      <point x="350" y="413" type="line"/>
    </contour>
  </outline>
</glyph>
<glyph name="greater" format="1">
  <advance width="353"/>
  <unicode hex="003E"/>
  <outline>
    <contour>
      <point x="322" y="358" type="line"/>
      <point x="44" y="80" type="line"/>
      <point x="30" y="94" type="line"/>
      <point x="298" y="358" type="line"/>
      <point x="30" y="624" type="line"/>
      <point x="44" y="637" type="line"/>
      <point x="322" y="359" type="line"/>
    </contour>
  </outline>
</glyph>
<glyph name="question" format="1">
  <advance width="416"/>
  <unicode hex="003F"/>
  <outline>
    <contour>
      <point x="206" y="4" type="qcurve"/>
      <point x="202" y="0"/>
      <point x="190" y="0"/>
      <point x="181" y="9"/>
      <point x="181" y="21"/>
      <point x="190" y="30"/>
      <point x="202" y="30"/>
      <point x="211" y="21"/>
      <point x="211" y="9"/>
    </contour>
    <contour>
      <point x="205" y="119" type="line"/>
      <point x="186" y="119" type="line"/>
      <point x="186" y="185" type="line"/>
      <point x="186" y="230"/>
      <point x="219" y="306"/>
      <point x="259" y="349"/>
      <point x="317" y="408"/>
      <point x="338" y="438" type="qcurve"/>
      <point x="365" y="477"/>
      <point x="365" y="571"/>
      <point x="336" y="639"/>
      <point x="260" y="690"/>
      <point x="139" y="690"/>
      <point x="49" y="606"/>
      <point x="49" y="532" type="qcurve"/>
      <point x="30" y="532" type="line"/>
      <point x="30" y="607"/>
      <point x="123" y="709"/>
      <point x="208" y="709" type="qcurve"/>
      <point x="260" y="709"/>
      <point x="302" y="682" type="qcurve"/>
      <point x="384" y="631"/>
      <point x="384" y="537" type="qcurve"/>
      <point x="384" y="475"/>
      <point x="347" y="421" type="qcurve"/>
      <point x="328" y="393"/>
      <point x="269" y="332"/>
      <point x="233" y="295"/>
      <point x="205" y="224"/>
      <point x="205" y="177" type="qcurve"/>
    </contour>
  </outline>
</glyph>
<glyph name="at" format="1">
  <advance width="720"/>
  <unicode hex="0040"/>
  <outline>
    <contour>
      <point x="518" y="108" type="qcurve"/>
      <point x="518" y="383" type="line"/>
      <point x="407" y="438"/>
      <point x="308" y="438" type="qcurve"/>
      <point x="284" y="438"/>
      <point x="262" y="434" type="qcurve"/>
      <point x="224" y="426"/>
      <point x="172" y="360"/>
      <point x="172" y="302" type="qcurve"/>
      <point x="172" y="207" type="line"/>
      <point x="172" y="150"/>
      <point x="202" y="117" type="qcurve"/>
      <point x="240" y="74"/>
      <point x="414" y="74"/>
    </contour>
    <contour>
      <point x="326" y="54" type="qcurve"/>
      <point x="164" y="54"/>
      <point x="153" y="204" type="qcurve"/>
      <point x="153" y="305" type="line"/>
      <point x="153" y="416"/>
      <point x="241" y="449" type="qcurve"/>
      <point x="270" y="460"/>
      <point x="307" y="460" type="qcurve"/>
      <point x="392" y="460"/>
      <point x="518" y="403" type="qcurve"/>
      <point x="519" y="473"/>
      <point x="471" y="516" type="qcurve"/>
      <point x="421" y="561"/>
      <point x="196" y="561"/>
      <point x="49" y="450"/>
      <point x="49" y="342" type="qcurve"/>
      <point x="49" y="190" type="line"/>
      <point x="49" y="83"/>
      <point x="200" y="-48"/>
      <point x="326" y="-48" type="qcurve"/>
      <point x="467" y="-48"/>
      <point x="637" y="73"/>
      <point x="637" y="162" type="qcurve"/>
      <point x="637" y="372" type="line"/>
      <point x="637" y="426"/>
      <point x="652" y="470"/>
      <point x="681" y="490" type="qcurve"/>
      <point x="689" y="473" type="line"/>
      <point x="656" y="458"/>
      <point x="656" y="403" type="qcurve"/>
      <point x="656" y="171" type="line"/>
      <point x="656" y="108"/>
      <point x="595" y="12"/>
      <point x="545" y="-14" type="qcurve"/>
      <point x="445" y="-66"/>
      <point x="202" y="-66"/>
      <point x="30" y="66"/>
      <point x="30" y="192" type="qcurve"/>
      <point x="30" y="339" type="line"/>
      <point x="30" y="462"/>
      <point x="119" y="526" type="qcurve"/>
      <point x="195" y="580"/>
      <point x="315" y="580" type="qcurve"/>
      <point x="451" y="580"/>
      <point x="506" y="506" type="qcurve"/>
      <point x="538" y="463"/>
      <point x="538" y="396" type="qcurve"/>
      <point x="575" y="380" type="line"/>
      <point x="575" y="359" type="line"/>
      <point x="538" y="375" type="line"/>
      <point x="538" y="91" type="line"/>
      <point x="402" y="54"/>
    </contour>
  </outline>
</glyph>
<glyph name="B" format="1">
  <advance width="550"/>
  <unicode hex="0042"/>
  <outline>
    <contour>
      <point x="97" y="19" type="line"/>
      <point x="306" y="19" type="line"/>
      <point x="396" y="19"/>
      <point x="492" y="119"/>
      <point x="492" y="291"/>
      <point x="395" y="394"/>
      <point x="309" y="394" type="qcurve"/>
      <point x="97" y="394" type="line"/>
    </contour>
    <contour>
      <point x="97" y="413" type="line"/>
      <point x="335" y="413" type="line"/>
      <point x="380" y="413"/>
      <point x="416" y="446" type="qcurve"/>
      <point x="456" y="481"/>
      <point x="456" y="605"/>
      <point x="376" y="681"/>
      <point x="291" y="681" type="qcurve"/>
      <point x="97" y="681" type="line"/>
    </contour>
    <contour>
      <point x="308" y="0" type="qcurve"/>
      <point x="78" y="0" type="line"/>
      <point x="78" y="700" type="line"/>
      <point x="299" y="700" type="line"/>
      <point x="381" y="700"/>
      <point x="475" y="617"/>
      <point x="475" y="540" type="qcurve"/>
      <point x="475" y="496"/>
      <point x="427" y="419"/>
      <point x="388" y="404" type="qcurve"/>
      <point x="387" y="403"/>
      <point x="387" y="402" type="qcurve"/>
      <point x="387" y="401" type="line"/>
      <point x="511" y="352"/>
      <point x="511" y="209" type="qcurve"/>
      <point x="511" y="129"/>
      <point x="470" y="70" type="qcurve"/>
      <point x="449" y="38"/>
      <point x="366" y="0"/>
    </contour>
  </outline>
</glyph>
<glyph name="E" format="1">
  <advance width="465"/>
  <unicode hex="0045"/>
  <outline>
    <contour>
      <point x="410" y="0" type="line"/>
      <point x="78" y="0" type="line"/>
      <point x="78" y="700" type="line"/>
      <point x="412" y="700" type="line"/>
      <point x="412" y="681" type="line"/>
      <point x="97" y="681" type="line"/>
      <point x="97" y="413" type="line"/>
      <point x="325" y="413" type="line"/>
      <point x="318" y="394" type="line"/>
      <point x="97" y="394" type="line"/>
      <point x="97" y="19" type="line"/>
      <point x="410" y="19" type="line"/>
    </contour>
  </outline>
</glyph>
<glyph name="F" format="1">
  <advance width="451"/>
  <unicode hex="0046"/>
  <outline>
    <contour>
      <point x="98" y="0" type="line"/>
      <point x="78" y="0" type="line"/>
      <point x="78" y="700" type="line"/>
      <point x="412" y="700" type="line"/>
      <point x="412" y="680" type="line"/>
      <point x="98" y="680" type="line"/>
      <point x="98" y="413" type="line"/>
      <point x="305" y="413" type="line"/>
      <point x="297" y="394" type="line"/>
      <point x="98" y="394" type="line"/>
    </contour>
  </outline>
</glyph>
<glyph name="I" format="1">
  <advance width="193"/>
  <unicode hex="0049"/>
  <outline>
    <contour>
      <point x="135" y="0" type="line"/>
      <point x="116" y="0" type="line"/>
      <point x="116" y="679" type="line"/>
      <point x="30" y="681" type="line"/>
      <point x="30" y="700" type="line"/>
      <point x="135" y="700" type="line"/>
    </contour>
  </outline>
</glyph>
<glyph name="J" format="1">
  <advance width="177"/>
  <unicode hex="004A"/>
  <outline>
    <contour>
      <point x="9" y="-37" type="qcurve"/>
      <point x="3" y="-19" type="line"/>
      <point x="95" y="-6"/>
      <point x="95" y="118" type="qcurve"/>
      <point x="95" y="679" type="line"/>
      <point x="11" y="681" type="line"/>
      <point x="11" y="700" type="line"/>
      <point x="113" y="700" type="line"/>
      <point x="113" y="122" type="line"/>
      <point x="113" y="47"/>
      <point x="65" y="-27"/>
    </contour>
  </outline>
</glyph>
<glyph name="K" format="1">
  <advance width="479"/>
  <unicode hex="004B"/>
  <outline>
    <contour>
      <point x="476" y="0" type="line"/>
      <point x="455" y="0" type="line"/>
      <point x="195" y="403" type="line"/>
      <point x="98" y="280" type="line"/>
      <point x="98" y="0" type="line"/>
      <point x="79" y="0" type="line"/>
      <point x="79" y="701" type="line"/>
      <point x="98" y="701" type="line"/>
      <point x="98" y="308" type="line"/>
      <point x="402" y="701" type="line"/>
      <point x="424" y="701" type="line"/>
      <point x="207" y="418" type="line"/>
    </contour>
  </outline>
</glyph>
<glyph name="M" format="1">
  <advance width="694"/>
  <unicode hex="004D"/>
  <outline>
    <contour>
      <point x="614" y="0" type="line"/>
      <point x="596" y="0" type="line"/>
      <point x="596" y="648" type="line"/>
      <point x="354" y="0" type="line"/>
      <point x="336" y="0" type="line"/>
      <point x="96" y="648" type="line"/>
      <point x="96" y="0" type="line"/>
      <point x="78" y="0" type="line"/>
      <point x="78" y="700" type="line"/>
      <point x="96" y="700" type="line"/>
      <point x="346" y="30" type="line"/>
      <point x="596" y="700" type="line"/>
      <point x="614" y="700" type="line"/>
    </contour>
  </outline>
</glyph>
<glyph name="N" format="1">
  <advance width="650"/>
  <unicode hex="004E"/>
  <outline>
    <contour>
      <point x="570" y="0" type="line"/>
      <point x="553" y="0" type="line"/>
      <point x="96" y="670" type="line"/>
      <point x="96" y="0" type="line"/>
      <point x="78" y="0" type="line"/>
      <point x="78" y="700" type="line"/>
      <point x="96" y="700" type="line"/>
      <point x="553" y="32" type="line"/>
      <point x="553" y="700" type="line"/>
      <point x="570" y="700" type="line"/>
    </contour>
  </outline>
</glyph>
<glyph name="Q" format="1">
  <advance width="549"/>
  <unicode hex="0051"/>
  <outline>
    <contour>
      <point x="463" y="186" type="qcurve"/>
      <point x="463" y="516" type="line"/>
      <point x="463" y="605"/>
      <point x="356" y="696"/>
      <point x="193" y="696"/>
      <point x="84" y="610"/>
      <point x="84" y="516" type="qcurve"/>
      <point x="84" y="184" type="line"/>
      <point x="84" y="136"/>
      <point x="102" y="100" type="qcurve"/>
      <point x="132" y="38"/>
      <point x="210" y="16" type="qcurve"/>
      <point x="239" y="8"/>
      <point x="271" y="8"/>
      <point x="274" y="8" type="qcurve"/>
      <point x="270" y="32"/>
      <point x="270" y="81" type="qcurve"/>
      <point x="270" y="174" type="line"/>
      <point x="290" y="174" type="line"/>
      <point x="291" y="81" type="line"/>
      <point x="291" y="37"/>
      <point x="296" y="9" type="qcurve"/>
      <point x="375" y="13"/>
      <point x="463" y="112"/>
    </contour>
    <contour>
      <point x="428" y="-75" type="qcurve"/>
      <point x="428" y="-94" type="line"/>
      <point x="304" y="-94"/>
      <point x="277" y="-11" type="qcurve"/>
      <point x="187" y="-11"/>
      <point x="63" y="85"/>
      <point x="63" y="185" type="qcurve"/>
      <point x="63" y="507" type="line"/>
      <point x="63" y="610"/>
      <point x="176" y="716"/>
      <point x="374" y="716"/>
      <point x="483" y="604"/>
      <point x="483" y="506" type="qcurve"/>
      <point x="483" y="185" type="line"/>
      <point x="483" y="96"/>
      <point x="384" y="-1"/>
      <point x="300" y="-11" type="qcurve"/>
      <point x="314" y="-74"/>
    </contour>
  </outline>
</glyph>
<glyph name="V" format="1">
  <advance width="595"/>
  <unicode hex="0056"/>
  <outline>
    <contour>
      <point x="329" y="0" type="line"/>
      <point x="307" y="0" type="line"/>
      <point x="78" y="700" type="line"/>
      <point x="97" y="700" type="line"/>
      <point x="317" y="27" type="line"/>
      <point x="537" y="700" type="line"/>
      <point x="556" y="700" type="line"/>
    </contour>
  </outline>
</glyph>
<glyph name="W" format="1">
  <advance width="813"/>
  <unicode hex="0057"/>
  <outline>
    <contour>
      <point x="593" y="0" type="line"/>
      <point x="572" y="0" type="line"/>
      <point x="427" y="653" type="line"/>
      <point x="282" y="0" type="line"/>
      <point x="261" y="0" type="line"/>
      <point x="78" y="700" type="line"/>
      <point x="99" y="700" type="line"/>
      <point x="271" y="36" type="line"/>
      <point x="417" y="700" type="line"/>
      <point x="437" y="700" type="line"/>
      <point x="583" y="35" type="line"/>
      <point x="752" y="700" type="line"/>
      <point x="774" y="700" type="line"/>
    </contour>
  </outline>
</glyph>
<glyph name="X" format="1">
  <advance width="581"/>
  <unicode hex="0058"/>
  <outline>
    <contour>
      <point x="542" y="3" type="line"/>
      <point x="520" y="0" type="line"/>
      <point x="289" y="346" type="line"/>
      <point x="60" y="0" type="line"/>
      <point x="35" y="0" type="line"/>
      <point x="278" y="364" type="line"/>
      <point x="54" y="700" type="line"/>
      <point x="76" y="700" type="line"/>
      <point x="289" y="382" type="line"/>
      <point x="502" y="700" type="line"/>
      <point x="526" y="700" type="line"/>
      <point x="302" y="364" type="line"/>
    </contour>
  </outline>
</glyph>
<glyph name="Y" format="1">
  <advance width="548"/>
  <unicode hex="0059"/>
  <outline>
    <contour>
      <point x="399" y="-7" type="qcurve"/>
      <point x="393" y="11" type="line"/>
      <point x="402" y="11"/>
      <point x="419" y="21"/>
      <point x="437" y="30"/>
      <point x="447" y="39"/>
      <point x="462" y="55"/>
      <point x="471" y="74"/>
      <point x="476" y="86" type="qcurve"/>
      <point x="484" y="110"/>
      <point x="484" y="152" type="qcurve"/>
      <point x="484" y="342" type="line"/>
      <point x="454" y="289"/>
      <point x="340" y="245"/>
      <point x="289" y="245" type="qcurve"/>
      <point x="183" y="245"/>
      <point x="60" y="350"/>
      <point x="60" y="453" type="qcurve"/>
      <point x="60" y="700" type="line"/>
      <point x="79" y="700" type="line"/>
      <point x="79" y="458" type="line"/>
      <point x="79" y="365"/>
      <point x="183" y="264"/>
      <point x="289" y="264" type="qcurve"/>
      <point x="369" y="264"/>
      <point x="475" y="345"/>
      <point x="484" y="405" type="qcurve"/>
      <point x="484" y="700" type="line"/>
      <point x="503" y="700" type="line"/>
      <point x="503" y="146" type="line"/>
      <point x="503" y="19"/>
    </contour>
  </outline>
</glyph>
<glyph name="Z" format="1">
  <advance width="550"/>
  <unicode hex="005A"/>
  <outline>
    <contour>
      <point x="518" y="0" type="line"/>
      <point x="31" y="0" type="line"/>
      <point x="31" y="19" type="line"/>
      <point x="488" y="681" type="line"/>
      <point x="45" y="681" type="line"/>
      <point x="44" y="700" type="line"/>
      <point x="512" y="700" type="line"/>
      <point x="512" y="681" type="line"/>
      <point x="55" y="19" type="line"/>
      <point x="518" y="19" type="line"/>
    </contour>
  </outline>
</glyph>
<glyph name="bracketleft" format="1">
  <advance width="319"/>
  <unicode hex="005B"/>
  <outline>
    <contour>
      <point x="239" y="-114" type="line"/>
      <point x="78" y="-114" type="line"/>
      <point x="78" y="817" type="line"/>
      <point x="239" y="817" type="line"/>
      <point x="239" y="800" type="line"/>
      <point x="97" y="799" type="line"/>
      <point x="97" y="-95" type="line"/>
      <point x="239" y="-96" type="line"/>
    </contour>
  </outline>
</glyph>
<glyph name="backslash" format="1">
  <advance width="461"/>
  <unicode hex="005C"/>
  <outline>
    <contour>
      <point x="422" y="-114" type="line"/>
      <point x="402" y="-114" type="line"/>
      <point x="78" y="817" type="line"/>
      <point x="98" y="817" type="line"/>
    </contour>
  </outline>
</glyph>
<glyph name="bracketright" format="1">
  <advance width="319"/>
  <unicode hex="005D"/>
  <outline>
    <contour>
      <point x="239" y="-114" type="line"/>
      <point x="78" y="-114" type="line"/>
      <point x="78" y="-96" type="line"/>
      <point x="220" y="-95" type="line"/>
      <point x="220" y="799" type="line"/>
      <point x="78" y="800" type="line"/>
      <point x="78" y="817" type="line"/>
      <point x="239" y="817" type="line"/>
    </contour>
  </outline>
</glyph>
<glyph name="asciicircum" format="1">
  <advance width="407"/>
  <unicode hex="005E"/>
  <outline>
    <contour>
      <point x="353" y="742" type="line"/>
      <point x="225" y="870" type="line"/>
      <point x="92" y="743" type="line"/>
      <point x="78" y="758" type="line"/>
      <point x="226" y="899" type="line"/>
      <point x="368" y="758" type="line"/>
    </contour>
  </outline>
</glyph>
<glyph name="grave" format="1">
  <advance width="222"/>
  <unicode hex="0060"/>
  <outline>
    <contour>
      <point x="133" y="588" type="line"/>
      <point x="114" y="588" type="line"/>
      <point x="51" y="701" type="line"/>
      <point x="46" y="709"/>
      <point x="46" y="723"/>
      <point x="59" y="729"/>
      <point x="63" y="729" type="qcurve"/>
      <point x="73" y="729"/>
      <point x="78" y="716" type="qcurve"/>
    </contour>
  </outline>
</glyph>
<glyph name="a" format="1">
  <advance width="458"/>
  <unicode hex="0061"/>
  <outline>
    <contour>
      <point x="403" y="18" type="qcurve"/>
      <point x="403" y="323" type="line"/>
      <point x="339" y="369"/>
      <point x="242" y="381" type="qcurve"/>
      <point x="220" y="384"/>
      <point x="175" y="384"/>
      <point x="152" y="380" type="qcurve"/>
      <point x="111" y="372"/>
      <point x="56" y="305"/>
      <point x="56" y="249" type="qcurve"/>
      <point x="56" y="162" type="line"/>
      <point x="56" y="112"/>
      <point x="99" y="45"/>
      <point x="163" y="14"/>
      <point x="244" y="7"/>
      <point x="323" y="7"/>
    </contour>
    <contour>
      <point x="200" y="402" type="qcurve"/>
      <point x="316" y="402"/>
      <point x="403" y="346" type="qcurve"/>
      <point x="403" y="490"/>
      <point x="224" y="490" type="qcurve"/>
      <point x="218" y="490"/>
      <point x="212" y="490" type="qcurve"/>
      <point x="214" y="509" type="line"/>
      <point x="295" y="509"/>
      <point x="334" y="490" type="qcurve"/>
      <point x="355" y="479"/>
      <point x="387" y="457"/>
      <point x="405" y="421"/>
      <point x="417" y="394"/>
      <point x="419" y="371" type="qcurve"/>
      <point x="422" y="336"/>
      <point x="422" y="298" type="qcurve"/>
      <point x="422" y="0" type="line"/>
      <point x="318" y="-10"/>
      <point x="256" y="-10" type="qcurve"/>
      <point x="37" y="-10"/>
      <point x="37" y="169" type="qcurve"/>
      <point x="37" y="252" type="line"/>
      <point x="37" y="348"/>
      <point x="110" y="384" type="qcurve"/>
      <point x="147" y="402"/>
    </contour>
  </outline>
</glyph>
<glyph name="b" format="1">
  <advance width="486"/>
  <unicode hex="0062"/>
  <outline>
    <contour>
      <point x="220" y="7" type="qcurve"/>
      <point x="428" y="7"/>
      <point x="428" y="156" type="qcurve"/>
      <point x="428" y="343" type="line"/>
      <point x="428" y="410"/>
      <point x="352" y="484"/>
      <point x="296" y="489" type="qcurve"/>
      <point x="277" y="491"/>
      <point x="257" y="491" type="qcurve"/>
      <point x="165" y="491"/>
      <point x="97" y="457" type="qcurve"/>
      <point x="97" y="21" type="line"/>
      <point x="161" y="7"/>
    </contour>
    <contour>
      <point x="97" y="477" type="line"/>
      <point x="164" y="509"/>
      <point x="320" y="509"/>
      <point x="362" y="490" type="qcurve"/>
      <point x="447" y="451"/>
      <point x="447" y="346" type="qcurve"/>
      <point x="447" y="157" type="line"/>
      <point x="447" y="58"/>
      <point x="369" y="18" type="qcurve"/>
      <point x="310" y="-12"/>
      <point x="164" y="-12"/>
      <point x="78" y="0" type="qcurve"/>
      <point x="78" y="700" type="line"/>
      <point x="97" y="700" type="line"/>
    </contour>
  </outline>
</glyph>
<glyph name="c" format="1">
  <advance width="383"/>
  <unicode hex="0063"/>
  <outline>
    <contour>
      <point x="353" y="25" type="qcurve"/>
      <point x="358" y="6" type="line"/>
      <point x="294" y="-11"/>
      <point x="190" y="-11"/>
      <point x="140" y="5" type="qcurve"/>
      <point x="36" y="39"/>
      <point x="36" y="180" type="qcurve"/>
      <point x="36" y="308" type="line"/>
      <point x="36" y="379"/>
      <point x="64" y="427" type="qcurve"/>
      <point x="112" y="510"/>
      <point x="222" y="510" type="qcurve"/>
      <point x="288" y="510"/>
      <point x="356" y="478" type="qcurve"/>
      <point x="349" y="458" type="line"/>
      <point x="288" y="490"/>
      <point x="223" y="490" type="qcurve"/>
      <point x="186" y="490"/>
      <point x="110" y="463"/>
      <point x="55" y="377"/>
      <point x="55" y="314" type="qcurve"/>
      <point x="55" y="169" type="line"/>
      <point x="54" y="109"/>
      <point x="108" y="33"/>
      <point x="193" y="8"/>
      <point x="293" y="8"/>
    </contour>
  </outline>
</glyph>
<glyph name="d" format="1">
  <advance width="462"/>
  <unicode hex="0064"/>
  <outline>
    <contour>
      <point x="281" y="7" type="qcurve"/>
      <point x="340" y="7"/>
      <point x="404" y="21" type="qcurve"/>
      <point x="404" y="457" type="line"/>
      <point x="336" y="491"/>
      <point x="244" y="491" type="qcurve"/>
      <point x="224" y="491"/>
      <point x="204" y="489" type="qcurve"/>
      <point x="149" y="484"/>
      <point x="73" y="410"/>
      <point x="73" y="343" type="qcurve"/>
      <point x="73" y="156" type="line"/>
      <point x="73" y="7"/>
    </contour>
    <contour>
      <point x="139" y="490" type="qcurve"/>
      <point x="181" y="509"/>
      <point x="337" y="509"/>
      <point x="404" y="477" type="qcurve"/>
      <point x="404" y="700" type="line"/>
      <point x="423" y="700" type="line"/>
      <point x="423" y="0" type="line"/>
      <point x="337" y="-12"/>
      <point x="191" y="-12"/>
      <point x="132" y="18" type="qcurve"/>
      <point x="54" y="58"/>
      <point x="54" y="157" type="qcurve"/>
      <point x="54" y="346" type="line"/>
      <point x="54" y="451"/>
    </contour>
  </outline>
</glyph>
<glyph name="e" format="1">
  <advance width="434"/>
  <unicode hex="0065"/>
  <outline>
    <contour>
      <point x="376" y="266" type="line"/>
      <point x="376" y="343" type="line"/>
      <point x="376" y="422"/>
      <point x="283" y="491"/>
      <point x="151" y="491"/>
      <point x="54" y="418"/>
      <point x="54" y="340" type="qcurve"/>
      <point x="54" y="248" type="line"/>
    </contour>
    <contour>
      <point x="197" y="4" type="qcurve"/>
      <point x="276" y="4"/>
      <point x="361" y="52" type="qcurve"/>
      <point x="370" y="35" type="line"/>
      <point x="293" y="-12"/>
      <point x="209" y="-12" type="qcurve"/>
      <point x="35" y="-12"/>
      <point x="35" y="134" type="qcurve"/>
      <point x="35" y="339" type="line"/>
      <point x="35" y="420"/>
      <point x="136" y="510"/>
      <point x="302" y="510"/>
      <point x="395" y="421"/>
      <point x="395" y="342" type="qcurve"/>
      <point x="395" y="247" type="line"/>
      <point x="54" y="230" type="line"/>
      <point x="54" y="132" type="line"/>
      <point x="54" y="66"/>
      <point x="140" y="4"/>
    </contour>
  </outline>
</glyph>
<glyph name="f" format="1">
  <advance width="300"/>
  <unicode hex="0066"/>
  <outline>
    <contour>
      <point x="97" y="0" type="line"/>
      <point x="78" y="0" type="line"/>
      <point x="78" y="549" type="line"/>
      <point x="78" y="599"/>
      <point x="112" y="671"/>
      <point x="138" y="686" type="qcurve"/>
      <point x="181" y="711"/>
      <point x="226" y="711" type="qcurve"/>
      <point x="244" y="711"/>
      <point x="261" y="707" type="qcurve"/>
      <point x="258" y="690" type="line"/>
      <point x="244" y="692"/>
      <point x="231" y="692" type="qcurve"/>
      <point x="181" y="692"/>
      <point x="144" y="664" type="qcurve"/>
      <point x="97" y="629"/>
      <point x="97" y="549" type="qcurve"/>
      <point x="97" y="501" type="line"/>
      <point x="248" y="501" type="line"/>
      <point x="240" y="482" type="line"/>
      <point x="97" y="482" type="line"/>
    </contour>
  </outline>
</glyph>
<glyph name="g" format="1">
  <advance width="448"/>
  <unicode hex="0067"/>
  <outline>
    <contour>
      <point x="395" y="160" type="qcurve"/>
      <point x="395" y="397" type="line"/>
      <point x="358" y="491"/>
      <point x="230" y="491" type="qcurve"/>
      <point x="149" y="491"/>
      <point x="100" y="443" type="qcurve"/>
      <point x="81" y="425"/>
      <point x="56" y="361"/>
      <point x="56" y="320" type="qcurve"/>
      <point x="56" y="167" type="line"/>
      <point x="56" y="95"/>
      <point x="141" y="6"/>
      <point x="223" y="6" type="qcurve"/>
      <point x="314" y="6"/>
      <point x="366" y="70" type="qcurve"/>
      <point x="395" y="106"/>
    </contour>
    <contour>
      <point x="307" y="-210" type="qcurve"/>
      <point x="301" y="-192" type="line"/>
      <point x="324" y="-183"/>
      <point x="347" y="-171"/>
      <point x="364" y="-157" type="qcurve"/>
      <point x="395" y="-130"/>
      <point x="395" y="-63" type="qcurve"/>
      <point x="395" y="75" type="line"/>
      <point x="337" y="-12"/>
      <point x="223" y="-12" type="qcurve"/>
      <point x="135" y="-12"/>
      <point x="37" y="84"/>
      <point x="37" y="176" type="qcurve"/>
      <point x="37" y="325" type="line"/>
      <point x="37" y="413"/>
      <point x="143" y="510"/>
      <point x="230" y="510" type="qcurve"/>
      <point x="343" y="510"/>
      <point x="395" y="437" type="qcurve"/>
      <point x="395" y="501" type="line"/>
      <point x="414" y="501" type="line"/>
      <point x="414" y="-64" type="line"/>
      <point x="414" y="-124"/>
      <point x="364" y="-192"/>
    </contour>
  </outline>
</glyph>
<glyph name="h" format="1">
  <advance width="493"/>
  <unicode hex="0068"/>
  <outline>
    <contour>
      <point x="83" y="475" type="line"/>
      <point x="151" y="510"/>
      <point x="307" y="510"/>
      <point x="348" y="489" type="qcurve"/>
      <point x="433" y="450"/>
      <point x="433" y="346" type="qcurve"/>
      <point x="433" y="0" type="line"/>
      <point x="414" y="0" type="line"/>
      <point x="414" y="347" type="line"/>
      <point x="414" y="408"/>
      <point x="343" y="481"/>
      <point x="291" y="488" type="qcurve"/>
      <point x="268" y="491"/>
      <point x="245" y="491" type="qcurve"/>
      <point x="154" y="491"/>
      <point x="83" y="454" type="qcurve"/>
      <point x="83" y="0" type="line"/>
      <point x="64" y="0" type="line"/>
      <point x="64" y="700" type="line"/>
      <point x="83" y="700" type="line"/>
    </contour>
  </outline>
</glyph>
<glyph name="i" format="1">
  <advance width="185"/>
  <unicode hex="0069"/>
  <outline>
    <contour>
      <point x="105" y="696" type="qcurve"/>
      <point x="105" y="683"/>
      <point x="78" y="683"/>
      <point x="78" y="710"/>
      <point x="105" y="710"/>
    </contour>
    <contour>
      <point x="101" y="0" type="line"/>
      <point x="82" y="0" type="line"/>
      <point x="82" y="501" type="line"/>
      <point x="101" y="501" type="line"/>
    </contour>
  </outline>
</glyph>
<glyph name="j" format="1">
  <advance width="196"/>
  <unicode hex="006A"/>
  <outline>
    <contour>
      <point x="109" y="696" type="qcurve"/>
      <point x="109" y="683"/>
      <point x="82" y="683"/>
      <point x="82" y="710"/>
      <point x="109" y="710"/>
    </contour>
    <contour>
      <point x="86" y="-82" type="qcurve"/>
      <point x="86" y="482" type="line"/>
      <point x="11" y="482" type="line"/>
      <point x="0" y="501" type="line"/>
      <point x="105" y="501" type="line"/>
      <point x="105" y="-83" type="line"/>
      <point x="105" y="-193"/>
      <point x="0" y="-209" type="qcurve"/>
      <point x="-3" y="-191" type="line"/>
      <point x="8" y="-191"/>
      <point x="43" y="-176"/>
      <point x="67" y="-155"/>
      <point x="86" y="-111"/>
    </contour>
  </outline>
</glyph>
<glyph name="k" format="1">
  <advance width="438"/>
  <unicode hex="006B"/>
  <outline>
    <contour>
      <point x="434" y="0" type="qcurve"/>
      <point x="411" y="0" type="line"/>
      <point x="185" y="366" type="line"/>
      <point x="86" y="277" type="line"/>
      <point x="86" y="0" type="line"/>
      <point x="67" y="0" type="line"/>
      <point x="67" y="700" type="line"/>
      <point x="86" y="700" type="line"/>
      <point x="86" y="301" type="line"/>
      <point x="323" y="520" type="line"/>
      <point x="337" y="507" type="line"/>
      <point x="199" y="380" type="line"/>
      <point x="305" y="204"/>
    </contour>
  </outline>
</glyph>
<glyph name="m" format="1">
  <advance width="741"/>
  <unicode hex="006D"/>
  <outline>
    <contour>
      <point x="702" y="0" type="line"/>
      <point x="683" y="0" type="line"/>
      <point x="683" y="344" type="line"/>
      <point x="683" y="397"/>
      <point x="640" y="467"/>
      <point x="579" y="489"/>
      <point x="559" y="489" type="qcurve"/>
      <point x="497" y="489"/>
      <point x="446" y="465" type="qcurve"/>
      <point x="392" y="438" type="line"/>
      <point x="403" y="420"/>
      <point x="403" y="333" type="qcurve"/>
      <point x="403" y="0" type="line"/>
      <point x="384" y="0" type="line"/>
      <point x="384" y="376" type="line"/>
      <point x="384" y="429"/>
      <point x="352" y="458" type="qcurve"/>
      <point x="315" y="490"/>
      <point x="249" y="490" type="qcurve"/>
      <point x="178" y="482" type="line"/>
      <point x="131" y="473"/>
      <point x="97" y="454" type="qcurve"/>
      <point x="97" y="0" type="line"/>
      <point x="78" y="0" type="line"/>
      <point x="78" y="501" type="line"/>
      <point x="97" y="501" type="line"/>
      <point x="97" y="476" type="line"/>
      <point x="170" y="509"/>
      <point x="243" y="509" type="qcurve"/>
      <point x="267" y="508" type="line"/>
      <point x="352" y="502"/>
      <point x="384" y="454" type="qcurve"/>
      <point x="405" y="466"/>
      <point x="498" y="511"/>
      <point x="588" y="511"/>
      <point x="623" y="494" type="qcurve"/>
      <point x="702" y="455"/>
      <point x="702" y="346" type="qcurve"/>
    </contour>
  </outline>
</glyph>
<glyph name="n" format="1">
  <advance width="500"/>
  <unicode hex="006E"/>
  <outline>
    <contour>
      <point x="83" y="475" type="line"/>
      <point x="151" y="510"/>
      <point x="307" y="510"/>
      <point x="348" y="489" type="qcurve"/>
      <point x="433" y="450"/>
      <point x="433" y="346" type="qcurve"/>
      <point x="433" y="0" type="line"/>
      <point x="414" y="0" type="line"/>
      <point x="414" y="347" type="line"/>
      <point x="414" y="407"/>
      <point x="378" y="443" type="qcurve"/>
      <point x="331" y="491"/>
      <point x="153" y="491"/>
      <point x="83" y="454" type="qcurve"/>
      <point x="83" y="0" type="line"/>
      <point x="64" y="0" type="line"/>
      <point x="64" y="501" type="line"/>
      <point x="83" y="501" type="line"/>
    </contour>
  </outline>
</glyph>
<glyph name="o" format="1">
  <advance width="461"/>
  <unicode hex="006F"/>
  <outline>
    <contour>
      <point x="403" y="184" type="qcurve"/>
      <point x="403" y="320" type="line"/>
      <point x="403" y="406"/>
      <point x="308" y="493"/>
      <point x="164" y="493"/>
      <point x="68" y="406"/>
      <point x="68" y="320" type="qcurve"/>
      <point x="68" y="184" type="line"/>
      <point x="68" y="111"/>
      <point x="150" y="8"/>
      <point x="321" y="8"/>
      <point x="403" y="109"/>
    </contour>
    <contour>
      <point x="422" y="316" type="qcurve"/>
      <point x="422" y="184" type="line"/>
      <point x="422" y="100"/>
      <point x="330" y="-10"/>
      <point x="144" y="-10"/>
      <point x="49" y="101"/>
      <point x="49" y="184" type="qcurve"/>
      <point x="49" y="316" type="line"/>
      <point x="49" y="411"/>
      <point x="146" y="512"/>
      <point x="324" y="512"/>
      <point x="422" y="407"/>
    </contour>
  </outline>
</glyph>
<glyph name="p" format="1">
  <advance width="494"/>
  <unicode hex="0070"/>
  <outline>
    <contour>
      <point x="436" y="166" type="qcurve"/>
      <point x="436" y="318" type="line"/>
      <point x="436" y="368"/>
      <point x="401" y="440"/>
      <point x="372" y="458" type="qcurve"/>
      <point x="318" y="490"/>
      <point x="253" y="490" type="qcurve"/>
      <point x="173" y="490"/>
      <point x="126" y="444" type="qcurve"/>
      <point x="106" y="425"/>
      <point x="97" y="397" type="qcurve"/>
      <point x="97" y="156" type="line"/>
      <point x="97" y="87"/>
      <point x="190" y="7"/>
      <point x="269" y="7" type="qcurve"/>
      <point x="358" y="7"/>
      <point x="408" y="72" type="qcurve"/>
      <point x="436" y="109"/>
    </contour>
    <contour>
      <point x="97" y="-210" type="line"/>
      <point x="78" y="-203" type="line"/>
      <point x="78" y="501" type="line"/>
      <point x="97" y="501" type="line"/>
      <point x="97" y="441" type="line"/>
      <point x="123" y="477"/>
      <point x="210" y="509"/>
      <point x="252" y="509" type="qcurve"/>
      <point x="354" y="509"/>
      <point x="455" y="401"/>
      <point x="455" y="314" type="qcurve"/>
      <point x="455" y="176" type="line"/>
      <point x="455" y="85"/>
      <point x="350" y="-12"/>
      <point x="266" y="-12" type="qcurve"/>
      <point x="142" y="-12"/>
      <point x="97" y="77" type="qcurve"/>
    </contour>
  </outline>
</glyph>
<glyph name="q" format="1">
  <advance width="448"/>
  <unicode hex="0071"/>
  <outline>
    <contour>
      <point x="395" y="156" type="qcurve"/>
      <point x="395" y="397" type="line"/>
      <point x="386" y="425"/>
      <point x="346" y="464"/>
      <point x="322" y="474" type="qcurve"/>
      <point x="280" y="490"/>
      <point x="209" y="490"/>
      <point x="150" y="474"/>
      <point x="92" y="437"/>
      <point x="56" y="366"/>
      <point x="56" y="318" type="qcurve"/>
      <point x="56" y="166" type="line"/>
      <point x="56" y="109"/>
      <point x="84" y="72" type="qcurve"/>
      <point x="134" y="7"/>
      <point x="302" y="7"/>
      <point x="395" y="87"/>
    </contour>
    <contour>
      <point x="414" y="-210" type="line"/>
      <point x="395" y="-203" type="line"/>
      <point x="395" y="77" type="line"/>
      <point x="350" y="-12"/>
      <point x="226" y="-12" type="qcurve"/>
      <point x="142" y="-12"/>
      <point x="37" y="85"/>
      <point x="37" y="176" type="qcurve"/>
      <point x="37" y="314" type="line"/>
      <point x="37" y="401"/>
      <point x="138" y="509"/>
      <point x="240" y="509" type="qcurve"/>
      <point x="282" y="509"/>
      <point x="369" y="477"/>
      <point x="395" y="441" type="qcurve"/>
      <point x="395" y="501" type="line"/>
      <point x="414" y="501" type="line"/>
    </contour>
  </outline>
</glyph>
<glyph name="r" format="1">
  <advance width="332"/>
  <unicode hex="0072"/>
  <outline>
    <contour>
      <point x="80" y="0" type="line"/>
      <point x="61" y="0" type="line"/>
      <point x="61" y="501" type="line"/>
      <point x="80" y="501" type="line"/>
      <point x="80" y="448" type="line"/>
      <point x="138" y="509"/>
      <point x="235" y="509" type="qcurve"/>
      <point x="270" y="509"/>
      <point x="311" y="501" type="qcurve"/>
      <point x="305" y="480" type="line"/>
      <point x="268" y="491"/>
      <point x="191" y="491"/>
      <point x="152" y="474" type="qcurve"/>
      <point x="80" y="445"/>
      <point x="80" y="399" type="qcurve"/>
    </contour>
  </outline>
</glyph>
<glyph name="s" format="1">
  <advance width="431"/>
  <unicode hex="0073"/>
  <outline>
    <contour>
      <point x="322" y="466" type="line"/>
      <point x="274" y="493"/>
      <point x="156" y="493"/>
      <point x="72" y="436"/>
      <point x="72" y="385" type="qcurve"/>
      <point x="72" y="340"/>
      <point x="145" y="295"/>
      <point x="239" y="268"/>
      <point x="332" y="236"/>
      <point x="396" y="173"/>
      <point x="396" y="66"/>
      <point x="307" y="-15"/>
      <point x="136" y="-15"/>
      <point x="38" y="67"/>
      <point x="36" y="127" type="qcurve"/>
      <point x="55" y="127" type="line"/>
      <point x="59" y="76"/>
      <point x="143" y="4"/>
      <point x="291" y="4"/>
      <point x="377" y="72"/>
      <point x="377" y="166"/>
      <point x="314" y="222"/>
      <point x="223" y="251"/>
      <point x="176" y="265" type="qcurve"/>
      <point x="63" y="299"/>
      <point x="54" y="365" type="qcurve"/>
      <point x="53" y="374"/>
      <point x="53" y="383" type="qcurve"/>
      <point x="53" y="428"/>
      <point x="128" y="513"/>
      <point x="219" y="513" type="qcurve"/>
      <point x="250" y="513"/>
      <point x="306" y="498"/>
      <point x="318" y="490" type="qcurve"/>
      <point x="331" y="483" type="line"/>
    </contour>
  </outline>
</glyph>
<glyph name="t" format="1">
  <advance width="243"/>
  <unicode hex="0074"/>
  <outline>
    <contour>
      <point x="156" y="5" type="qcurve"/>
      <point x="150" y="-13" type="line"/>
      <point x="94" y="3"/>
      <point x="44" y="73"/>
      <point x="44" y="132" type="qcurve"/>
      <point x="44" y="700" type="line"/>
      <point x="63" y="700" type="line"/>
      <point x="63" y="501" type="line"/>
      <point x="220" y="501" type="line"/>
      <point x="211" y="482" type="line"/>
      <point x="63" y="482" type="line"/>
      <point x="63" y="132" type="line"/>
      <point x="63" y="77"/>
      <point x="106" y="21"/>
    </contour>
  </outline>
</glyph>
<glyph name="u" format="1">
  <advance width="447"/>
  <unicode hex="0075"/>
  <outline>
    <contour>
      <point x="409" y="0" type="line"/>
      <point x="390" y="0" type="line"/>
      <point x="390" y="78" type="line"/>
      <point x="340" y="-11"/>
      <point x="224" y="-11" type="qcurve"/>
      <point x="36" y="-11"/>
      <point x="36" y="176" type="qcurve"/>
      <point x="36" y="501" type="line"/>
      <point x="55" y="501" type="line"/>
      <point x="55" y="176" type="line"/>
      <point x="55" y="95"/>
      <point x="133" y="9"/>
      <point x="296" y="9"/>
      <point x="390" y="91"/>
      <point x="390" y="160" type="qcurve"/>
      <point x="390" y="501" type="line"/>
      <point x="409" y="501" type="line"/>
    </contour>
  </outline>
</glyph>
<glyph name="v" format="1">
  <advance width="430"/>
  <unicode hex="0076"/>
  <outline>
    <contour>
      <point x="217" y="0" type="line"/>
      <point x="204" y="0" type="line"/>
      <point x="18" y="501" type="line"/>
      <point x="37" y="501" type="line"/>
      <point x="210" y="37" type="line"/>
      <point x="384" y="501" type="line"/>
      <point x="403" y="501" type="line"/>
    </contour>
  </outline>
</glyph>
<glyph name="w" format="1">
  <advance width="697"/>
  <unicode hex="0077"/>
  <outline>
    <contour>
      <point x="479" y="0" type="line"/>
      <point x="466" y="0" type="line"/>
      <point x="332" y="455" type="line"/>
      <point x="199" y="0" type="line"/>
      <point x="187" y="0" type="line"/>
      <point x="18" y="501" type="line"/>
      <point x="38" y="501" type="line"/>
      <point x="191" y="37" type="line"/>
      <point x="326" y="501" type="line"/>
      <point x="337" y="501" type="line"/>
      <point x="473" y="38" type="line"/>
      <point x="627" y="501" type="line"/>
      <point x="647" y="501" type="line"/>
    </contour>
  </outline>
</glyph>
<glyph name="x" format="1">
  <advance width="443"/>
  <unicode hex="0078"/>
  <outline>
    <contour>
      <point x="386" y="0" type="line"/>
      <point x="365" y="0" type="line"/>
      <point x="224" y="234" type="line"/>
      <point x="77" y="0" type="line"/>
      <point x="55" y="0" type="line"/>
      <point x="213" y="251" type="line"/>
      <point x="61" y="501" type="line"/>
      <point x="84" y="501" type="line"/>
      <point x="224" y="266" type="line"/>
      <point x="367" y="501" type="line"/>
      <point x="389" y="501" type="line"/>
      <point x="236" y="250" type="line"/>
    </contour>
  </outline>
</glyph>
<glyph name="y" format="1">
  <advance width="473"/>
  <unicode hex="0079"/>
  <outline>
    <contour>
      <point x="307" y="-210" type="qcurve"/>
      <point x="301" y="-192" type="line"/>
      <point x="394" y="-168"/>
      <point x="394" y="-63" type="qcurve"/>
      <point x="394" y="87" type="line"/>
      <point x="367" y="33"/>
      <point x="269" y="-12"/>
      <point x="220" y="-12" type="qcurve"/>
      <point x="132" y="-12"/>
      <point x="37" y="83"/>
      <point x="37" y="176" type="qcurve"/>
      <point x="37" y="501" type="line"/>
      <point x="56" y="501" type="line"/>
      <point x="56" y="166" type="line"/>
      <point x="56" y="94"/>
      <point x="135" y="7"/>
      <point x="297" y="7"/>
      <point x="393" y="97"/>
      <point x="393" y="166" type="qcurve"/>
      <point x="393" y="373" type="line"/>
      <point x="393" y="434"/>
      <point x="406" y="496"/>
      <point x="431" y="510" type="qcurve"/>
      <point x="439" y="494" type="line"/>
      <point x="412" y="474"/>
      <point x="412" y="404" type="qcurve"/>
      <point x="412" y="-61" type="line"/>
      <point x="412" y="-122"/>
      <point x="364" y="-192"/>
    </contour>
  </outline>
</glyph>
<glyph name="braceleft" format="1">
  <advance width="305"/>
  <unicode hex="007B"/>
  <outline>
    <contour>
      <point x="266" y="-99" type="qcurve"/>
      <point x="258" y="-116" type="line"/>
      <point x="193" y="-79"/>
      <point x="152" y="6"/>
      <point x="152" y="101" type="qcurve"/>
      <point x="152" y="247" type="line"/>
      <point x="152" y="266"/>
      <point x="120" y="315"/>
      <point x="99" y="335"/>
      <point x="78" y="354" type="qcurve"/>
      <point x="102" y="373"/>
      <point x="150" y="435"/>
      <point x="150" y="462" type="qcurve"/>
      <point x="150" y="620" type="line"/>
      <point x="150" y="703"/>
      <point x="192" y="785"/>
      <point x="256" y="822" type="qcurve"/>
      <point x="263" y="805" type="line"/>
      <point x="243" y="795"/>
      <point x="224" y="778"/>
      <point x="199" y="757"/>
      <point x="189" y="736"/>
      <point x="182" y="720" type="qcurve"/>
      <point x="169" y="692"/>
      <point x="169" y="641" type="qcurve"/>
      <point x="169" y="456" type="line"/>
      <point x="169" y="419"/>
      <point x="104" y="354" type="qcurve"/>
      <point x="116" y="342"/>
      <point x="134" y="324"/>
      <point x="153" y="302"/>
      <point x="158" y="294" type="qcurve"/>
      <point x="171" y="271"/>
      <point x="171" y="253" type="qcurve"/>
      <point x="171" y="76" type="line"/>
      <point x="171" y="6"/>
      <point x="212" y="-70"/>
    </contour>
  </outline>
</glyph>
<glyph name="braceright" format="1">
  <advance width="305"/>
  <unicode hex="007D"/>
  <outline>
    <contour>
      <point x="86" y="-116" type="qcurve"/>
      <point x="78" y="-99" type="line"/>
      <point x="132" y="-70"/>
      <point x="173" y="6"/>
      <point x="173" y="76" type="qcurve"/>
      <point x="173" y="253" type="line"/>
      <point x="173" y="287"/>
      <point x="215" y="329" type="qcurve"/>
      <point x="240" y="354" type="line"/>
      <point x="175" y="419"/>
      <point x="175" y="456" type="qcurve"/>
      <point x="175" y="641" type="line"/>
      <point x="175" y="692"/>
      <point x="155" y="736"/>
      <point x="145" y="757"/>
      <point x="120" y="778"/>
      <point x="116" y="782" type="qcurve"/>
      <point x="101" y="795"/>
      <point x="81" y="805" type="qcurve"/>
      <point x="88" y="822" type="line"/>
      <point x="152" y="785"/>
      <point x="194" y="703"/>
      <point x="194" y="620" type="qcurve"/>
      <point x="194" y="462" type="line"/>
      <point x="194" y="435"/>
      <point x="242" y="373"/>
      <point x="266" y="354" type="qcurve"/>
      <point x="245" y="335"/>
      <point x="224" y="315"/>
      <point x="192" y="266"/>
      <point x="192" y="247" type="qcurve"/>
      <point x="192" y="101" type="line"/>
      <point x="192" y="6"/>
      <point x="151" y="-79"/>
    </contour>
  </outline>
</glyph>
<glyph name="asciitilde" format="1">
  <advance width="508"/>
  <unicode hex="007E"/>
  <outline>
    <contour>
      <point x="189" y="375" type="qcurve"/>
      <point x="214" y="375"/>
      <point x="278" y="355"/>
      <point x="349" y="330"/>
      <point x="429" y="330"/>
      <point x="459" y="362" type="qcurve"/>
      <point x="469" y="344" type="line"/>
      <point x="432" y="310"/>
      <point x="380" y="310" type="qcurve"/>
      <point x="347" y="310"/>
      <point x="277" y="334"/>
      <point x="215" y="354"/>
      <point x="190" y="354" type="qcurve"/>
      <point x="131" y="354"/>
      <point x="90" y="308" type="qcurve"/>
      <point x="78" y="325" type="line"/>
      <point x="123" y="375"/>
    </contour>
  </outline>
</glyph>
<glyph name="exclamdown" format="1">
  <advance width="190"/>
  <unicode hex="00A1"/>
  <outline>
    <contour>
      <point x="104" y="684" type="qcurve"/>
      <point x="100" y="680"/>
      <point x="88" y="680"/>
      <point x="79" y="689"/>
      <point x="79" y="701"/>
      <point x="88" y="710"/>
      <point x="100" y="710"/>
      <point x="109" y="701"/>
      <point x="109" y="689"/>
    </contour>
    <contour>
      <point x="78" y="18" type="qcurve"/>
      <point x="87" y="590" type="line"/>
      <point x="102" y="590" type="line"/>
      <point x="110" y="18" type="line"/>
      <point x="110" y="0"/>
      <point x="95" y="0" type="qcurve"/>
      <point x="89" y="0"/>
      <point x="78" y="9"/>
    </contour>
  </outline>
</glyph>
<glyph name="cent" format="1">
  <advance width="439"/>
  <unicode hex="00A2"/>
  <outline>
    <contour>
      <point x="256" y="8" type="qcurve"/>
      <point x="256" y="490" type="line"/>
      <point x="186" y="487"/>
      <point x="97" y="398"/>
      <point x="97" y="314" type="qcurve"/>
      <point x="97" y="169" type="line"/>
      <point x="96" y="90"/>
      <point x="183" y="13"/>
    </contour>
    <contour>
      <point x="273" y="-114" type="line"/>
      <point x="256" y="-114" type="line"/>
      <point x="256" y="-9" type="line"/>
      <point x="222" y="-8"/>
      <point x="190" y="2" type="qcurve"/>
      <point x="131" y="22"/>
      <point x="78" y="105"/>
      <point x="78" y="180" type="qcurve"/>
      <point x="78" y="308" type="line"/>
      <point x="78" y="404"/>
      <point x="177" y="508"/>
      <point x="256" y="510" type="qcurve"/>
      <point x="256" y="623" type="line"/>
      <point x="273" y="623" type="line"/>
      <point x="273" y="510" type="line"/>
      <point x="334" y="507"/>
      <point x="398" y="478" type="qcurve"/>
      <point x="391" y="458" type="line"/>
      <point x="333" y="488"/>
      <point x="273" y="490" type="qcurve"/>
      <point x="273" y="8" type="line"/>
      <point x="276" y="8"/>
      <point x="279" y="8" type="qcurve"/>
      <point x="332" y="8"/>
      <point x="395" y="25" type="qcurve"/>
      <point x="400" y="6" type="line"/>
      <point x="337" y="-10"/>
      <point x="280" y="-10" type="qcurve"/>
      <point x="276" y="-10"/>
      <point x="273" y="-10" type="qcurve"/>
    </contour>
  </outline>
</glyph>
<glyph name="sterling" format="1">
  <advance width="477"/>
  <unicode hex="00A3"/>
  <outline>
    <contour>
      <point x="438" y="0" type="line"/>
      <point x="78" y="0" type="line"/>
      <point x="78" y="15" type="line"/>
      <point x="128" y="40"/>
      <point x="192" y="148"/>
      <point x="193" y="205" type="qcurve"/>
      <point x="193" y="259"/>
      <point x="168" y="336"/>
      <point x="167" y="339" type="qcurve"/>
      <point x="101" y="339" type="line"/>
      <point x="101" y="358" type="line"/>
      <point x="160" y="358" type="line"/>
      <point x="125" y="465"/>
      <point x="125" y="515" type="qcurve"/>
      <point x="125" y="602"/>
      <point x="234" y="709"/>
      <point x="387" y="709"/>
      <point x="427" y="684" type="qcurve"/>
      <point x="420" y="665" type="line"/>
      <point x="375" y="690"/>
      <point x="318" y="690" type="qcurve"/>
      <point x="238" y="690"/>
      <point x="144" y="586"/>
      <point x="144" y="513" type="qcurve"/>
      <point x="144" y="468"/>
      <point x="180" y="358" type="qcurve"/>
      <point x="421" y="358" type="line"/>
      <point x="421" y="339" type="line"/>
      <point x="188" y="339" type="line"/>
      <point x="213" y="271"/>
      <point x="213" y="152"/>
      <point x="158" y="48"/>
      <point x="119" y="20" type="qcurve"/>
      <point x="438" y="20" type="line"/>
    </contour>
  </outline>
</glyph>
<glyph name="currency" format="1">
  <advance width="468"/>
  <unicode hex="00A4"/>
  <outline>
    <contour>
      <point x="253" y="169" type="qcurve"/>
      <point x="318" y="169"/>
      <point x="408" y="258"/>
      <point x="408" y="387"/>
      <point x="317" y="478"/>
      <point x="188" y="478"/>
      <point x="97" y="386"/>
      <point x="97" y="258"/>
      <point x="188" y="169"/>
    </contour>
    <contour>
      <point x="402" y="159" type="line"/>
      <point x="369" y="192" type="line"/>
      <point x="325" y="148"/>
      <point x="182" y="148"/>
      <point x="135" y="192" type="qcurve"/>
      <point x="105" y="158" type="line"/>
      <point x="90" y="173" type="line"/>
      <point x="121" y="206" type="line"/>
      <point x="78" y="254"/>
      <point x="78" y="391"/>
      <point x="121" y="440" type="qcurve"/>
      <point x="92" y="471" type="line"/>
      <point x="106" y="485" type="line"/>
      <point x="135" y="454" type="line"/>
      <point x="157" y="474"/>
      <point x="222" y="499"/>
      <point x="253" y="499" type="qcurve"/>
      <point x="326" y="499"/>
      <point x="371" y="454" type="qcurve"/>
      <point x="401" y="485" type="line"/>
      <point x="414" y="470" type="line"/>
      <point x="385" y="439" type="line"/>
      <point x="429" y="392"/>
      <point x="429" y="254"/>
      <point x="384" y="207" type="qcurve"/>
      <point x="417" y="174" type="line"/>
    </contour>
  </outline>
</glyph>
<glyph name="yen" format="1">
  <advance width="559"/>
  <unicode hex="00A5"/>
  <outline>
    <contour>
      <point x="292" y="0" type="line"/>
      <point x="274" y="0" type="line"/>
      <point x="274" y="276" type="line"/>
      <point x="125" y="276" type="line"/>
      <point x="125" y="295" type="line"/>
      <point x="274" y="295" type="line"/>
      <point x="274" y="340" type="line"/>
      <point x="125" y="340" type="line"/>
      <point x="125" y="359" type="line"/>
      <point x="263" y="359" type="line"/>
      <point x="48" y="700" type="line"/>
      <point x="71" y="700" type="line"/>
      <point x="283" y="362" type="line"/>
      <point x="497" y="700" type="line"/>
      <point x="520" y="700" type="line"/>
      <point x="303" y="359" type="line"/>
      <point x="445" y="359" type="line"/>
      <point x="445" y="340" type="line"/>
      <point x="292" y="340" type="line"/>
      <point x="292" y="295" type="line"/>
      <point x="445" y="295" type="line"/>
      <point x="445" y="276" type="line"/>
      <point x="292" y="276" type="line"/>
    </contour>
  </outline>
</glyph>
<glyph name="section" format="1">
  <advance width="592"/>
  <unicode hex="00A7"/>
  <outline>
    <contour>
      <point x="515" y="104" type="qcurve"/>
      <point x="516" y="108"/>
      <point x="522" y="120" type="qcurve"/>
      <point x="553" y="188"/>
      <point x="500" y="245" type="qcurve"/>
      <point x="471" y="277"/>
      <point x="377" y="319"/>
      <point x="328" y="336" type="qcurve"/>
      <point x="196" y="383"/>
      <point x="142" y="432" type="qcurve"/>
      <point x="114" y="404"/>
      <point x="121" y="319"/>
      <point x="185" y="262"/>
      <point x="282" y="226"/>
      <point x="333" y="210" type="qcurve"/>
      <point x="465" y="167"/>
    </contour>
    <contour>
      <point x="78" y="-8" type="qcurve"/>
      <point x="97" y="-8" type="line"/>
      <point x="101" y="-81"/>
      <point x="219" y="-178"/>
      <point x="417" y="-178"/>
      <point x="535" y="-82"/>
      <point x="535" y="0" type="qcurve"/>
      <point x="535" y="62"/>
      <point x="449" y="147"/>
      <point x="323" y="193"/>
      <point x="197" y="235"/>
      <point x="150" y="270" type="qcurve"/>
      <point x="98" y="308"/>
      <point x="98" y="366" type="qcurve"/>
      <point x="98" y="408"/>
      <point x="128" y="445" type="qcurve"/>
      <point x="96" y="485"/>
      <point x="96" y="610"/>
      <point x="212" y="712"/>
      <point x="321" y="712" type="qcurve"/>
      <point x="404" y="712"/>
      <point x="467" y="682" type="qcurve"/>
      <point x="460" y="665" type="line"/>
      <point x="402" y="695"/>
      <point x="237" y="695"/>
      <point x="114" y="618"/>
      <point x="114" y="536" type="qcurve"/>
      <point x="114" y="482"/>
      <point x="203" y="403"/>
      <point x="331" y="355"/>
      <point x="460" y="306"/>
      <point x="550" y="227"/>
      <point x="551" y="171" type="qcurve"/>
      <point x="551" y="136"/>
      <point x="527" y="91" type="qcurve"/>
      <point x="553" y="51"/>
      <point x="553" y="6" type="qcurve"/>
      <point x="553" y="-85"/>
      <point x="431" y="-197"/>
      <point x="205" y="-197"/>
      <point x="80" y="-82"/>
    </contour>
  </outline>
</glyph>
<glyph name="dieresis" format="1">
  <advance width="222"/>
  <unicode hex="00A8"/>
  <outline>
    <contour>
      <point x="201" y="704" type="qcurve"/>
      <point x="197" y="700"/>
      <point x="185" y="700"/>
      <point x="176" y="709"/>
      <point x="176" y="721"/>
      <point x="185" y="730"/>
      <point x="197" y="730"/>
      <point x="206" y="721"/>
      <point x="206" y="709"/>
    </contour>
    <contour>
      <point x="42" y="703" type="qcurve"/>
      <point x="38" y="699"/>
      <point x="26" y="699"/>
      <point x="17" y="708"/>
      <point x="17" y="720"/>
      <point x="26" y="729"/>
      <point x="38" y="729"/>
      <point x="47" y="720"/>
      <point x="47" y="708"/>
    </contour>
  </outline>
</glyph>
<glyph name="copyright" format="1">
  <advance width="800"/>
  <unicode hex="00A9"/>
  <outline>
    <contour>
      <point x="580" y="175" type="qcurve"/>
      <point x="599" y="175" type="line"/>
      <point x="583" y="103"/>
      <point x="475" y="16"/>
      <point x="405" y="16" type="qcurve"/>
      <point x="306" y="16"/>
      <point x="191" y="146"/>
      <point x="191" y="343"/>
      <point x="305" y="478"/>
      <point x="403" y="478" type="qcurve"/>
      <point x="476" y="478"/>
      <point x="586" y="392"/>
      <point x="598" y="323" type="qcurve"/>
      <point x="580" y="323" type="line"/>
      <point x="570" y="373"/>
      <point x="481" y="459"/>
      <point x="404" y="459" type="qcurve"/>
      <point x="311" y="459"/>
      <point x="210" y="331"/>
      <point x="210" y="249" type="qcurve"/>
      <point x="210" y="197"/>
      <point x="244" y="105"/>
      <point x="336" y="35"/>
      <point x="477" y="35"/>
      <point x="572" y="124"/>
    </contour>
    <contour>
      <point x="45" y="248" type="qcurve"/>
      <point x="45" y="94"/>
      <point x="259" y="-108"/>
      <point x="540" y="-108"/>
      <point x="755" y="96"/>
      <point x="755" y="397"/>
      <point x="547" y="603"/>
      <point x="257" y="603"/>
      <point x="45" y="402"/>
    </contour>
    <contour>
      <point x="774" y="248" type="qcurve"/>
      <point x="774" y="89"/>
      <point x="556" y="-127"/>
      <point x="245" y="-127"/>
      <point x="25" y="89"/>
      <point x="25" y="407"/>
      <point x="243" y="621"/>
      <point x="558" y="621"/>
      <point x="774" y="407"/>
    </contour>
  </outline>
</glyph>
<glyph name="ordfeminine" format="1">
  <advance width="386"/>
  <unicode hex="00AA"/>
  <outline>
    <contour>
      <point x="328" y="548" type="line"/>
      <point x="242" y="613"/>
      <point x="178" y="613" type="qcurve"/>
      <point x="147" y="613"/>
      <point x="126" y="596" type="qcurve"/>
      <point x="97" y="570"/>
      <point x="97" y="513" type="qcurve"/>
      <point x="97" y="480"/>
      <point x="117" y="433"/>
      <point x="144" y="415" type="qcurve"/>
      <point x="172" y="395"/>
      <point x="267" y="395"/>
      <point x="328" y="405" type="qcurve"/>
    </contour>
    <contour>
      <point x="176" y="630" type="qcurve"/>
      <point x="244" y="630"/>
      <point x="328" y="569" type="qcurve"/>
      <point x="328" y="638"/>
      <point x="258" y="691"/>
      <point x="179" y="693" type="qcurve"/>
      <point x="181" y="709" type="line"/>
      <point x="279" y="709"/>
      <point x="347" y="634"/>
      <point x="347" y="555" type="qcurve"/>
      <point x="347" y="391" type="line"/>
      <point x="278" y="380"/>
      <point x="216" y="380"/>
      <point x="155" y="386"/>
      <point x="109" y="414"/>
      <point x="78" y="474"/>
      <point x="78" y="559"/>
      <point x="96" y="587" type="qcurve"/>
      <point x="124" y="630"/>
    </contour>
  </outline>
</glyph>
<glyph name="guillemotleft" format="1">
  <advance width="523"/>
  <unicode hex="00AB"/>
  <outline>
    <contour>
      <point x="449" y="80" type="line"/>
      <point x="262" y="267" type="line"/>
      <point x="262" y="268" type="line"/>
      <point x="449" y="455" type="line"/>
      <point x="462" y="441" type="line"/>
      <point x="288" y="268" type="line"/>
      <point x="463" y="96" type="line"/>
    </contour>
    <contour>
      <point x="229" y="80" type="line"/>
      <point x="42" y="267" type="line"/>
      <point x="42" y="268" type="line"/>
      <point x="229" y="455" type="line"/>
      <point x="243" y="441" type="line"/>
      <point x="70" y="268" type="line"/>
      <point x="243" y="96" type="line"/>
    </contour>
  </outline>
</glyph>
<glyph name="registered" format="1">
  <advance width="800"/>
  <unicode hex="00AE"/>
  <outline>
    <contour>
      <point x="44" y="248" type="qcurve"/>
      <point x="44" y="94"/>
      <point x="256" y="-108"/>
      <point x="548" y="-108"/>
      <point x="755" y="95"/>
      <point x="755" y="402"/>
      <point x="548" y="602"/>
      <point x="253" y="602"/>
      <point x="44" y="402"/>
    </contour>
    <contour>
      <point x="774" y="248" type="qcurve"/>
      <point x="774" y="89"/>
      <point x="556" y="-127"/>
      <point x="245" y="-127"/>
      <point x="25" y="89"/>
      <point x="25" y="407"/>
      <point x="243" y="621"/>
      <point x="558" y="621"/>
      <point x="774" y="407"/>
    </contour>
    <contour>
      <point x="283" y="248" type="line"/>
      <point x="441" y="248" type="line"/>
      <point x="477" y="248"/>
      <point x="506" y="262" type="qcurve"/>
      <point x="559" y="287"/>
      <point x="559" y="408"/>
      <point x="483" y="457"/>
      <point x="435" y="457" type="qcurve"/>
      <point x="283" y="457" type="line"/>
    </contour>
    <contour>
      <point x="587" y="39" type="line"/>
      <point x="564" y="39" type="line"/>
      <point x="442" y="229" type="line"/>
      <point x="283" y="229" type="line"/>
      <point x="283" y="39" type="line"/>
      <point x="264" y="39" type="line"/>
      <point x="264" y="476" type="line"/>
      <point x="437" y="476" type="line"/>
      <point x="499" y="476"/>
      <point x="577" y="406"/>
      <point x="577" y="299"/>
      <point x="514" y="237"/>
      <point x="464" y="231" type="qcurve"/>
    </contour>
  </outline>
</glyph>
<glyph name="overscore" format="1">
  <advance width="338"/>
  <unicode hex="00AF"/>
  <outline>
    <contour>
      <point x="299" y="658" type="line"/>
      <point x="78" y="658" type="line"/>
      <point x="78" y="677" type="line"/>
      <point x="299" y="677" type="line"/>
    </contour>
  </outline>
</glyph>
<glyph name="degree" format="1">
  <advance width="405"/>
  <unicode hex="00B0"/>
  <outline>
    <contour>
      <point x="312" y="478" type="qcurve"/>
      <point x="347" y="516"/>
      <point x="347" y="614"/>
      <point x="278" y="690"/>
      <point x="166" y="690"/>
      <point x="97" y="614"/>
      <point x="97" y="516"/>
      <point x="166" y="440"/>
      <point x="278" y="440"/>
    </contour>
    <contour>
      <point x="324" y="463" type="qcurve"/>
      <point x="282" y="421"/>
      <point x="162" y="421"/>
      <point x="78" y="505"/>
      <point x="78" y="625"/>
      <point x="162" y="709"/>
      <point x="282" y="709"/>
      <point x="366" y="625"/>
      <point x="366" y="505"/>
    </contour>
  </outline>
</glyph>
<glyph name="plusminus" format="1">
  <advance width="441"/>
  <unicode hex="00B1"/>
  <outline>
    <contour>
      <point x="398" y="237" type="line"/>
      <point x="78" y="237" type="line"/>
      <point x="78" y="257" type="line"/>
      <point x="234" y="257" type="line"/>
      <point x="234" y="394" type="line"/>
      <point x="82" y="394" type="line"/>
      <point x="82" y="413" type="line"/>
      <point x="234" y="413" type="line"/>
      <point x="234" y="545" type="line"/>
      <point x="253" y="545" type="line"/>
      <point x="253" y="413" type="line"/>
      <point x="402" y="413" type="line"/>
      <point x="402" y="394" type="line"/>
      <point x="253" y="394" type="line"/>
      <point x="253" y="257" type="line"/>
      <point x="398" y="257" type="line"/>
    </contour>
  </outline>
</glyph>
<glyph name="acute" format="1">
  <advance width="222"/>
  <unicode hex="00B4"/>
  <outline>
    <contour>
      <point x="65" y="588" type="line"/>
      <point x="46" y="588" type="line"/>
      <point x="101" y="716" type="line"/>
      <point x="106" y="729"/>
      <point x="116" y="729" type="qcurve"/>
      <point x="133" y="729"/>
      <point x="133" y="715" type="qcurve"/>
      <point x="133" y="709"/>
      <point x="128" y="701" type="qcurve"/>
    </contour>
  </outline>
</glyph>
<glyph name="mu" format="1">
  <advance width="476"/>
  <unicode hex="00B5"/>
  <outline>
    <contour>
      <point x="442" y="13" type="qcurve"/>
      <point x="429" y="-2" type="line"/>
      <point x="424" y="-2"/>
      <point x="410" y="12"/>
      <point x="398" y="43"/>
      <point x="398" y="60" type="qcurve"/>
      <point x="350" y="-11"/>
      <point x="138" y="-11"/>
      <point x="56" y="65" type="qcurve"/>
      <point x="56" y="-203" type="line"/>
      <point x="37" y="-201" type="line"/>
      <point x="37" y="501" type="line"/>
      <point x="56" y="501" type="line"/>
      <point x="56" y="91" type="line"/>
      <point x="66" y="76"/>
      <point x="98" y="52" type="qcurve"/>
      <point x="161" y="6"/>
      <point x="303" y="6"/>
      <point x="398" y="66"/>
      <point x="398" y="136" type="qcurve"/>
      <point x="398" y="506" type="line"/>
      <point x="417" y="510" type="line"/>
      <point x="417" y="63" type="line"/>
      <point x="417" y="20"/>
    </contour>
  </outline>
</glyph>
<glyph name="cedilla" format="1">
  <advance width="410"/>
  <unicode hex="00B8"/>
  <outline>
    <contour>
      <point x="151" y="-56" type="line"/>
      <point x="170" y="-46"/>
      <point x="235" y="-46"/>
      <point x="292" y="-78"/>
      <point x="292" y="-169"/>
      <point x="218" y="-210"/>
      <point x="128" y="-210"/>
      <point x="76" y="-191" type="qcurve"/>
      <point x="86" y="-170" type="line"/>
      <point x="122" y="-193"/>
      <point x="212" y="-193"/>
      <point x="273" y="-156"/>
      <point x="273" y="-84"/>
      <point x="238" y="-70" type="qcurve"/>
      <point x="222" y="-64"/>
      <point x="183" y="-64"/>
      <point x="159" y="-73" type="qcurve"/>
      <point x="118" y="-88" type="line"/>
      <point x="112" y="-78" type="line"/>
      <point x="173" y="0" type="line"/>
      <point x="193" y="0" type="line"/>
    </contour>
  </outline>
</glyph>
<glyph name="guillemotright" format="1">
  <advance width="519"/>
  <unicode hex="00BB"/>
  <outline>
    <contour>
      <point x="222" y="267" type="line"/>
      <point x="35" y="80" type="line"/>
      <point x="21" y="96" type="line"/>
      <point x="196" y="268" type="line"/>
      <point x="22" y="441" type="line"/>
      <point x="35" y="455" type="line"/>
      <point x="222" y="268" type="line"/>
    </contour>
    <contour>
      <point x="442" y="267" type="line"/>
      <point x="255" y="80" type="line"/>
      <point x="241" y="96" type="line"/>
      <point x="414" y="268" type="line"/>
      <point x="241" y="441" type="line"/>
      <point x="255" y="455" type="line"/>
      <point x="442" y="268" type="line"/>
    </contour>
  </outline>
</glyph>
<glyph name="questiondown" format="1">
  <advance width="472"/>
  <unicode hex="00BF"/>
  <outline>
    <contour>
      <point x="277" y="683" type="qcurve"/>
      <point x="273" y="679"/>
      <point x="261" y="679"/>
      <point x="252" y="688"/>
      <point x="252" y="700"/>
      <point x="261" y="709"/>
      <point x="273" y="709"/>
      <point x="282" y="700"/>
      <point x="282" y="688"/>
    </contour>
    <contour>
      <point x="414" y="177" type="qcurve"/>
      <point x="433" y="177" type="line"/>
      <point x="433" y="102"/>
      <point x="340" y="0"/>
      <point x="255" y="0" type="qcurve"/>
      <point x="203" y="0"/>
      <point x="161" y="26" type="qcurve"/>
      <point x="79" y="78"/>
      <point x="79" y="172" type="qcurve"/>
      <point x="79" y="234"/>
      <point x="116" y="288" type="qcurve"/>
      <point x="135" y="316"/>
      <point x="194" y="377"/>
      <point x="230" y="414"/>
      <point x="258" y="485"/>
      <point x="258" y="532" type="qcurve"/>
      <point x="258" y="590" type="line"/>
      <point x="277" y="590" type="line"/>
      <point x="277" y="524" type="line"/>
      <point x="277" y="479"/>
      <point x="244" y="403"/>
      <point x="204" y="360"/>
      <point x="146" y="301"/>
      <point x="124" y="270" type="qcurve"/>
      <point x="98" y="232"/>
      <point x="98" y="138"/>
      <point x="127" y="70"/>
      <point x="203" y="19"/>
      <point x="324" y="19"/>
      <point x="414" y="103"/>
    </contour>
  </outline>
</glyph>
<glyph name="Agrave" format="1">
  <advance width="527"/>
  <unicode hex="00C0"/>
  <outline>
    <contour>
      <point x="276" y="731" type="line"/>
      <point x="257" y="731" type="line"/>
      <point x="194" y="844" type="line"/>
      <point x="182" y="863"/>
      <point x="198" y="870" type="qcurve"/>
      <point x="202" y="872"/>
      <point x="206" y="872" type="qcurve"/>
      <point x="216" y="872"/>
      <point x="221" y="859" type="qcurve"/>
    </contour>
    <contour>
      <point x="391" y="300" type="line"/>
      <point x="264" y="660" type="line"/>
      <point x="137" y="300" type="line"/>
    </contour>
    <contour>
      <point x="517" y="0" type="line"/>
      <point x="496" y="0" type="line"/>
      <point x="398" y="281" type="line"/>
      <point x="130" y="281" type="line"/>
      <point x="31" y="0" type="line"/>
      <point x="12" y="0" type="line"/>
      <point x="257" y="700" type="line"/>
      <point x="271" y="700" type="line"/>
    </contour>
  </outline>
</glyph>
<glyph name="Aacute" format="1">
  <advance width="527"/>
  <unicode hex="00C1"/>
  <outline>
    <contour>
      <point x="261" y="731" type="line"/>
      <point x="242" y="731" type="line"/>
      <point x="297" y="859" type="line"/>
      <point x="302" y="872"/>
      <point x="312" y="872" type="qcurve"/>
      <point x="316" y="872"/>
      <point x="320" y="870" type="qcurve"/>
      <point x="336" y="863"/>
      <point x="324" y="844" type="qcurve"/>
    </contour>
    <contour>
      <point x="391" y="300" type="line"/>
      <point x="264" y="660" type="line"/>
      <point x="137" y="300" type="line"/>
    </contour>
    <contour>
      <point x="517" y="0" type="line"/>
      <point x="496" y="0" type="line"/>
      <point x="398" y="281" type="line"/>
      <point x="130" y="281" type="line"/>
      <point x="31" y="0" type="line"/>
      <point x="12" y="0" type="line"/>
      <point x="257" y="700" type="line"/>
      <point x="271" y="700" type="line"/>
    </contour>
  </outline>
</glyph>
<glyph name="Acircumflex" format="1">
  <advance width="527"/>
  <unicode hex="00C2"/>
  <outline>
    <contour>
      <point x="408" y="772" type="line"/>
      <point x="391" y="756" type="line"/>
      <point x="265" y="883" type="line"/>
      <point x="134" y="756" type="line"/>
      <point x="118" y="772" type="line"/>
      <point x="266" y="913" type="line"/>
    </contour>
    <contour>
      <point x="391" y="300" type="line"/>
      <point x="264" y="660" type="line"/>
      <point x="137" y="300" type="line"/>
    </contour>
    <contour>
      <point x="517" y="0" type="line"/>
      <point x="496" y="0" type="line"/>
      <point x="398" y="281" type="line"/>
      <point x="130" y="281" type="line"/>
      <point x="31" y="0" type="line"/>
      <point x="12" y="0" type="line"/>
      <point x="257" y="700" type="line"/>
      <point x="271" y="700" type="line"/>
    </contour>
  </outline>
</glyph>
<glyph name="Atilde" format="1">
  <advance width="527"/>
  <unicode hex="00C3"/>
  <outline>
    <contour>
      <point x="195" y="825" type="qcurve"/>
      <point x="222" y="825"/>
      <point x="287" y="793" type="qcurve"/>
      <point x="312" y="781"/>
      <point x="376" y="781"/>
      <point x="407" y="813" type="qcurve"/>
      <point x="417" y="796" type="line"/>
      <point x="379" y="761"/>
      <point x="335" y="761" type="qcurve"/>
      <point x="309" y="761"/>
      <point x="259" y="784"/>
      <point x="212" y="804"/>
      <point x="191" y="804" type="qcurve"/>
      <point x="145" y="804"/>
      <point x="107" y="760" type="qcurve"/>
      <point x="96" y="776" type="line"/>
      <point x="143" y="825"/>
    </contour>
    <contour>
      <point x="391" y="300" type="line"/>
      <point x="264" y="660" type="line"/>
      <point x="137" y="300" type="line"/>
    </contour>
    <contour>
      <point x="517" y="0" type="line"/>
      <point x="496" y="0" type="line"/>
      <point x="398" y="281" type="line"/>
      <point x="130" y="281" type="line"/>
      <point x="31" y="0" type="line"/>
      <point x="12" y="0" type="line"/>
      <point x="257" y="700" type="line"/>
      <point x="271" y="700" type="line"/>
    </contour>
  </outline>
</glyph>
<glyph name="Adieresis" format="1">
  <advance width="527"/>
  <unicode hex="00C4"/>
  <outline>
    <contour>
      <point x="391" y="300" type="line"/>
      <point x="264" y="660" type="line"/>
      <point x="137" y="300" type="line"/>
    </contour>
    <contour>
      <point x="517" y="0" type="line"/>
      <point x="496" y="0" type="line"/>
      <point x="398" y="281" type="line"/>
      <point x="130" y="281" type="line"/>
      <point x="31" y="0" type="line"/>
      <point x="12" y="0" type="line"/>
      <point x="257" y="700" type="line"/>
      <point x="271" y="700" type="line"/>
    </contour>
    <contour>
      <point x="350" y="803" type="qcurve"/>
      <point x="346" y="799"/>
      <point x="334" y="799"/>
      <point x="325" y="808"/>
      <point x="325" y="820"/>
      <point x="334" y="829"/>
      <point x="346" y="829"/>
      <point x="355" y="820"/>
      <point x="355" y="808"/>
    </contour>
    <contour>
      <point x="191" y="802" type="qcurve"/>
      <point x="187" y="798"/>
      <point x="175" y="798"/>
      <point x="166" y="807"/>
      <point x="166" y="819"/>
      <point x="175" y="828"/>
      <point x="187" y="828"/>
      <point x="196" y="819"/>
      <point x="196" y="807"/>
    </contour>
  </outline>
</glyph>
<glyph name="Aring" format="1">
  <advance width="527"/>
  <unicode hex="00C5"/>
  <outline>
    <contour>
      <point x="271" y="700" type="line"/>
      <point x="271" y="698" type="line"/>
      <point x="303" y="702"/>
      <point x="346" y="750"/>
      <point x="346" y="819"/>
      <point x="297" y="868"/>
      <point x="226" y="868"/>
      <point x="176" y="819"/>
      <point x="176" y="749"/>
      <point x="222" y="700"/>
      <point x="256" y="698" type="qcurve"/>
      <point x="257" y="700" type="line"/>
    </contour>
    <contour>
      <point x="391" y="300" type="line"/>
      <point x="264" y="660" type="line"/>
      <point x="137" y="300" type="line"/>
    </contour>
    <contour>
      <point x="517" y="0" type="line"/>
      <point x="496" y="0" type="line"/>
      <point x="398" y="281" type="line"/>
      <point x="130" y="281" type="line"/>
      <point x="31" y="0" type="line"/>
      <point x="12" y="0" type="line"/>
      <point x="249" y="679" type="line"/>
      <point x="210" y="684"/>
      <point x="156" y="743"/>
      <point x="156" y="826"/>
      <point x="218" y="888"/>
      <point x="304" y="888"/>
      <point x="366" y="826"/>
      <point x="366" y="744"/>
      <point x="316" y="686"/>
      <point x="278" y="679" type="qcurve"/>
    </contour>
  </outline>
</glyph>
<glyph name="AE" format="1">
  <advance width="818"/>
  <unicode hex="00C6"/>
  <outline>
    <contour>
      <point x="445" y="300" type="line"/>
      <point x="445" y="664" type="line"/>
      <point x="256" y="300" type="line"/>
    </contour>
    <contour>
      <point x="777" y="0" type="line"/>
      <point x="444" y="0" type="line"/>
      <point x="445" y="281" type="line"/>
      <point x="247" y="281" type="line"/>
      <point x="100" y="0" type="line"/>
      <point x="78" y="0" type="line"/>
      <point x="444" y="700" type="line"/>
      <point x="779" y="700" type="line"/>
      <point x="779" y="681" type="line"/>
      <point x="464" y="681" type="line"/>
      <point x="464" y="413" type="line"/>
      <point x="692" y="413" type="line"/>
      <point x="685" y="394" type="line"/>
      <point x="464" y="394" type="line"/>
      <point x="464" y="20" type="line"/>
      <point x="777" y="20" type="line"/>
    </contour>
  </outline>
</glyph>
<glyph name="Ccedilla" format="1">
  <advance width="430"/>
  <unicode hex="00C7"/>
  <outline>
    <contour>
      <point x="260" y="7" type="qcurve"/>
      <point x="333" y="7"/>
      <point x="421" y="41" type="qcurve"/>
      <point x="427" y="23" type="line"/>
      <point x="340" y="-10"/>
      <point x="261" y="-10" type="qcurve"/>
      <point x="252" y="-10"/>
      <point x="244" y="-10" type="qcurve"/>
      <point x="210" y="-56" type="line"/>
      <point x="229" y="-46"/>
      <point x="294" y="-46"/>
      <point x="351" y="-78"/>
      <point x="351" y="-169"/>
      <point x="277" y="-210"/>
      <point x="187" y="-210"/>
      <point x="135" y="-191" type="qcurve"/>
      <point x="145" y="-170" type="line"/>
      <point x="181" y="-193"/>
      <point x="271" y="-193"/>
      <point x="332" y="-156"/>
      <point x="332" y="-84"/>
      <point x="297" y="-70" type="qcurve"/>
      <point x="281" y="-64"/>
      <point x="242" y="-64"/>
      <point x="218" y="-73" type="qcurve"/>
      <point x="177" y="-88" type="line"/>
      <point x="171" y="-78" type="line"/>
      <point x="225" y="-8" type="line"/>
      <point x="153" y="0"/>
      <point x="66" y="92"/>
      <point x="66" y="183" type="qcurve"/>
      <point x="66" y="504" type="line"/>
      <point x="66" y="580"/>
      <point x="109" y="658"/>
      <point x="153" y="685" type="qcurve"/>
      <point x="197" y="710"/>
      <point x="260" y="710" type="qcurve"/>
      <point x="341" y="710"/>
      <point x="402" y="677" type="qcurve"/>
      <point x="394" y="660" type="line"/>
      <point x="324" y="691"/>
      <point x="263" y="691" type="qcurve"/>
      <point x="218" y="691"/>
      <point x="150" y="664"/>
      <point x="112" y="627"/>
      <point x="85" y="559"/>
      <point x="85" y="513" type="qcurve"/>
      <point x="85" y="185" type="line"/>
      <point x="85" y="120"/>
      <point x="138" y="35"/>
      <point x="218" y="7"/>
    </contour>
  </outline>
</glyph>
<glyph name="Egrave" format="1">
  <advance width="465"/>
  <unicode hex="00C8"/>
  <outline>
    <contour>
      <point x="270" y="730" type="line"/>
      <point x="251" y="730" type="line"/>
      <point x="188" y="843" type="line"/>
      <point x="176" y="862"/>
      <point x="192" y="869" type="qcurve"/>
      <point x="196" y="871"/>
      <point x="200" y="871" type="qcurve"/>
      <point x="210" y="871"/>
      <point x="215" y="858" type="qcurve"/>
    </contour>
    <contour>
      <point x="410" y="0" type="line"/>
      <point x="78" y="0" type="line"/>
      <point x="78" y="700" type="line"/>
      <point x="412" y="700" type="line"/>
      <point x="412" y="681" type="line"/>
      <point x="97" y="681" type="line"/>
      <point x="97" y="413" type="line"/>
      <point x="325" y="413" type="line"/>
      <point x="318" y="394" type="line"/>
      <point x="97" y="394" type="line"/>
      <point x="97" y="19" type="line"/>
      <point x="410" y="19" type="line"/>
    </contour>
  </outline>
</glyph>
<glyph name="Eacute" format="1">
  <advance width="465"/>
  <unicode hex="00C9"/>
  <outline>
    <contour>
      <point x="256" y="730" type="line"/>
      <point x="237" y="730" type="line"/>
      <point x="292" y="858" type="line"/>
      <point x="297" y="871"/>
      <point x="307" y="871" type="qcurve"/>
      <point x="311" y="871"/>
      <point x="315" y="869" type="qcurve"/>
      <point x="331" y="862"/>
      <point x="319" y="843" type="qcurve"/>
    </contour>
    <contour>
      <point x="410" y="0" type="line"/>
      <point x="78" y="0" type="line"/>
      <point x="78" y="700" type="line"/>
      <point x="412" y="700" type="line"/>
      <point x="412" y="681" type="line"/>
      <point x="97" y="681" type="line"/>
      <point x="97" y="413" type="line"/>
      <point x="325" y="413" type="line"/>
      <point x="318" y="394" type="line"/>
      <point x="97" y="394" type="line"/>
      <point x="97" y="19" type="line"/>
      <point x="410" y="19" type="line"/>
    </contour>
  </outline>
</glyph>
<glyph name="Ecircumflex" format="1">
  <advance width="465"/>
  <unicode hex="00CA"/>
  <outline>
    <contour>
      <point x="384" y="772" type="line"/>
      <point x="367" y="756" type="line"/>
      <point x="241" y="883" type="line"/>
      <point x="110" y="756" type="line"/>
      <point x="94" y="772" type="line"/>
      <point x="242" y="913" type="line"/>
    </contour>
    <contour>
      <point x="410" y="0" type="line"/>
      <point x="78" y="0" type="line"/>
      <point x="78" y="700" type="line"/>
      <point x="412" y="700" type="line"/>
      <point x="412" y="681" type="line"/>
      <point x="97" y="681" type="line"/>
      <point x="97" y="413" type="line"/>
      <point x="325" y="413" type="line"/>
      <point x="318" y="394" type="line"/>
      <point x="97" y="394" type="line"/>
      <point x="97" y="19" type="line"/>
      <point x="410" y="19" type="line"/>
    </contour>
  </outline>
</glyph>
<glyph name="Igrave" format="1">
  <advance width="263"/>
  <unicode hex="00CC"/>
  <outline>
    <contour>
      <point x="182" y="730" type="line"/>
      <point x="163" y="730" type="line"/>
      <point x="100" y="843" type="line"/>
      <point x="88" y="862"/>
      <point x="104" y="869" type="qcurve"/>
      <point x="108" y="871"/>
      <point x="112" y="871" type="qcurve"/>
      <point x="122" y="871"/>
      <point x="127" y="858" type="qcurve"/>
    </contour>
    <contour>
      <point x="183" y="0" type="line"/>
      <point x="164" y="0" type="line"/>
      <point x="164" y="679" type="line"/>
      <point x="78" y="681" type="line"/>
      <point x="78" y="700" type="line"/>
      <point x="183" y="700" type="line"/>
    </contour>
  </outline>
</glyph>
<glyph name="Iacute" format="1">
  <advance width="331"/>
  <unicode hex="00CD"/>
  <outline>
    <contour>
      <point x="183" y="730" type="line"/>
      <point x="164" y="730" type="line"/>
      <point x="219" y="858" type="line"/>
      <point x="224" y="871"/>
      <point x="234" y="871" type="qcurve"/>
      <point x="251" y="871"/>
      <point x="251" y="857" type="qcurve"/>
      <point x="251" y="851"/>
      <point x="246" y="843" type="qcurve"/>
    </contour>
    <contour>
      <point x="183" y="0" type="line"/>
      <point x="164" y="0" type="line"/>
      <point x="164" y="679" type="line"/>
      <point x="78" y="681" type="line"/>
      <point x="78" y="700" type="line"/>
      <point x="183" y="700" type="line"/>
    </contour>
  </outline>
</glyph>
<glyph name="Icircumflex" format="1">
  <advance width="448"/>
  <unicode hex="00CE"/>
  <outline>
    <contour>
      <point x="368" y="772" type="line"/>
      <point x="351" y="756" type="line"/>
      <point x="225" y="883" type="line"/>
      <point x="94" y="756" type="line"/>
      <point x="78" y="772" type="line"/>
      <point x="226" y="913" type="line"/>
    </contour>
    <contour>
      <point x="252" y="0" type="line"/>
      <point x="233" y="0" type="line"/>
      <point x="233" y="679" type="line"/>
      <point x="147" y="681" type="line"/>
      <point x="147" y="700" type="line"/>
      <point x="252" y="700" type="line"/>
    </contour>
  </outline>
</glyph>
<glyph name="Idieresis" format="1">
  <advance width="263"/>
  <unicode hex="00CF"/>
  <outline>
    <contour>
      <point x="183" y="0" type="line"/>
      <point x="164" y="0" type="line"/>
      <point x="164" y="679" type="line"/>
      <point x="78" y="681" type="line"/>
      <point x="78" y="700" type="line"/>
      <point x="183" y="700" type="line"/>
    </contour>
  </outline>
</glyph>
<glyph name="Eth" format="1">
  <advance width="644"/>
  <unicode hex="00D0"/>
  <outline>
    <contour>
      <point x="325" y="680" type="qcurve"/>
      <point x="146" y="680" type="line"/>
      <point x="146" y="538" type="line"/>
      <point x="520" y="538" type="line"/>
      <point x="502" y="610"/>
      <point x="395" y="680"/>
    </contour>
    <contour>
      <point x="528" y="214" type="qcurve"/>
      <point x="528" y="468" type="line"/>
      <point x="528" y="487"/>
      <point x="524" y="519" type="qcurve"/>
      <point x="146" y="519" type="line"/>
      <point x="146" y="20" type="line"/>
      <point x="325" y="20" type="line"/>
      <point x="354" y="20"/>
      <point x="396" y="24"/>
      <point x="459" y="45"/>
      <point x="498" y="84"/>
      <point x="528" y="161"/>
    </contour>
    <contour>
      <point x="335" y="0" type="qcurve"/>
      <point x="127" y="0" type="line"/>
      <point x="127" y="519" type="line"/>
      <point x="78" y="519" type="line"/>
      <point x="78" y="538" type="line"/>
      <point x="127" y="538" type="line"/>
      <point x="127" y="701" type="line"/>
      <point x="315" y="701" type="line"/>
      <point x="408" y="701"/>
      <point x="523" y="613"/>
      <point x="540" y="538" type="qcurve"/>
      <point x="605" y="538" type="line"/>
      <point x="605" y="519" type="line"/>
      <point x="544" y="519" type="line"/>
      <point x="547" y="496"/>
      <point x="547" y="474" type="qcurve"/>
      <point x="547" y="200" type="line"/>
      <point x="547" y="0"/>
    </contour>
  </outline>
</glyph>
<glyph name="Ntilde" format="1">
  <advance width="650"/>
  <unicode hex="00D1"/>
  <outline>
    <contour>
      <point x="257" y="825" type="qcurve"/>
      <point x="284" y="825"/>
      <point x="349" y="793" type="qcurve"/>
      <point x="374" y="781"/>
      <point x="438" y="781"/>
      <point x="469" y="813" type="qcurve"/>
      <point x="479" y="796" type="line"/>
      <point x="441" y="761"/>
      <point x="397" y="761" type="qcurve"/>
      <point x="371" y="761"/>
      <point x="321" y="784"/>
      <point x="274" y="804"/>
      <point x="253" y="804" type="qcurve"/>
      <point x="207" y="804"/>
      <point x="169" y="760" type="qcurve"/>
      <point x="158" y="776" type="line"/>
      <point x="205" y="825"/>
    </contour>
    <contour>
      <point x="570" y="0" type="line"/>
      <point x="553" y="0" type="line"/>
      <point x="96" y="670" type="line"/>
      <point x="96" y="0" type="line"/>
      <point x="78" y="0" type="line"/>
      <point x="78" y="700" type="line"/>
      <point x="96" y="700" type="line"/>
      <point x="553" y="32" type="line"/>
      <point x="553" y="700" type="line"/>
      <point x="570" y="700" type="line"/>
    </contour>
  </outline>
</glyph>
<glyph name="Ograve" format="1">
  <advance width="549"/>
  <unicode hex="00D2"/>
  <outline>
    <contour>
      <point x="292" y="730" type="line"/>
      <point x="273" y="730" type="line"/>
      <point x="210" y="843" type="line"/>
      <point x="198" y="862"/>
      <point x="214" y="869" type="qcurve"/>
      <point x="218" y="871"/>
      <point x="222" y="871" type="qcurve"/>
      <point x="232" y="871"/>
      <point x="237" y="858" type="qcurve"/>
    </contour>
    <contour>
      <point x="464" y="184" type="qcurve"/>
      <point x="464" y="510" type="line"/>
      <point x="464" y="596"/>
      <point x="368" y="695"/>
      <point x="178" y="695"/>
      <point x="82" y="594"/>
      <point x="82" y="508" type="qcurve"/>
      <point x="82" y="184" type="line"/>
      <point x="82" y="97"/>
      <point x="194" y="8"/>
      <point x="354" y="8"/>
      <point x="464" y="92"/>
    </contour>
    <contour>
      <point x="483" y="506" type="qcurve"/>
      <point x="483" y="185" type="line"/>
      <point x="483" y="84"/>
      <point x="360" y="-11"/>
      <point x="188" y="-11"/>
      <point x="63" y="84"/>
      <point x="63" y="185" type="qcurve"/>
      <point x="63" y="507" type="line"/>
      <point x="63" y="610"/>
      <point x="176" y="716"/>
      <point x="374" y="716"/>
      <point x="483" y="604"/>
    </contour>
  </outline>
</glyph>
<glyph name="Oacute" format="1">
  <advance width="549"/>
  <unicode hex="00D3"/>
  <outline>
    <contour>
      <point x="276" y="730" type="line"/>
      <point x="257" y="730" type="line"/>
      <point x="312" y="858" type="line"/>
      <point x="317" y="871"/>
      <point x="327" y="871" type="qcurve"/>
      <point x="331" y="871"/>
      <point x="335" y="869" type="qcurve"/>
      <point x="351" y="862"/>
      <point x="339" y="843" type="qcurve"/>
    </contour>
    <contour>
      <point x="464" y="184" type="qcurve"/>
      <point x="464" y="510" type="line"/>
      <point x="464" y="596"/>
      <point x="368" y="695"/>
      <point x="178" y="695"/>
      <point x="82" y="594"/>
      <point x="82" y="508" type="qcurve"/>
      <point x="82" y="184" type="line"/>
      <point x="82" y="97"/>
      <point x="194" y="8"/>
      <point x="354" y="8"/>
      <point x="464" y="92"/>
    </contour>
    <contour>
      <point x="483" y="506" type="qcurve"/>
      <point x="483" y="185" type="line"/>
      <point x="483" y="84"/>
      <point x="360" y="-11"/>
      <point x="188" y="-11"/>
      <point x="63" y="84"/>
      <point x="63" y="185" type="qcurve"/>
      <point x="63" y="507" type="line"/>
      <point x="63" y="610"/>
      <point x="176" y="716"/>
      <point x="374" y="716"/>
      <point x="483" y="604"/>
    </contour>
  </outline>
</glyph>
<glyph name="Ocircumflex" format="1">
  <advance width="549"/>
  <unicode hex="00D4"/>
  <outline>
    <contour>
      <point x="416" y="772" type="line"/>
      <point x="399" y="756" type="line"/>
      <point x="273" y="883" type="line"/>
      <point x="142" y="756" type="line"/>
      <point x="126" y="772" type="line"/>
      <point x="274" y="913" type="line"/>
    </contour>
    <contour>
      <point x="464" y="184" type="qcurve"/>
      <point x="464" y="510" type="line"/>
      <point x="464" y="596"/>
      <point x="368" y="695"/>
      <point x="178" y="695"/>
      <point x="82" y="594"/>
      <point x="82" y="508" type="qcurve"/>
      <point x="82" y="184" type="line"/>
      <point x="82" y="97"/>
      <point x="194" y="8"/>
      <point x="354" y="8"/>
      <point x="464" y="92"/>
    </contour>
    <contour>
      <point x="483" y="506" type="qcurve"/>
      <point x="483" y="185" type="line"/>
      <point x="483" y="84"/>
      <point x="360" y="-11"/>
      <point x="188" y="-11"/>
      <point x="63" y="84"/>
      <point x="63" y="185" type="qcurve"/>
      <point x="63" y="507" type="line"/>
      <point x="63" y="610"/>
      <point x="176" y="716"/>
      <point x="374" y="716"/>
      <point x="483" y="604"/>
    </contour>
  </outline>
</glyph>
<glyph name="Otilde" format="1">
  <advance width="549"/>
  <unicode hex="00D5"/>
  <outline>
    <contour>
      <point x="210" y="825" type="qcurve"/>
      <point x="237" y="825"/>
      <point x="302" y="793" type="qcurve"/>
      <point x="327" y="781"/>
      <point x="391" y="781"/>
      <point x="422" y="813" type="qcurve"/>
      <point x="432" y="796" type="line"/>
      <point x="394" y="761"/>
      <point x="350" y="761" type="qcurve"/>
      <point x="324" y="761"/>
      <point x="274" y="784"/>
      <point x="226" y="804"/>
      <point x="206" y="804" type="qcurve"/>
      <point x="160" y="804"/>
      <point x="122" y="760" type="qcurve"/>
      <point x="111" y="776" type="line"/>
      <point x="158" y="825"/>
    </contour>
    <contour>
      <point x="464" y="184" type="qcurve"/>
      <point x="464" y="510" type="line"/>
      <point x="464" y="596"/>
      <point x="368" y="695"/>
      <point x="178" y="695"/>
      <point x="82" y="594"/>
      <point x="82" y="508" type="qcurve"/>
      <point x="82" y="184" type="line"/>
      <point x="82" y="97"/>
      <point x="194" y="8"/>
      <point x="354" y="8"/>
      <point x="464" y="92"/>
    </contour>
    <contour>
      <point x="483" y="506" type="qcurve"/>
      <point x="483" y="185" type="line"/>
      <point x="483" y="84"/>
      <point x="360" y="-11"/>
      <point x="188" y="-11"/>
      <point x="63" y="84"/>
      <point x="63" y="185" type="qcurve"/>
      <point x="63" y="507" type="line"/>
      <point x="63" y="610"/>
      <point x="176" y="716"/>
      <point x="374" y="716"/>
      <point x="483" y="604"/>
    </contour>
  </outline>
</glyph>
<glyph name="Odieresis" format="1">
  <advance width="549"/>
  <unicode hex="00D6"/>
  <outline>
    <contour>
      <point x="464" y="184" type="qcurve"/>
      <point x="464" y="510" type="line"/>
      <point x="464" y="596"/>
      <point x="368" y="695"/>
      <point x="178" y="695"/>
      <point x="82" y="594"/>
      <point x="82" y="508" type="qcurve"/>
      <point x="82" y="184" type="line"/>
      <point x="82" y="97"/>
      <point x="194" y="8"/>
      <point x="354" y="8"/>
      <point x="464" y="92"/>
    </contour>
    <contour>
      <point x="483" y="506" type="qcurve"/>
      <point x="483" y="185" type="line"/>
      <point x="483" y="84"/>
      <point x="360" y="-11"/>
      <point x="188" y="-11"/>
      <point x="63" y="84"/>
      <point x="63" y="185" type="qcurve"/>
      <point x="63" y="507" type="line"/>
      <point x="63" y="610"/>
      <point x="176" y="716"/>
      <point x="374" y="716"/>
      <point x="483" y="604"/>
    </contour>
    <contour>
      <point x="359" y="803" type="qcurve"/>
      <point x="355" y="799"/>
      <point x="343" y="799"/>
      <point x="334" y="808"/>
      <point x="334" y="820"/>
      <point x="343" y="829"/>
      <point x="355" y="829"/>
      <point x="364" y="820"/>
      <point x="364" y="808"/>
    </contour>
    <contour>
      <point x="200" y="802" type="qcurve"/>
      <point x="196" y="798"/>
      <point x="184" y="798"/>
      <point x="175" y="807"/>
      <point x="175" y="819"/>
      <point x="184" y="828"/>
      <point x="196" y="828"/>
      <point x="205" y="819"/>
      <point x="205" y="807"/>
    </contour>
  </outline>
</glyph>
<glyph name="multiply" format="1">
  <advance width="377"/>
  <unicode hex="00D7"/>
  <outline>
    <contour>
      <point x="336" y="193" type="line"/>
      <point x="320" y="180" type="line"/>
      <point x="208" y="315" type="line"/>
      <point x="94" y="179" type="line"/>
      <point x="80" y="191" type="line"/>
      <point x="196" y="329" type="line"/>
      <point x="78" y="473" type="line"/>
      <point x="91" y="485" type="line"/>
      <point x="209" y="344" type="line"/>
      <point x="324" y="484" type="line"/>
      <point x="338" y="471" type="line"/>
      <point x="221" y="331" type="line"/>
    </contour>
  </outline>
</glyph>
<glyph name="Oslash" format="1">
  <advance width="537"/>
  <unicode hex="00D8"/>
  <outline>
    <contour>
      <point x="157" y="49" type="qcurve"/>
      <point x="376" y="680" type="line"/>
      <point x="334" y="695"/>
      <point x="288" y="695" type="qcurve"/>
      <point x="193" y="695"/>
      <point x="97" y="594"/>
      <point x="97" y="508" type="qcurve"/>
      <point x="97" y="184" type="line"/>
      <point x="97" y="97"/>
    </contour>
    <contour>
      <point x="479" y="184" type="qcurve"/>
      <point x="479" y="510" type="line"/>
      <point x="479" y="628"/>
      <point x="393" y="672" type="qcurve"/>
      <point x="172" y="38" type="line"/>
      <point x="221" y="8"/>
      <point x="369" y="8"/>
      <point x="479" y="92"/>
    </contour>
    <contour>
      <point x="120" y="-114" type="line"/>
      <point x="100" y="-114" type="line"/>
      <point x="150" y="29" type="line"/>
      <point x="78" y="82"/>
      <point x="78" y="185" type="qcurve"/>
      <point x="78" y="507" type="line"/>
      <point x="78" y="610"/>
      <point x="191" y="716"/>
      <point x="290" y="716" type="qcurve"/>
      <point x="340" y="716"/>
      <point x="383" y="700" type="qcurve"/>
      <point x="424" y="817" type="line"/>
      <point x="444" y="817" type="line"/>
      <point x="400" y="692" type="line"/>
      <point x="498" y="641"/>
      <point x="498" y="506" type="qcurve"/>
      <point x="498" y="185" type="line"/>
      <point x="498" y="84"/>
      <point x="375" y="-11"/>
      <point x="219" y="-11"/>
      <point x="166" y="19" type="qcurve"/>
    </contour>
  </outline>
</glyph>
<glyph name="Ugrave" format="1">
  <advance width="566"/>
  <unicode hex="00D9"/>
  <outline>
    <contour>
      <point x="301" y="730" type="line"/>
      <point x="282" y="730" type="line"/>
      <point x="219" y="843" type="line"/>
      <point x="207" y="862"/>
      <point x="223" y="869" type="qcurve"/>
      <point x="227" y="871"/>
      <point x="231" y="871" type="qcurve"/>
      <point x="241" y="871"/>
      <point x="246" y="858" type="qcurve"/>
    </contour>
    <contour>
      <point x="476" y="184" type="qcurve"/>
      <point x="476" y="701" type="line"/>
      <point x="495" y="701" type="line"/>
      <point x="495" y="186" type="line"/>
      <point x="495" y="133"/>
      <point x="458" y="55"/>
      <point x="395" y="13"/>
      <point x="325" y="-7"/>
      <point x="245" y="-7"/>
      <point x="174" y="13"/>
      <point x="111" y="55"/>
      <point x="74" y="133"/>
      <point x="74" y="186" type="qcurve"/>
      <point x="74" y="701" type="line"/>
      <point x="93" y="701" type="line"/>
      <point x="93" y="184" type="line"/>
      <point x="93" y="136"/>
      <point x="129" y="66"/>
      <point x="189" y="29"/>
      <point x="253" y="12"/>
      <point x="321" y="12"/>
      <point x="383" y="29"/>
      <point x="441" y="66"/>
      <point x="476" y="137"/>
    </contour>
  </outline>
</glyph>
<glyph name="Uacute" format="1">
  <advance width="566"/>
  <unicode hex="00DA"/>
  <outline>
    <contour>
      <point x="281" y="731" type="line"/>
      <point x="262" y="731" type="line"/>
      <point x="317" y="859" type="line"/>
      <point x="322" y="872"/>
      <point x="332" y="872" type="qcurve"/>
      <point x="336" y="872"/>
      <point x="340" y="870" type="qcurve"/>
      <point x="356" y="863"/>
      <point x="344" y="844" type="qcurve"/>
    </contour>
    <contour>
      <point x="476" y="184" type="qcurve"/>
      <point x="476" y="701" type="line"/>
      <point x="495" y="701" type="line"/>
      <point x="495" y="186" type="line"/>
      <point x="495" y="133"/>
      <point x="458" y="55"/>
      <point x="395" y="13"/>
      <point x="325" y="-7"/>
      <point x="245" y="-7"/>
      <point x="174" y="13"/>
      <point x="111" y="55"/>
      <point x="74" y="133"/>
      <point x="74" y="186" type="qcurve"/>
      <point x="74" y="701" type="line"/>
      <point x="93" y="701" type="line"/>
      <point x="93" y="184" type="line"/>
      <point x="93" y="136"/>
      <point x="129" y="66"/>
      <point x="189" y="29"/>
      <point x="253" y="12"/>
      <point x="321" y="12"/>
      <point x="383" y="29"/>
      <point x="441" y="66"/>
      <point x="476" y="137"/>
    </contour>
  </outline>
</glyph>
<glyph name="Udieresis" format="1">
  <advance width="566"/>
  <unicode hex="00DC"/>
  <outline>
    <contour>
      <point x="476" y="184" type="qcurve"/>
      <point x="476" y="701" type="line"/>
      <point x="495" y="701" type="line"/>
      <point x="495" y="186" type="line"/>
      <point x="495" y="133"/>
      <point x="458" y="55"/>
      <point x="395" y="13"/>
      <point x="325" y="-7"/>
      <point x="245" y="-7"/>
      <point x="174" y="13"/>
      <point x="111" y="55"/>
      <point x="74" y="133"/>
      <point x="74" y="186" type="qcurve"/>
      <point x="74" y="701" type="line"/>
      <point x="93" y="701" type="line"/>
      <point x="93" y="184" type="line"/>
      <point x="93" y="136"/>
      <point x="129" y="66"/>
      <point x="189" y="29"/>
      <point x="253" y="12"/>
      <point x="321" y="12"/>
      <point x="383" y="29"/>
      <point x="441" y="66"/>
      <point x="476" y="137"/>
    </contour>
    <contour>
      <point x="370" y="803" type="qcurve"/>
      <point x="366" y="799"/>
      <point x="354" y="799"/>
      <point x="345" y="808"/>
      <point x="345" y="820"/>
      <point x="354" y="829"/>
      <point x="366" y="829"/>
      <point x="375" y="820"/>
      <point x="375" y="808"/>
    </contour>
    <contour>
      <point x="211" y="802" type="qcurve"/>
      <point x="207" y="798"/>
      <point x="195" y="798"/>
      <point x="186" y="807"/>
      <point x="186" y="819"/>
      <point x="195" y="828"/>
      <point x="207" y="828"/>
      <point x="216" y="819"/>
      <point x="216" y="807"/>
    </contour>
  </outline>
</glyph>
<glyph name="germandbls" format="1">
  <advance width="515"/>
  <unicode hex="00DF"/>
  <outline>
    <contour>
      <point x="172" y="37" type="qcurve"/>
      <point x="184" y="56" type="line"/>
      <point x="213" y="28"/>
      <point x="266" y="15" type="qcurve"/>
      <point x="290" y="9"/>
      <point x="314" y="9" type="qcurve"/>
      <point x="372" y="18" type="line"/>
      <point x="425" y="33"/>
      <point x="445" y="82" type="qcurve"/>
      <point x="456" y="111"/>
      <point x="456" y="138" type="qcurve"/>
      <point x="456" y="203"/>
      <point x="390" y="259" type="qcurve"/>
      <point x="373" y="273"/>
      <point x="314" y="315"/>
      <point x="274" y="344"/>
      <point x="231" y="387"/>
      <point x="212" y="426"/>
      <point x="212" y="479"/>
      <point x="228" y="507" type="qcurve"/>
      <point x="231" y="507"/>
      <point x="233" y="507" type="qcurve"/>
      <point x="285" y="507"/>
      <point x="300" y="553" type="qcurve"/>
      <point x="305" y="568"/>
      <point x="305" y="613"/>
      <point x="285" y="642" type="qcurve"/>
      <point x="257" y="682"/>
      <point x="205" y="682" type="qcurve"/>
      <point x="97" y="682"/>
      <point x="97" y="541" type="qcurve"/>
      <point x="97" y="0" type="line"/>
      <point x="78" y="0" type="line"/>
      <point x="78" y="537" type="line"/>
      <point x="78" y="701"/>
      <point x="207" y="701" type="qcurve"/>
      <point x="244" y="701"/>
      <point x="272" y="681" type="qcurve"/>
      <point x="323" y="646"/>
      <point x="323" y="576" type="qcurve"/>
      <point x="323" y="545"/>
      <point x="284" y="497"/>
      <point x="252" y="492" type="qcurve"/>
      <point x="241" y="492" type="line"/>
      <point x="230" y="470"/>
      <point x="230" y="433"/>
      <point x="246" y="401"/>
      <point x="269" y="372"/>
      <point x="308" y="342"/>
      <point x="324" y="330" type="qcurve"/>
      <point x="380" y="292"/>
      <point x="405" y="272" type="qcurve"/>
      <point x="461" y="227"/>
      <point x="474" y="156" type="qcurve"/>
      <point x="477" y="145"/>
      <point x="477" y="104"/>
      <point x="463" y="73" type="qcurve"/>
      <point x="442" y="22"/>
      <point x="386" y="2" type="qcurve"/>
      <point x="350" y="-11"/>
      <point x="321" y="-11" type="qcurve"/>
      <point x="229" y="-11"/>
    </contour>
  </outline>
</glyph>
<glyph name="aacute" format="1">
  <advance width="502"/>
  <unicode hex="00E1"/>
  <outline>
    <contour>
      <point x="277" y="538" type="line"/>
      <point x="258" y="538" type="line"/>
      <point x="313" y="666" type="line"/>
      <point x="318" y="679"/>
      <point x="328" y="679" type="qcurve"/>
      <point x="332" y="679"/>
      <point x="336" y="677" type="qcurve"/>
      <point x="352" y="670"/>
      <point x="340" y="651" type="qcurve"/>
    </contour>
    <contour>
      <point x="444" y="18" type="qcurve"/>
      <point x="444" y="323" type="line"/>
      <point x="380" y="369"/>
      <point x="282" y="381" type="qcurve"/>
      <point x="261" y="384"/>
      <point x="216" y="384"/>
      <point x="193" y="380" type="qcurve"/>
      <point x="152" y="372"/>
      <point x="97" y="305"/>
      <point x="97" y="249" type="qcurve"/>
      <point x="97" y="162" type="line"/>
      <point x="97" y="112"/>
      <point x="140" y="45"/>
      <point x="204" y="14"/>
      <point x="285" y="7"/>
      <point x="364" y="7"/>
    </contour>
    <contour>
      <point x="241" y="402" type="qcurve"/>
      <point x="357" y="402"/>
      <point x="444" y="346" type="qcurve"/>
      <point x="444" y="490"/>
      <point x="265" y="490" type="qcurve"/>
      <point x="259" y="490"/>
      <point x="253" y="490" type="qcurve"/>
      <point x="255" y="509" type="line"/>
      <point x="336" y="509"/>
      <point x="375" y="490" type="qcurve"/>
      <point x="396" y="479"/>
      <point x="428" y="457"/>
      <point x="446" y="421"/>
      <point x="458" y="394"/>
      <point x="460" y="371" type="qcurve"/>
      <point x="463" y="336"/>
      <point x="463" y="298" type="qcurve"/>
      <point x="463" y="0" type="line"/>
      <point x="359" y="-10"/>
      <point x="297" y="-10" type="qcurve"/>
      <point x="78" y="-10"/>
      <point x="78" y="169" type="qcurve"/>
      <point x="78" y="252" type="line"/>
      <point x="78" y="348"/>
      <point x="151" y="384" type="qcurve"/>
      <point x="188" y="402"/>
    </contour>
  </outline>
</glyph>
<glyph name="aring" format="1">
  <advance width="502"/>
  <unicode hex="00E5"/>
  <outline>
    <contour>
      <point x="196" y="538" type="qcurve"/>
      <point x="223" y="511"/>
      <point x="299" y="511"/>
      <point x="352" y="565"/>
      <point x="352" y="641"/>
      <point x="299" y="694"/>
      <point x="223" y="694"/>
      <point x="169" y="641"/>
      <point x="169" y="565"/>
    </contour>
    <contour>
      <point x="444" y="18" type="qcurve"/>
      <point x="444" y="323" type="line"/>
      <point x="380" y="369"/>
      <point x="282" y="381" type="qcurve"/>
      <point x="261" y="384"/>
      <point x="216" y="384"/>
      <point x="193" y="380" type="qcurve"/>
      <point x="152" y="372"/>
      <point x="97" y="305"/>
      <point x="97" y="249" type="qcurve"/>
      <point x="97" y="162" type="line"/>
      <point x="97" y="112"/>
      <point x="140" y="45"/>
      <point x="204" y="14"/>
      <point x="285" y="7"/>
      <point x="364" y="7"/>
    </contour>
    <contour>
      <point x="261" y="490" type="qcurve"/>
      <point x="253" y="490" type="line"/>
      <point x="209" y="494"/>
      <point x="148" y="559"/>
      <point x="148" y="650"/>
      <point x="214" y="716"/>
      <point x="308" y="716"/>
      <point x="374" y="650"/>
      <point x="374" y="603" type="qcurve"/>
      <point x="374" y="537"/>
      <point x="317" y="505" type="qcurve"/>
      <point x="359" y="499"/>
      <point x="417" y="466"/>
      <point x="446" y="431"/>
      <point x="461" y="370"/>
      <point x="463" y="333"/>
      <point x="463" y="298" type="qcurve"/>
      <point x="463" y="0" type="line"/>
      <point x="359" y="-10"/>
      <point x="297" y="-10" type="qcurve"/>
      <point x="78" y="-10"/>
      <point x="78" y="169" type="qcurve"/>
      <point x="78" y="252" type="line"/>
      <point x="78" y="348"/>
      <point x="151" y="384" type="qcurve"/>
      <point x="188" y="402"/>
      <point x="241" y="402" type="qcurve"/>
      <point x="357" y="402"/>
      <point x="444" y="346" type="qcurve"/>
      <point x="444" y="403"/>
      <point x="409" y="444" type="qcurve"/>
      <point x="369" y="490"/>
    </contour>
  </outline>
</glyph>
<glyph name="ae" format="1">
  <advance width="845"/>
  <unicode hex="00E6"/>
  <outline>
    <contour>
      <point x="787" y="266" type="line"/>
      <point x="787" y="343" type="line"/>
      <point x="787" y="422"/>
      <point x="694" y="491"/>
      <point x="562" y="491"/>
      <point x="465" y="418"/>
      <point x="465" y="340" type="qcurve"/>
      <point x="465" y="248" type="line"/>
    </contour>
    <contour>
      <point x="444" y="18" type="qcurve"/>
      <point x="444" y="323" type="line"/>
      <point x="380" y="369"/>
      <point x="282" y="381" type="qcurve"/>
      <point x="261" y="384"/>
      <point x="216" y="384"/>
      <point x="193" y="380" type="qcurve"/>
      <point x="152" y="372"/>
      <point x="97" y="305"/>
      <point x="97" y="249" type="qcurve"/>
      <point x="97" y="162" type="line"/>
      <point x="97" y="112"/>
      <point x="140" y="45"/>
      <point x="204" y="14"/>
      <point x="285" y="7"/>
      <point x="364" y="7"/>
    </contour>
    <contour>
      <point x="608" y="4" type="qcurve"/>
      <point x="687" y="4"/>
      <point x="772" y="52" type="qcurve"/>
      <point x="781" y="35" type="line"/>
      <point x="704" y="-12"/>
      <point x="500" y="-12"/>
      <point x="463" y="58" type="qcurve"/>
      <point x="463" y="0" type="line"/>
      <point x="359" y="-10"/>
      <point x="297" y="-10" type="qcurve"/>
      <point x="78" y="-10"/>
      <point x="78" y="169" type="qcurve"/>
      <point x="78" y="252" type="line"/>
      <point x="78" y="348"/>
      <point x="151" y="384" type="qcurve"/>
      <point x="188" y="402"/>
      <point x="241" y="402" type="qcurve"/>
      <point x="357" y="402"/>
      <point x="444" y="346" type="qcurve"/>
      <point x="444" y="490"/>
      <point x="265" y="490" type="qcurve"/>
      <point x="259" y="490"/>
      <point x="253" y="490" type="qcurve"/>
      <point x="255" y="509" type="line"/>
      <point x="425" y="509"/>
      <point x="454" y="398" type="qcurve"/>
      <point x="471" y="452"/>
      <point x="564" y="510"/>
      <point x="713" y="510"/>
      <point x="806" y="421"/>
      <point x="806" y="342" type="qcurve"/>
      <point x="806" y="247" type="line"/>
      <point x="465" y="230" type="line"/>
      <point x="465" y="132" type="line"/>
      <point x="465" y="66"/>
      <point x="551" y="4"/>
    </contour>
  </outline>
</glyph>
<glyph name="ccedilla" format="1">
  <advance width="383"/>
  <unicode hex="00E7"/>
  <outline>
    <contour>
      <point x="353" y="25" type="qcurve"/>
      <point x="358" y="6" type="line"/>
      <point x="295" y="-11"/>
      <point x="215" y="-11"/>
      <point x="194" y="-8" type="qcurve"/>
      <point x="158" y="-56" type="line"/>
      <point x="177" y="-46"/>
      <point x="242" y="-46"/>
      <point x="299" y="-78"/>
      <point x="299" y="-169"/>
      <point x="225" y="-210"/>
      <point x="135" y="-210"/>
      <point x="83" y="-191" type="qcurve"/>
      <point x="93" y="-170" type="line"/>
      <point x="129" y="-193"/>
      <point x="219" y="-193"/>
      <point x="280" y="-156"/>
      <point x="280" y="-84"/>
      <point x="245" y="-70" type="qcurve"/>
      <point x="229" y="-64"/>
      <point x="190" y="-64"/>
      <point x="166" y="-73" type="qcurve"/>
      <point x="125" y="-88" type="line"/>
      <point x="119" y="-78" type="line"/>
      <point x="176" y="-5" type="line"/>
      <point x="158" y="-2"/>
      <point x="148" y="2" type="qcurve"/>
      <point x="89" y="22"/>
      <point x="36" y="105"/>
      <point x="36" y="180" type="qcurve"/>
      <point x="36" y="308" type="line"/>
      <point x="36" y="379"/>
      <point x="64" y="427" type="qcurve"/>
      <point x="112" y="510"/>
      <point x="222" y="510" type="qcurve"/>
      <point x="288" y="510"/>
      <point x="356" y="478" type="qcurve"/>
      <point x="349" y="458" type="line"/>
      <point x="288" y="490"/>
      <point x="223" y="490" type="qcurve"/>
      <point x="186" y="490"/>
      <point x="110" y="463"/>
      <point x="55" y="377"/>
      <point x="55" y="314" type="qcurve"/>
      <point x="55" y="169" type="line"/>
      <point x="54" y="109"/>
      <point x="108" y="33"/>
      <point x="193" y="8"/>
      <point x="293" y="8"/>
    </contour>
  </outline>
</glyph>
<glyph name="egrave" format="1">
  <advance width="477"/>
  <unicode hex="00E8"/>
  <outline>
    <contour>
      <point x="284" y="538" type="line"/>
      <point x="265" y="538" type="line"/>
      <point x="202" y="651" type="line"/>
      <point x="190" y="670"/>
      <point x="206" y="677" type="qcurve"/>
      <point x="210" y="679"/>
      <point x="214" y="679" type="qcurve"/>
      <point x="224" y="679"/>
      <point x="229" y="666" type="qcurve"/>
    </contour>
    <contour>
      <point x="419" y="266" type="line"/>
      <point x="419" y="343" type="line"/>
      <point x="419" y="422"/>
      <point x="326" y="491"/>
      <point x="194" y="491"/>
      <point x="97" y="418"/>
      <point x="97" y="340" type="qcurve"/>
      <point x="97" y="248" type="line"/>
    </contour>
    <contour>
      <point x="240" y="4" type="qcurve"/>
      <point x="319" y="4"/>
      <point x="404" y="52" type="qcurve"/>
      <point x="413" y="35" type="line"/>
      <point x="336" y="-12"/>
      <point x="252" y="-12" type="qcurve"/>
      <point x="78" y="-12"/>
      <point x="78" y="134" type="qcurve"/>
      <point x="78" y="339" type="line"/>
      <point x="78" y="420"/>
      <point x="179" y="510"/>
      <point x="345" y="510"/>
      <point x="438" y="421"/>
      <point x="438" y="342" type="qcurve"/>
      <point x="438" y="247" type="line"/>
      <point x="97" y="230" type="line"/>
      <point x="97" y="132" type="line"/>
      <point x="97" y="66"/>
      <point x="183" y="4"/>
    </contour>
  </outline>
</glyph>
<glyph name="eacute" format="1">
  <advance width="477"/>
  <unicode hex="00E9"/>
  <outline>
    <contour>
      <point x="259" y="538" type="line"/>
      <point x="240" y="538" type="line"/>
      <point x="295" y="666" type="line"/>
      <point x="300" y="679"/>
      <point x="310" y="679" type="qcurve"/>
      <point x="314" y="679"/>
      <point x="318" y="677" type="qcurve"/>
      <point x="334" y="670"/>
      <point x="322" y="651" type="qcurve"/>
    </contour>
    <contour>
      <point x="419" y="266" type="line"/>
      <point x="419" y="343" type="line"/>
      <point x="419" y="422"/>
      <point x="326" y="491"/>
      <point x="194" y="491"/>
      <point x="97" y="418"/>
      <point x="97" y="340" type="qcurve"/>
      <point x="97" y="248" type="line"/>
    </contour>
    <contour>
      <point x="240" y="4" type="qcurve"/>
      <point x="319" y="4"/>
      <point x="404" y="52" type="qcurve"/>
      <point x="413" y="35" type="line"/>
      <point x="336" y="-12"/>
      <point x="252" y="-12" type="qcurve"/>
      <point x="78" y="-12"/>
      <point x="78" y="134" type="qcurve"/>
      <point x="78" y="339" type="line"/>
      <point x="78" y="420"/>
      <point x="179" y="510"/>
      <point x="345" y="510"/>
      <point x="438" y="421"/>
      <point x="438" y="342" type="qcurve"/>
      <point x="438" y="247" type="line"/>
      <point x="97" y="230" type="line"/>
      <point x="97" y="132" type="line"/>
      <point x="97" y="66"/>
      <point x="183" y="4"/>
    </contour>
  </outline>
</glyph>
<glyph name="ecircumflex" format="1">
  <advance width="486"/>
  <unicode hex="00EA"/>
  <outline>
    <contour>
      <point x="397" y="579" type="line"/>
      <point x="380" y="563" type="line"/>
      <point x="254" y="690" type="line"/>
      <point x="123" y="563" type="line"/>
      <point x="107" y="579" type="line"/>
      <point x="255" y="720" type="line"/>
    </contour>
    <contour>
      <point x="419" y="266" type="line"/>
      <point x="419" y="343" type="line"/>
      <point x="419" y="422"/>
      <point x="326" y="491"/>
      <point x="194" y="491"/>
      <point x="97" y="418"/>
      <point x="97" y="340" type="qcurve"/>
      <point x="97" y="248" type="line"/>
    </contour>
    <contour>
      <point x="240" y="4" type="qcurve"/>
      <point x="319" y="4"/>
      <point x="404" y="52" type="qcurve"/>
      <point x="413" y="35" type="line"/>
      <point x="336" y="-12"/>
      <point x="252" y="-12" type="qcurve"/>
      <point x="78" y="-12"/>
      <point x="78" y="134" type="qcurve"/>
      <point x="78" y="339" type="line"/>
      <point x="78" y="420"/>
      <point x="179" y="510"/>
      <point x="345" y="510"/>
      <point x="438" y="421"/>
      <point x="438" y="342" type="qcurve"/>
      <point x="438" y="247" type="line"/>
      <point x="97" y="230" type="line"/>
      <point x="97" y="132" type="line"/>
      <point x="97" y="66"/>
      <point x="183" y="4"/>
    </contour>
  </outline>
</glyph>
<glyph name="igrave" format="1">
  <advance width="204"/>
  <unicode hex="00EC"/>
  <outline>
    <contour>
      <point x="161" y="0" type="line"/>
      <point x="142" y="0" type="line"/>
      <point x="142" y="501" type="line"/>
      <point x="161" y="501" type="line"/>
    </contour>
    <contour>
      <point x="165" y="538" type="line"/>
      <point x="146" y="538" type="line"/>
      <point x="83" y="651" type="line"/>
      <point x="78" y="659"/>
      <point x="78" y="673"/>
      <point x="91" y="679"/>
      <point x="95" y="679" type="qcurve"/>
      <point x="105" y="679"/>
      <point x="110" y="666" type="qcurve"/>
    </contour>
  </outline>
</glyph>
<glyph name="iacute" format="1">
  <advance width="204"/>
  <unicode hex="00ED"/>
  <outline>
    <contour>
      <point x="108" y="0" type="line"/>
      <point x="89" y="0" type="line"/>
      <point x="89" y="501" type="line"/>
      <point x="108" y="501" type="line"/>
    </contour>
    <contour>
      <point x="97" y="538" type="line"/>
      <point x="78" y="538" type="line"/>
      <point x="133" y="666" type="line"/>
      <point x="138" y="679"/>
      <point x="148" y="679" type="qcurve"/>
      <point x="165" y="679"/>
      <point x="165" y="665" type="qcurve"/>
      <point x="165" y="659"/>
      <point x="160" y="651" type="qcurve"/>
    </contour>
  </outline>
</glyph>
<glyph name="icircumflex" format="1">
  <advance width="176"/>
  <unicode hex="00EE"/>
  <outline>
    <contour>
      <point x="112" y="0" type="line"/>
      <point x="93" y="0" type="line"/>
      <point x="93" y="501" type="line"/>
      <point x="112" y="501" type="line"/>
    </contour>
    <contour>
      <point x="247" y="579" type="line"/>
      <point x="230" y="563" type="line"/>
      <point x="104" y="690" type="line"/>
      <point x="-27" y="563" type="line"/>
      <point x="-43" y="579" type="line"/>
      <point x="105" y="720" type="line"/>
    </contour>
  </outline>
</glyph>
<glyph name="ntilde" format="1">
  <advance width="486"/>
  <unicode hex="00F1"/>
  <outline>
    <contour>
      <point x="191" y="637" type="qcurve"/>
      <point x="218" y="637"/>
      <point x="283" y="605" type="qcurve"/>
      <point x="308" y="593"/>
      <point x="372" y="593"/>
      <point x="403" y="625" type="qcurve"/>
      <point x="413" y="608" type="line"/>
      <point x="375" y="573"/>
      <point x="331" y="573" type="qcurve"/>
      <point x="305" y="573"/>
      <point x="255" y="596"/>
      <point x="208" y="616"/>
      <point x="187" y="616" type="qcurve"/>
      <point x="141" y="616"/>
      <point x="103" y="572" type="qcurve"/>
      <point x="92" y="588" type="line"/>
      <point x="139" y="637"/>
    </contour>
    <contour>
      <point x="97" y="475" type="line"/>
      <point x="165" y="510"/>
      <point x="321" y="510"/>
      <point x="362" y="489" type="qcurve"/>
      <point x="447" y="450"/>
      <point x="447" y="346" type="qcurve"/>
      <point x="447" y="0" type="line"/>
      <point x="428" y="0" type="line"/>
      <point x="428" y="347" type="line"/>
      <point x="428" y="407"/>
      <point x="392" y="443" type="qcurve"/>
      <point x="345" y="491"/>
      <point x="167" y="491"/>
      <point x="97" y="454" type="qcurve"/>
      <point x="97" y="0" type="line"/>
      <point x="78" y="0" type="line"/>
      <point x="78" y="501" type="line"/>
      <point x="97" y="501" type="line"/>
    </contour>
  </outline>
</glyph>
<glyph name="ograve" format="1">
  <advance width="490"/>
  <unicode hex="00F2"/>
  <outline>
    <contour>
      <point x="283" y="538" type="line"/>
      <point x="264" y="538" type="line"/>
      <point x="201" y="651" type="line"/>
      <point x="189" y="670"/>
      <point x="205" y="677" type="qcurve"/>
      <point x="209" y="679"/>
      <point x="213" y="679" type="qcurve"/>
      <point x="223" y="679"/>
      <point x="228" y="666" type="qcurve"/>
    </contour>
    <contour>
      <point x="432" y="184" type="qcurve"/>
      <point x="432" y="320" type="line"/>
      <point x="432" y="406"/>
      <point x="337" y="493"/>
      <point x="193" y="493"/>
      <point x="97" y="406"/>
      <point x="97" y="320" type="qcurve"/>
      <point x="97" y="184" type="line"/>
      <point x="97" y="111"/>
      <point x="179" y="8"/>
      <point x="350" y="8"/>
      <point x="432" y="109"/>
    </contour>
    <contour>
      <point x="451" y="316" type="qcurve"/>
      <point x="451" y="184" type="line"/>
      <point x="451" y="100"/>
      <point x="359" y="-10"/>
      <point x="173" y="-10"/>
      <point x="78" y="101"/>
      <point x="78" y="184" type="qcurve"/>
      <point x="78" y="316" type="line"/>
      <point x="78" y="411"/>
      <point x="175" y="512"/>
      <point x="353" y="512"/>
      <point x="451" y="407"/>
    </contour>
  </outline>
</glyph>
<glyph name="ocircumflex" format="1">
  <advance width="490"/>
  <unicode hex="00F4"/>
  <outline>
    <contour>
      <point x="409" y="579" type="line"/>
      <point x="392" y="563" type="line"/>
      <point x="266" y="690" type="line"/>
      <point x="135" y="563" type="line"/>
      <point x="119" y="579" type="line"/>
      <point x="267" y="720" type="line"/>
    </contour>
    <contour>
      <point x="432" y="184" type="qcurve"/>
      <point x="432" y="320" type="line"/>
      <point x="432" y="406"/>
      <point x="337" y="493"/>
      <point x="193" y="493"/>
      <point x="97" y="406"/>
      <point x="97" y="320" type="qcurve"/>
      <point x="97" y="184" type="line"/>
      <point x="97" y="111"/>
      <point x="179" y="8"/>
      <point x="350" y="8"/>
      <point x="432" y="109"/>
    </contour>
    <contour>
      <point x="451" y="316" type="qcurve"/>
      <point x="451" y="184" type="line"/>
      <point x="451" y="100"/>
      <point x="359" y="-10"/>
      <point x="173" y="-10"/>
      <point x="78" y="101"/>
      <point x="78" y="184" type="qcurve"/>
      <point x="78" y="316" type="line"/>
      <point x="78" y="411"/>
      <point x="175" y="512"/>
      <point x="353" y="512"/>
      <point x="451" y="407"/>
    </contour>
  </outline>
</glyph>
<glyph name="otilde" format="1">
  <advance width="490"/>
  <unicode hex="00F5"/>
  <outline>
    <contour>
      <point x="200" y="637" type="qcurve"/>
      <point x="227" y="637"/>
      <point x="292" y="605" type="qcurve"/>
      <point x="317" y="593"/>
      <point x="381" y="593"/>
      <point x="412" y="625" type="qcurve"/>
      <point x="422" y="608" type="line"/>
      <point x="384" y="573"/>
      <point x="340" y="573" type="qcurve"/>
      <point x="314" y="573"/>
      <point x="264" y="596"/>
      <point x="216" y="616"/>
      <point x="196" y="616" type="qcurve"/>
      <point x="150" y="616"/>
      <point x="112" y="572" type="qcurve"/>
      <point x="101" y="588" type="line"/>
      <point x="148" y="637"/>
    </contour>
    <contour>
      <point x="432" y="184" type="qcurve"/>
      <point x="432" y="320" type="line"/>
      <point x="432" y="406"/>
      <point x="337" y="493"/>
      <point x="193" y="493"/>
      <point x="97" y="406"/>
      <point x="97" y="320" type="qcurve"/>
      <point x="97" y="184" type="line"/>
      <point x="97" y="111"/>
      <point x="179" y="8"/>
      <point x="350" y="8"/>
      <point x="432" y="109"/>
    </contour>
    <contour>
      <point x="451" y="316" type="qcurve"/>
      <point x="451" y="184" type="line"/>
      <point x="451" y="100"/>
      <point x="359" y="-10"/>
      <point x="173" y="-10"/>
      <point x="78" y="101"/>
      <point x="78" y="184" type="qcurve"/>
      <point x="78" y="316" type="line"/>
      <point x="78" y="411"/>
      <point x="175" y="512"/>
      <point x="353" y="512"/>
      <point x="451" y="407"/>
    </contour>
  </outline>
</glyph>
<glyph name="odieresis" format="1">
  <advance width="490"/>
  <unicode hex="00F6"/>
  <outline>
    <contour>
      <point x="432" y="184" type="qcurve"/>
      <point x="432" y="320" type="line"/>
      <point x="432" y="406"/>
      <point x="337" y="493"/>
      <point x="193" y="493"/>
      <point x="97" y="406"/>
      <point x="97" y="320" type="qcurve"/>
      <point x="97" y="184" type="line"/>
      <point x="97" y="111"/>
      <point x="179" y="8"/>
      <point x="350" y="8"/>
      <point x="432" y="109"/>
    </contour>
    <contour>
      <point x="451" y="316" type="qcurve"/>
      <point x="451" y="184" type="line"/>
      <point x="451" y="100"/>
      <point x="359" y="-10"/>
      <point x="173" y="-10"/>
      <point x="78" y="101"/>
      <point x="78" y="184" type="qcurve"/>
      <point x="78" y="316" type="line"/>
      <point x="78" y="411"/>
      <point x="175" y="512"/>
      <point x="353" y="512"/>
      <point x="451" y="407"/>
    </contour>
    <contour>
      <point x="349" y="579" type="qcurve"/>
      <point x="345" y="575"/>
      <point x="333" y="575"/>
      <point x="324" y="584"/>
      <point x="324" y="596"/>
      <point x="333" y="605"/>
      <point x="345" y="605"/>
      <point x="354" y="596"/>
      <point x="354" y="584"/>
    </contour>
    <contour>
      <point x="190" y="578" type="qcurve"/>
      <point x="186" y="574"/>
      <point x="174" y="574"/>
      <point x="165" y="583"/>
      <point x="165" y="595"/>
      <point x="174" y="604"/>
      <point x="186" y="604"/>
      <point x="195" y="595"/>
      <point x="195" y="583"/>
    </contour>
  </outline>
</glyph>
<glyph name="divide" format="1">
  <advance width="437"/>
  <unicode hex="00F7"/>
  <outline>
    <contour>
      <point x="250" y="483" type="qcurve"/>
      <point x="246" y="479"/>
      <point x="234" y="479"/>
      <point x="225" y="488"/>
      <point x="225" y="500"/>
      <point x="234" y="509"/>
      <point x="246" y="509"/>
      <point x="255" y="500"/>
      <point x="255" y="488"/>
    </contour>
    <contour>
      <point x="250" y="262" type="qcurve"/>
      <point x="246" y="258"/>
      <point x="234" y="258"/>
      <point x="225" y="267"/>
      <point x="225" y="279"/>
      <point x="234" y="288"/>
      <point x="246" y="288"/>
      <point x="255" y="279"/>
      <point x="255" y="267"/>
    </contour>
    <contour>
      <point x="398" y="378" type="line"/>
      <point x="78" y="378" type="line"/>
      <point x="78" y="397" type="line"/>
      <point x="398" y="397" type="line"/>
    </contour>
  </outline>
</glyph>
<glyph name="oslash" format="1">
  <advance width="498"/>
  <unicode hex="00F8"/>
  <outline>
    <contour>
      <point x="432" y="184" type="qcurve"/>
      <point x="432" y="320" type="line"/>
      <point x="432" y="410"/>
      <point x="376" y="456" type="qcurve"/>
      <point x="184" y="24" type="line"/>
      <point x="219" y="8"/>
      <point x="266" y="8" type="qcurve"/>
      <point x="350" y="8"/>
      <point x="432" y="109"/>
    </contour>
    <contour>
      <point x="167" y="34" type="qcurve"/>
      <point x="360" y="468" type="line"/>
      <point x="320" y="493"/>
      <point x="193" y="493"/>
      <point x="97" y="406"/>
      <point x="97" y="320" type="qcurve"/>
      <point x="97" y="184" type="line"/>
      <point x="97" y="79"/>
    </contour>
    <contour>
      <point x="123" y="-114" type="line"/>
      <point x="102" y="-114" type="line"/>
      <point x="160" y="17" type="line"/>
      <point x="78" y="66"/>
      <point x="78" y="184" type="qcurve"/>
      <point x="78" y="316" type="line"/>
      <point x="78" y="411"/>
      <point x="175" y="512"/>
      <point x="266" y="512" type="qcurve"/>
      <point x="325" y="512"/>
      <point x="368" y="486" type="qcurve"/>
      <point x="438" y="643" type="line"/>
      <point x="459" y="643" type="line"/>
      <point x="384" y="475" type="line"/>
      <point x="451" y="422"/>
      <point x="451" y="316" type="qcurve"/>
      <point x="451" y="184" type="line"/>
      <point x="451" y="100"/>
      <point x="359" y="-10"/>
      <point x="266" y="-10" type="qcurve"/>
      <point x="216" y="-10"/>
      <point x="177" y="8" type="qcurve"/>
    </contour>
  </outline>
</glyph>
<glyph name="ugrave" format="1">
  <advance width="490"/>
  <unicode hex="00F9"/>
  <outline>
    <contour>
      <point x="290" y="538" type="line"/>
      <point x="271" y="538" type="line"/>
      <point x="208" y="651" type="line"/>
      <point x="196" y="670"/>
      <point x="212" y="677" type="qcurve"/>
      <point x="216" y="679"/>
      <point x="220" y="679" type="qcurve"/>
      <point x="230" y="679"/>
      <point x="235" y="666" type="qcurve"/>
    </contour>
    <contour>
      <point x="451" y="0" type="line"/>
      <point x="432" y="0" type="line"/>
      <point x="432" y="78" type="line"/>
      <point x="382" y="-11"/>
      <point x="266" y="-11" type="qcurve"/>
      <point x="78" y="-11"/>
      <point x="78" y="176" type="qcurve"/>
      <point x="78" y="501" type="line"/>
      <point x="97" y="501" type="line"/>
      <point x="97" y="176" type="line"/>
      <point x="97" y="95"/>
      <point x="175" y="9"/>
      <point x="338" y="9"/>
      <point x="432" y="91"/>
      <point x="432" y="160" type="qcurve"/>
      <point x="432" y="501" type="line"/>
      <point x="451" y="501" type="line"/>
    </contour>
  </outline>
</glyph>
<glyph name="uacute" format="1">
  <advance width="490"/>
  <unicode hex="00FA"/>
  <outline>
    <contour>
      <point x="258" y="538" type="line"/>
      <point x="239" y="538" type="line"/>
      <point x="294" y="666" type="line"/>
      <point x="299" y="679"/>
      <point x="309" y="679" type="qcurve"/>
      <point x="313" y="679"/>
      <point x="317" y="677" type="qcurve"/>
      <point x="333" y="670"/>
      <point x="321" y="651" type="qcurve"/>
    </contour>
    <contour>
      <point x="451" y="0" type="line"/>
      <point x="432" y="0" type="line"/>
      <point x="432" y="78" type="line"/>
      <point x="382" y="-11"/>
      <point x="266" y="-11" type="qcurve"/>
      <point x="78" y="-11"/>
      <point x="78" y="176" type="qcurve"/>
      <point x="78" y="501" type="line"/>
      <point x="97" y="501" type="line"/>
      <point x="97" y="176" type="line"/>
      <point x="97" y="95"/>
      <point x="175" y="9"/>
      <point x="338" y="9"/>
      <point x="432" y="91"/>
      <point x="432" y="160" type="qcurve"/>
      <point x="432" y="501" type="line"/>
      <point x="451" y="501" type="line"/>
    </contour>
  </outline>
</glyph>
<glyph name="ucircumflex" format="1">
  <advance width="490"/>
  <unicode hex="00FB"/>
  <outline>
    <contour>
      <point x="406" y="579" type="line"/>
      <point x="389" y="563" type="line"/>
      <point x="263" y="690" type="line"/>
      <point x="132" y="563" type="line"/>
      <point x="116" y="579" type="line"/>
      <point x="264" y="720" type="line"/>
    </contour>
    <contour>
      <point x="451" y="0" type="line"/>
      <point x="432" y="0" type="line"/>
      <point x="432" y="78" type="line"/>
      <point x="382" y="-11"/>
      <point x="266" y="-11" type="qcurve"/>
      <point x="78" y="-11"/>
      <point x="78" y="176" type="qcurve"/>
      <point x="78" y="501" type="line"/>
      <point x="97" y="501" type="line"/>
      <point x="97" y="176" type="line"/>
      <point x="97" y="95"/>
      <point x="175" y="9"/>
      <point x="338" y="9"/>
      <point x="432" y="91"/>
      <point x="432" y="160" type="qcurve"/>
      <point x="432" y="501" type="line"/>
      <point x="451" y="501" type="line"/>
    </contour>
  </outline>
</glyph>
<glyph name="udieresis" format="1">
  <advance width="490"/>
  <unicode hex="00FC"/>
  <outline>
    <contour>
      <point x="451" y="0" type="line"/>
      <point x="432" y="0" type="line"/>
      <point x="432" y="78" type="line"/>
      <point x="382" y="-11"/>
      <point x="266" y="-11" type="qcurve"/>
      <point x="78" y="-11"/>
      <point x="78" y="176" type="qcurve"/>
      <point x="78" y="501" type="line"/>
      <point x="97" y="501" type="line"/>
      <point x="97" y="176" type="line"/>
      <point x="97" y="95"/>
      <point x="175" y="9"/>
      <point x="338" y="9"/>
      <point x="432" y="91"/>
      <point x="432" y="160" type="qcurve"/>
      <point x="432" y="501" type="line"/>
      <point x="451" y="501" type="line"/>
    </contour>
    <contour>
      <point x="349" y="579" type="qcurve"/>
      <point x="345" y="575"/>
      <point x="333" y="575"/>
      <point x="324" y="584"/>
      <point x="324" y="596"/>
      <point x="333" y="605"/>
      <point x="345" y="605"/>
      <point x="354" y="596"/>
      <point x="354" y="584"/>
    </contour>
    <contour>
      <point x="190" y="578" type="qcurve"/>
      <point x="186" y="574"/>
      <point x="174" y="574"/>
      <point x="165" y="583"/>
      <point x="165" y="595"/>
      <point x="174" y="604"/>
      <point x="186" y="604"/>
      <point x="195" y="595"/>
      <point x="195" y="583"/>
    </contour>
  </outline>
</glyph>
<glyph name="thorn" format="1">
  <advance width="495"/>
  <unicode hex="00FE"/>
  <outline>
    <contour>
      <point x="99" y="320" type="qcurve"/>
      <point x="99" y="237"/>
      <point x="195" y="134"/>
      <point x="338" y="134"/>
      <point x="437" y="228"/>
      <point x="437" y="402"/>
      <point x="334" y="494"/>
      <point x="205" y="494"/>
      <point x="99" y="404"/>
    </contour>
    <contour>
      <point x="97" y="0" type="line"/>
      <point x="78" y="0" type="line"/>
      <point x="78" y="512" type="line"/>
      <point x="97" y="512" type="line"/>
      <point x="97" y="410" type="line"/>
      <point x="157" y="510"/>
      <point x="266" y="510" type="qcurve"/>
      <point x="358" y="510"/>
      <point x="456" y="398"/>
      <point x="456" y="222"/>
      <point x="346" y="116"/>
      <point x="268" y="116" type="qcurve"/>
      <point x="237" y="116"/>
      <point x="179" y="133"/>
      <point x="115" y="190"/>
      <point x="97" y="235" type="qcurve"/>
    </contour>
  </outline>
</glyph>
<glyph name="ydieresis" format="1">
  <advance width="519"/>
  <unicode hex="00FF"/>
  <outline>
    <contour>
      <point x="355" y="579" type="qcurve"/>
      <point x="351" y="575"/>
      <point x="339" y="575"/>
      <point x="330" y="584"/>
      <point x="330" y="596"/>
      <point x="339" y="605"/>
      <point x="351" y="605"/>
      <point x="360" y="596"/>
      <point x="360" y="584"/>
    </contour>
    <contour>
      <point x="196" y="578" type="qcurve"/>
      <point x="192" y="574"/>
      <point x="180" y="574"/>
      <point x="171" y="583"/>
      <point x="171" y="595"/>
      <point x="180" y="604"/>
      <point x="192" y="604"/>
      <point x="201" y="595"/>
      <point x="201" y="583"/>
    </contour>
    <contour>
      <point x="348" y="-210" type="qcurve"/>
      <point x="342" y="-192" type="line"/>
      <point x="435" y="-168"/>
      <point x="435" y="-63" type="qcurve"/>
      <point x="435" y="87" type="line"/>
      <point x="408" y="33"/>
      <point x="310" y="-12"/>
      <point x="261" y="-12" type="qcurve"/>
      <point x="173" y="-12"/>
      <point x="78" y="83"/>
      <point x="78" y="176" type="qcurve"/>
      <point x="78" y="501" type="line"/>
      <point x="97" y="501" type="line"/>
      <point x="97" y="166" type="line"/>
      <point x="97" y="94"/>
      <point x="176" y="7"/>
      <point x="338" y="7"/>
      <point x="434" y="97"/>
      <point x="434" y="166" type="qcurve"/>
      <point x="434" y="373" type="line"/>
      <point x="434" y="434"/>
      <point x="447" y="496"/>
      <point x="472" y="510" type="qcurve"/>
      <point x="480" y="494" type="line"/>
      <point x="453" y="474"/>
      <point x="453" y="404" type="qcurve"/>
      <point x="453" y="-61" type="line"/>
      <point x="453" y="-122"/>
      <point x="405" y="-192"/>
    </contour>
  </outline>
</glyph>
<glyph name="Amacron" format="1">
  <advance width="527"/>
  <unicode hex="0100"/>
  <outline>
    <contour>
      <point x="368" y="769" type="line"/>
      <point x="151" y="769" type="line"/>
      <point x="151" y="788" type="line"/>
      <point x="368" y="788" type="line"/>
    </contour>
    <contour>
      <point x="391" y="300" type="line"/>
      <point x="264" y="660" type="line"/>
      <point x="137" y="300" type="line"/>
    </contour>
    <contour>
      <point x="517" y="0" type="line"/>
      <point x="496" y="0" type="line"/>
      <point x="398" y="281" type="line"/>
      <point x="130" y="281" type="line"/>
      <point x="31" y="0" type="line"/>
      <point x="12" y="0" type="line"/>
      <point x="257" y="700" type="line"/>
      <point x="271" y="700" type="line"/>
    </contour>
  </outline>
</glyph>
<glyph name="Abreve" format="1">
  <advance width="527"/>
  <unicode hex="0102"/>
  <outline>
    <contour>
      <point x="378" y="848" type="line"/>
      <point x="378" y="843" type="line"/>
      <point x="378" y="796"/>
      <point x="312" y="730"/>
      <point x="218" y="730"/>
      <point x="152" y="796"/>
      <point x="152" y="843" type="qcurve"/>
      <point x="152" y="848" type="line"/>
      <point x="173" y="848" type="line"/>
      <point x="173" y="843" type="line"/>
      <point x="173" y="810"/>
      <point x="223" y="750"/>
      <point x="305" y="750"/>
      <point x="357" y="811"/>
      <point x="357" y="843" type="qcurve"/>
      <point x="357" y="848" type="line"/>
    </contour>
    <contour>
      <point x="391" y="300" type="line"/>
      <point x="264" y="660" type="line"/>
      <point x="137" y="300" type="line"/>
    </contour>
    <contour>
      <point x="517" y="0" type="line"/>
      <point x="496" y="0" type="line"/>
      <point x="398" y="281" type="line"/>
      <point x="130" y="281" type="line"/>
      <point x="31" y="0" type="line"/>
      <point x="12" y="0" type="line"/>
      <point x="257" y="700" type="line"/>
      <point x="271" y="700" type="line"/>
    </contour>
  </outline>
</glyph>
<glyph name="Aogonek" format="1">
  <advance width="690"/>
  <unicode hex="0104"/>
  <outline>
    <contour>
      <point x="457" y="300" type="line"/>
      <point x="330" y="660" type="line"/>
      <point x="203" y="300" type="line"/>
    </contour>
    <contour>
      <point x="635" y="-147" type="qcurve"/>
      <point x="651" y="-163" type="line"/>
      <point x="619" y="-213"/>
      <point x="555" y="-213" type="qcurve"/>
      <point x="530" y="-213"/>
      <point x="506" y="-202" type="qcurve"/>
      <point x="462" y="-181"/>
      <point x="462" y="-128" type="qcurve"/>
      <point x="462" y="-65"/>
      <point x="558" y="0" type="qcurve"/>
      <point x="562" y="0" type="line"/>
      <point x="464" y="281" type="line"/>
      <point x="196" y="281" type="line"/>
      <point x="97" y="0" type="line"/>
      <point x="78" y="0" type="line"/>
      <point x="323" y="700" type="line"/>
      <point x="337" y="700" type="line"/>
      <point x="583" y="0" type="line"/>
      <point x="582" y="0" type="line"/>
      <point x="482" y="-68"/>
      <point x="482" y="-130" type="qcurve"/>
      <point x="482" y="-157"/>
      <point x="525" y="-193"/>
      <point x="555" y="-193" type="qcurve"/>
      <point x="606" y="-193"/>
    </contour>
  </outline>
</glyph>
<glyph name="aogonek" format="1">
  <advance width="525"/>
  <unicode hex="0105"/>
  <outline>
    <contour>
      <point x="403" y="18" type="qcurve"/>
      <point x="403" y="323" type="line"/>
      <point x="339" y="369"/>
      <point x="242" y="381" type="qcurve"/>
      <point x="220" y="384"/>
      <point x="175" y="384"/>
      <point x="152" y="380" type="qcurve"/>
      <point x="111" y="372"/>
      <point x="56" y="305"/>
      <point x="56" y="249" type="qcurve"/>
      <point x="56" y="162" type="line"/>
      <point x="56" y="112"/>
      <point x="99" y="45"/>
      <point x="163" y="14"/>
      <point x="244" y="7"/>
      <point x="323" y="7"/>
    </contour>
    <contour>
      <point x="200" y="402" type="qcurve"/>
      <point x="316" y="402"/>
      <point x="403" y="346" type="qcurve"/>
      <point x="403" y="490"/>
      <point x="224" y="490" type="qcurve"/>
      <point x="218" y="490"/>
      <point x="212" y="490" type="qcurve"/>
      <point x="214" y="509" type="line"/>
      <point x="295" y="509"/>
      <point x="334" y="490" type="qcurve"/>
      <point x="355" y="479"/>
      <point x="387" y="457"/>
      <point x="405" y="421"/>
      <point x="417" y="394"/>
      <point x="419" y="371" type="qcurve"/>
      <point x="422" y="336"/>
      <point x="422" y="298" type="qcurve"/>
      <point x="422" y="0" type="line"/>
      <point x="420" y="0" type="line"/>
      <point x="320" y="-68"/>
      <point x="320" y="-130" type="qcurve"/>
      <point x="320" y="-157"/>
      <point x="363" y="-193"/>
      <point x="393" y="-193" type="qcurve"/>
      <point x="444" y="-193"/>
      <point x="473" y="-147" type="qcurve"/>
      <point x="489" y="-163" type="line"/>
      <point x="457" y="-213"/>
      <point x="393" y="-213" type="qcurve"/>
      <point x="368" y="-213"/>
      <point x="344" y="-202" type="qcurve"/>
      <point x="300" y="-181"/>
      <point x="300" y="-66"/>
      <point x="391" y="-3" type="qcurve"/>
      <point x="249" y="-17"/>
      <point x="186" y="-5" type="qcurve"/>
      <point x="112" y="8"/>
      <point x="79" y="44" type="qcurve"/>
      <point x="37" y="90"/>
      <point x="37" y="169" type="qcurve"/>
      <point x="37" y="252" type="line"/>
      <point x="37" y="348"/>
      <point x="110" y="384" type="qcurve"/>
      <point x="147" y="402"/>
    </contour>
  </outline>
</glyph>
<glyph name="Ccircumflex" format="1">
  <advance width="430"/>
  <unicode hex="0108"/>
  <outline>
    <contour>
      <point x="260" y="7" type="qcurve"/>
      <point x="333" y="7"/>
      <point x="421" y="41" type="qcurve"/>
      <point x="427" y="23" type="line"/>
      <point x="342" y="-10"/>
      <point x="265" y="-10" type="qcurve"/>
      <point x="249" y="-10"/>
      <point x="184" y="-4"/>
      <point x="111" y="35"/>
      <point x="66" y="120"/>
      <point x="66" y="183" type="qcurve"/>
      <point x="66" y="504" type="line"/>
      <point x="66" y="580"/>
      <point x="109" y="658"/>
      <point x="153" y="685" type="qcurve"/>
      <point x="197" y="710"/>
      <point x="260" y="710" type="qcurve"/>
      <point x="341" y="710"/>
      <point x="402" y="677" type="qcurve"/>
      <point x="394" y="660" type="line"/>
      <point x="324" y="691"/>
      <point x="263" y="691" type="qcurve"/>
      <point x="218" y="691"/>
      <point x="150" y="664"/>
      <point x="112" y="627"/>
      <point x="85" y="559"/>
      <point x="85" y="513" type="qcurve"/>
      <point x="85" y="185" type="line"/>
      <point x="85" y="120"/>
      <point x="138" y="35"/>
      <point x="218" y="7"/>
    </contour>
    <contour>
      <point x="421" y="772" type="line"/>
      <point x="404" y="756" type="line"/>
      <point x="278" y="883" type="line"/>
      <point x="147" y="756" type="line"/>
      <point x="131" y="772" type="line"/>
      <point x="279" y="913" type="line"/>
    </contour>
  </outline>
</glyph>
<glyph name="ccircumflex" format="1">
  <advance width="471"/>
  <unicode hex="0109"/>
  <outline>
    <contour>
      <point x="410" y="580" type="line"/>
      <point x="393" y="564" type="line"/>
      <point x="267" y="691" type="line"/>
      <point x="136" y="564" type="line"/>
      <point x="120" y="580" type="line"/>
      <point x="268" y="721" type="line"/>
    </contour>
    <contour>
      <point x="395" y="25" type="qcurve"/>
      <point x="400" y="6" type="line"/>
      <point x="336" y="-11"/>
      <point x="232" y="-11"/>
      <point x="182" y="5" type="qcurve"/>
      <point x="78" y="39"/>
      <point x="78" y="180" type="qcurve"/>
      <point x="78" y="308" type="line"/>
      <point x="78" y="379"/>
      <point x="106" y="427" type="qcurve"/>
      <point x="154" y="510"/>
      <point x="264" y="510" type="qcurve"/>
      <point x="330" y="510"/>
      <point x="398" y="478" type="qcurve"/>
      <point x="391" y="458" type="line"/>
      <point x="330" y="490"/>
      <point x="265" y="490" type="qcurve"/>
      <point x="228" y="490"/>
      <point x="152" y="463"/>
      <point x="97" y="377"/>
      <point x="97" y="314" type="qcurve"/>
      <point x="97" y="169" type="line"/>
      <point x="96" y="109"/>
      <point x="150" y="33"/>
      <point x="235" y="8"/>
      <point x="335" y="8"/>
    </contour>
  </outline>
</glyph>
<glyph name="Cdotaccent" format="1">
  <advance width="430"/>
  <unicode hex="010A"/>
  <outline>
    <contour>
      <point x="279" y="783" type="qcurve"/>
      <point x="279" y="770"/>
      <point x="252" y="770"/>
      <point x="252" y="797"/>
      <point x="279" y="797"/>
    </contour>
    <contour>
      <point x="260" y="7" type="qcurve"/>
      <point x="333" y="7"/>
      <point x="421" y="41" type="qcurve"/>
      <point x="427" y="23" type="line"/>
      <point x="342" y="-10"/>
      <point x="265" y="-10" type="qcurve"/>
      <point x="249" y="-10"/>
      <point x="184" y="-4"/>
      <point x="111" y="35"/>
      <point x="66" y="120"/>
      <point x="66" y="183" type="qcurve"/>
      <point x="66" y="504" type="line"/>
      <point x="66" y="580"/>
      <point x="109" y="658"/>
      <point x="153" y="685" type="qcurve"/>
      <point x="197" y="710"/>
      <point x="260" y="710" type="qcurve"/>
      <point x="341" y="710"/>
      <point x="402" y="677" type="qcurve"/>
      <point x="394" y="660" type="line"/>
      <point x="324" y="691"/>
      <point x="263" y="691" type="qcurve"/>
      <point x="218" y="691"/>
      <point x="150" y="664"/>
      <point x="112" y="627"/>
      <point x="85" y="559"/>
      <point x="85" y="513" type="qcurve"/>
      <point x="85" y="185" type="line"/>
      <point x="85" y="120"/>
      <point x="138" y="35"/>
      <point x="218" y="7"/>
    </contour>
  </outline>
</glyph>
<glyph name="cdotaccent" format="1">
  <advance width="439"/>
  <unicode hex="010B"/>
  <outline>
    <contour>
      <point x="278" y="591" type="qcurve"/>
      <point x="278" y="578"/>
      <point x="251" y="578"/>
      <point x="251" y="605"/>
      <point x="278" y="605"/>
    </contour>
    <contour>
      <point x="395" y="25" type="qcurve"/>
      <point x="400" y="6" type="line"/>
      <point x="336" y="-11"/>
      <point x="232" y="-11"/>
      <point x="182" y="5" type="qcurve"/>
      <point x="78" y="39"/>
      <point x="78" y="180" type="qcurve"/>
      <point x="78" y="308" type="line"/>
      <point x="78" y="379"/>
      <point x="106" y="427" type="qcurve"/>
      <point x="154" y="510"/>
      <point x="264" y="510" type="qcurve"/>
      <point x="330" y="510"/>
      <point x="398" y="478" type="qcurve"/>
      <point x="391" y="458" type="line"/>
      <point x="330" y="490"/>
      <point x="265" y="490" type="qcurve"/>
      <point x="228" y="490"/>
      <point x="152" y="463"/>
      <point x="97" y="377"/>
      <point x="97" y="314" type="qcurve"/>
      <point x="97" y="169" type="line"/>
      <point x="96" y="109"/>
      <point x="150" y="33"/>
      <point x="235" y="8"/>
      <point x="335" y="8"/>
    </contour>
  </outline>
</glyph>
<glyph name="dcaron" format="1">
  <advance width="606"/>
  <unicode hex="010F"/>
  <outline>
    <contour>
      <point x="506" y="560" type="qcurve"/>
      <point x="490" y="571" type="line"/>
      <point x="515" y="585"/>
      <point x="546" y="621"/>
      <point x="549" y="632" type="qcurve"/>
      <point x="552" y="643" type="line"/>
      <point x="550" y="643" type="line"/>
      <point x="537" y="646"/>
      <point x="537" y="673"/>
      <point x="567" y="673"/>
      <point x="567" y="658" type="qcurve"/>
      <point x="567" y="610"/>
    </contour>
    <contour>
      <point x="305" y="7" type="qcurve"/>
      <point x="364" y="7"/>
      <point x="428" y="21" type="qcurve"/>
      <point x="428" y="457" type="line"/>
      <point x="360" y="491"/>
      <point x="268" y="491" type="qcurve"/>
      <point x="248" y="491"/>
      <point x="228" y="489" type="qcurve"/>
      <point x="173" y="484"/>
      <point x="97" y="410"/>
      <point x="97" y="343" type="qcurve"/>
      <point x="97" y="156" type="line"/>
      <point x="97" y="7"/>
    </contour>
    <contour>
      <point x="163" y="490" type="qcurve"/>
      <point x="205" y="509"/>
      <point x="361" y="509"/>
      <point x="428" y="477" type="qcurve"/>
      <point x="428" y="700" type="line"/>
      <point x="447" y="700" type="line"/>
      <point x="447" y="0" type="line"/>
      <point x="361" y="-12"/>
      <point x="215" y="-12"/>
      <point x="156" y="18" type="qcurve"/>
      <point x="78" y="58"/>
      <point x="78" y="157" type="qcurve"/>
      <point x="78" y="346" type="line"/>
      <point x="78" y="451"/>
    </contour>
  </outline>
</glyph>
<glyph name="Dcroat" format="1">
  <advance width="576"/>
  <unicode hex="0110"/>
  <outline>
    <contour>
      <point x="392" y="769" type="line"/>
      <point x="175" y="769" type="line"/>
      <point x="175" y="788" type="line"/>
      <point x="392" y="788" type="line"/>
    </contour>
    <contour>
      <point x="479" y="214" type="qcurve"/>
      <point x="479" y="468" type="line"/>
      <point x="479" y="575"/>
      <point x="362" y="680"/>
      <point x="276" y="680" type="qcurve"/>
      <point x="97" y="680" type="line"/>
      <point x="97" y="20" type="line"/>
      <point x="276" y="20" type="line"/>
      <point x="305" y="20"/>
      <point x="347" y="24"/>
      <point x="410" y="45"/>
      <point x="449" y="84"/>
      <point x="479" y="161"/>
    </contour>
    <contour>
      <point x="286" y="0" type="qcurve"/>
      <point x="78" y="0" type="line"/>
      <point x="78" y="701" type="line"/>
      <point x="266" y="701" type="line"/>
      <point x="379" y="701"/>
      <point x="498" y="577"/>
      <point x="498" y="474" type="qcurve"/>
      <point x="498" y="200" type="line"/>
      <point x="498" y="0"/>
    </contour>
  </outline>
</glyph>
<glyph name="dslash" format="1">
  <advance width="547"/>
  <unicode hex="0111"/>
  <outline>
    <contour>
      <point x="305" y="7" type="qcurve"/>
      <point x="364" y="7"/>
      <point x="428" y="21" type="qcurve"/>
      <point x="428" y="457" type="line"/>
      <point x="360" y="491"/>
      <point x="268" y="491" type="qcurve"/>
      <point x="248" y="491"/>
      <point x="228" y="489" type="qcurve"/>
      <point x="173" y="484"/>
      <point x="97" y="410"/>
      <point x="97" y="343" type="qcurve"/>
      <point x="97" y="156" type="line"/>
      <point x="97" y="7"/>
    </contour>
    <contour>
      <point x="163" y="490" type="qcurve"/>
      <point x="205" y="509"/>
      <point x="361" y="509"/>
      <point x="428" y="477" type="qcurve"/>
      <point x="428" y="598" type="line"/>
      <point x="274" y="598" type="line"/>
      <point x="274" y="617" type="line"/>
      <point x="428" y="617" type="line"/>
      <point x="428" y="700" type="line"/>
      <point x="447" y="700" type="line"/>
      <point x="447" y="617" type="line"/>
      <point x="508" y="617" type="line"/>
      <point x="508" y="598" type="line"/>
      <point x="447" y="598" type="line"/>
      <point x="447" y="0" type="line"/>
      <point x="361" y="-12"/>
      <point x="215" y="-12"/>
      <point x="156" y="18" type="qcurve"/>
      <point x="78" y="58"/>
      <point x="78" y="157" type="qcurve"/>
      <point x="78" y="346" type="line"/>
      <point x="78" y="451"/>
    </contour>
  </outline>
</glyph>
<glyph name="Emacron" format="1">
  <advance width="465"/>
  <unicode hex="0112"/>
  <outline>
    <contour>
      <point x="352" y="769" type="line"/>
      <point x="135" y="769" type="line"/>
      <point x="135" y="788" type="line"/>
      <point x="352" y="788" type="line"/>
    </contour>
    <contour>
      <point x="410" y="0" type="line"/>
      <point x="78" y="0" type="line"/>
      <point x="78" y="700" type="line"/>
      <point x="412" y="700" type="line"/>
      <point x="412" y="681" type="line"/>
      <point x="97" y="681" type="line"/>
      <point x="97" y="413" type="line"/>
      <point x="325" y="413" type="line"/>
      <point x="318" y="394" type="line"/>
      <point x="97" y="394" type="line"/>
      <point x="97" y="19" type="line"/>
      <point x="410" y="19" type="line"/>
    </contour>
  </outline>
</glyph>
<glyph name="edotaccent" format="1">
  <advance width="477"/>
  <unicode hex="0117"/>
  <outline>
    <contour>
      <point x="283" y="591" type="qcurve"/>
      <point x="283" y="578"/>
      <point x="256" y="578"/>
      <point x="256" y="605"/>
      <point x="283" y="605"/>
    </contour>
    <contour>
      <point x="419" y="266" type="line"/>
      <point x="419" y="343" type="line"/>
      <point x="419" y="422"/>
      <point x="326" y="491"/>
      <point x="194" y="491"/>
      <point x="97" y="418"/>
      <point x="97" y="340" type="qcurve"/>
      <point x="97" y="248" type="line"/>
    </contour>
    <contour>
      <point x="240" y="4" type="qcurve"/>
      <point x="319" y="4"/>
      <point x="404" y="52" type="qcurve"/>
      <point x="413" y="35" type="line"/>
      <point x="336" y="-12"/>
      <point x="252" y="-12" type="qcurve"/>
      <point x="78" y="-12"/>
      <point x="78" y="134" type="qcurve"/>
      <point x="78" y="339" type="line"/>
      <point x="78" y="420"/>
      <point x="179" y="510"/>
      <point x="345" y="510"/>
      <point x="438" y="421"/>
      <point x="438" y="342" type="qcurve"/>
      <point x="438" y="247" type="line"/>
      <point x="97" y="230" type="line"/>
      <point x="97" y="132" type="line"/>
      <point x="97" y="66"/>
      <point x="183" y="4"/>
    </contour>
  </outline>
</glyph>
<glyph name="Eogonek" format="1">
  <advance width="532"/>
  <unicode hex="0118"/>
  <outline>
    <contour>
      <point x="463" y="-147" type="qcurve"/>
      <point x="479" y="-163" type="line"/>
      <point x="447" y="-213"/>
      <point x="383" y="-213" type="qcurve"/>
      <point x="358" y="-213"/>
      <point x="334" y="-202" type="qcurve"/>
      <point x="290" y="-181"/>
      <point x="290" y="-128" type="qcurve"/>
      <point x="290" y="-65"/>
      <point x="386" y="0" type="qcurve"/>
      <point x="78" y="0" type="line"/>
      <point x="78" y="700" type="line"/>
      <point x="412" y="700" type="line"/>
      <point x="412" y="681" type="line"/>
      <point x="97" y="681" type="line"/>
      <point x="97" y="413" type="line"/>
      <point x="325" y="413" type="line"/>
      <point x="318" y="394" type="line"/>
      <point x="97" y="394" type="line"/>
      <point x="97" y="19" type="line"/>
      <point x="410" y="19" type="line"/>
      <point x="410" y="0" type="line"/>
      <point x="310" y="-68"/>
      <point x="310" y="-130" type="qcurve"/>
      <point x="310" y="-157"/>
      <point x="353" y="-193"/>
      <point x="383" y="-193" type="qcurve"/>
      <point x="434" y="-193"/>
    </contour>
  </outline>
</glyph>
<glyph name="eogonek" format="1">
  <advance width="434"/>
  <unicode hex="0119"/>
  <outline>
    <contour>
      <point x="376" y="266" type="line"/>
      <point x="376" y="343" type="line"/>
      <point x="376" y="422"/>
      <point x="283" y="491"/>
      <point x="151" y="491"/>
      <point x="54" y="418"/>
      <point x="54" y="340" type="qcurve"/>
      <point x="54" y="248" type="line"/>
    </contour>
    <contour>
      <point x="197" y="4" type="qcurve"/>
      <point x="276" y="4"/>
      <point x="361" y="52" type="qcurve"/>
      <point x="370" y="35" type="line"/>
      <point x="302" y="-6"/>
      <point x="222" y="-11" type="qcurve"/>
      <point x="138" y="-73"/>
      <point x="138" y="-130" type="qcurve"/>
      <point x="138" y="-157"/>
      <point x="181" y="-193"/>
      <point x="211" y="-193" type="qcurve"/>
      <point x="262" y="-193"/>
      <point x="291" y="-147" type="qcurve"/>
      <point x="307" y="-163" type="line"/>
      <point x="275" y="-213"/>
      <point x="211" y="-213" type="qcurve"/>
      <point x="186" y="-213"/>
      <point x="162" y="-202" type="qcurve"/>
      <point x="118" y="-181"/>
      <point x="118" y="-70"/>
      <point x="197" y="-12" type="qcurve"/>
      <point x="122" y="-12"/>
      <point x="35" y="61"/>
      <point x="35" y="134" type="qcurve"/>
      <point x="35" y="339" type="line"/>
      <point x="35" y="420"/>
      <point x="136" y="510"/>
      <point x="302" y="510"/>
      <point x="395" y="421"/>
      <point x="395" y="342" type="qcurve"/>
      <point x="395" y="247" type="line"/>
      <point x="54" y="230" type="line"/>
      <point x="54" y="132" type="line"/>
      <point x="54" y="66"/>
      <point x="140" y="4"/>
    </contour>
  </outline>
</glyph>
<glyph name="ecaron" format="1">
  <advance width="477"/>
  <unicode hex="011B"/>
  <outline>
    <contour>
      <point x="407" y="683" type="line"/>
      <point x="265" y="542" type="line"/>
      <point x="117" y="683" type="line"/>
      <point x="132" y="698" type="line"/>
      <point x="264" y="572" type="line"/>
      <point x="392" y="698" type="line"/>
    </contour>
    <contour>
      <point x="419" y="266" type="line"/>
      <point x="419" y="343" type="line"/>
      <point x="419" y="422"/>
      <point x="326" y="491"/>
      <point x="194" y="491"/>
      <point x="97" y="418"/>
      <point x="97" y="340" type="qcurve"/>
      <point x="97" y="248" type="line"/>
    </contour>
    <contour>
      <point x="240" y="4" type="qcurve"/>
      <point x="319" y="4"/>
      <point x="404" y="52" type="qcurve"/>
      <point x="413" y="35" type="line"/>
      <point x="336" y="-12"/>
      <point x="252" y="-12" type="qcurve"/>
      <point x="78" y="-12"/>
      <point x="78" y="134" type="qcurve"/>
      <point x="78" y="339" type="line"/>
      <point x="78" y="420"/>
      <point x="179" y="510"/>
      <point x="345" y="510"/>
      <point x="438" y="421"/>
      <point x="438" y="342" type="qcurve"/>
      <point x="438" y="247" type="line"/>
      <point x="97" y="230" type="line"/>
      <point x="97" y="132" type="line"/>
      <point x="97" y="66"/>
      <point x="183" y="4"/>
    </contour>
  </outline>
</glyph>
<glyph name="Gcircumflex" format="1">
  <advance width="537"/>
  <unicode hex="011C"/>
  <outline>
    <contour>
      <point x="425" y="772" type="line"/>
      <point x="408" y="756" type="line"/>
      <point x="282" y="883" type="line"/>
      <point x="151" y="756" type="line"/>
      <point x="135" y="772" type="line"/>
      <point x="283" y="913" type="line"/>
    </contour>
    <contour>
      <point x="394" y="659" type="line"/>
      <point x="320" y="691"/>
      <point x="262" y="691" type="qcurve"/>
      <point x="180" y="691"/>
      <point x="133" y="646" type="qcurve"/>
      <point x="113" y="626"/>
      <point x="84" y="549"/>
      <point x="84" y="497" type="qcurve"/>
      <point x="84" y="187" type="line"/>
      <point x="84" y="109"/>
      <point x="188" y="9"/>
      <point x="373" y="9"/>
      <point x="457" y="109"/>
      <point x="457" y="182" type="qcurve"/>
      <point x="457" y="281" type="line"/>
      <point x="346" y="281" type="line"/>
      <point x="338" y="300" type="line"/>
      <point x="476" y="300" type="line"/>
      <point x="476" y="0" type="line"/>
      <point x="457" y="0" type="line"/>
      <point x="457" y="88" type="line"/>
      <point x="411" y="-10"/>
      <point x="276" y="-10" type="qcurve"/>
      <point x="188" y="-10"/>
      <point x="65" y="90"/>
      <point x="65" y="189" type="qcurve"/>
      <point x="65" y="503" type="line"/>
      <point x="65" y="631"/>
      <point x="152" y="684" type="qcurve"/>
      <point x="197" y="709"/>
      <point x="259" y="709" type="qcurve"/>
      <point x="336" y="709"/>
      <point x="401" y="676" type="qcurve"/>
    </contour>
  </outline>
</glyph>
<glyph name="gcircumflex" format="1">
  <advance width="495"/>
  <unicode hex="011D"/>
  <outline>
    <contour>
      <point x="436" y="160" type="qcurve"/>
      <point x="436" y="397" type="line"/>
      <point x="399" y="491"/>
      <point x="271" y="491" type="qcurve"/>
      <point x="190" y="491"/>
      <point x="140" y="443" type="qcurve"/>
      <point x="122" y="425"/>
      <point x="97" y="361"/>
      <point x="97" y="320" type="qcurve"/>
      <point x="97" y="167" type="line"/>
      <point x="97" y="95"/>
      <point x="182" y="6"/>
      <point x="264" y="6" type="qcurve"/>
      <point x="355" y="6"/>
      <point x="406" y="70" type="qcurve"/>
      <point x="436" y="106"/>
    </contour>
    <contour>
      <point x="348" y="-210" type="qcurve"/>
      <point x="342" y="-192" type="line"/>
      <point x="365" y="-183"/>
      <point x="388" y="-171"/>
      <point x="404" y="-157" type="qcurve"/>
      <point x="436" y="-130"/>
      <point x="436" y="-63" type="qcurve"/>
      <point x="436" y="75" type="line"/>
      <point x="378" y="-12"/>
      <point x="264" y="-12" type="qcurve"/>
      <point x="176" y="-12"/>
      <point x="78" y="84"/>
      <point x="78" y="176" type="qcurve"/>
      <point x="78" y="325" type="line"/>
      <point x="78" y="413"/>
      <point x="184" y="510"/>
      <point x="271" y="510" type="qcurve"/>
      <point x="384" y="510"/>
      <point x="436" y="437" type="qcurve"/>
      <point x="436" y="501" type="line"/>
      <point x="455" y="501" type="line"/>
      <point x="455" y="-64" type="line"/>
      <point x="455" y="-124"/>
      <point x="405" y="-192"/>
    </contour>
    <contour>
      <point x="417" y="580" type="line"/>
      <point x="400" y="564" type="line"/>
      <point x="274" y="691" type="line"/>
      <point x="143" y="564" type="line"/>
      <point x="127" y="580" type="line"/>
      <point x="275" y="721" type="line"/>
    </contour>
  </outline>
</glyph>
<glyph name="Gbreve" format="1">
  <advance width="537"/>
  <unicode hex="011E"/>
  <outline>
    <contour>
      <point x="389" y="846" type="line"/>
      <point x="389" y="841" type="line"/>
      <point x="389" y="794"/>
      <point x="322" y="728"/>
      <point x="230" y="728"/>
      <point x="163" y="794"/>
      <point x="163" y="841" type="qcurve"/>
      <point x="163" y="846" type="line"/>
      <point x="184" y="846" type="line"/>
      <point x="184" y="841" type="line"/>
      <point x="184" y="808"/>
      <point x="234" y="748"/>
      <point x="316" y="748"/>
      <point x="368" y="809"/>
      <point x="368" y="841" type="qcurve"/>
      <point x="368" y="846" type="line"/>
    </contour>
    <contour>
      <point x="394" y="659" type="line"/>
      <point x="320" y="691"/>
      <point x="262" y="691" type="qcurve"/>
      <point x="180" y="691"/>
      <point x="133" y="646" type="qcurve"/>
      <point x="113" y="626"/>
      <point x="84" y="549"/>
      <point x="84" y="497" type="qcurve"/>
      <point x="84" y="187" type="line"/>
      <point x="84" y="109"/>
      <point x="188" y="9"/>
      <point x="373" y="9"/>
      <point x="457" y="109"/>
      <point x="457" y="182" type="qcurve"/>
      <point x="457" y="281" type="line"/>
      <point x="346" y="281" type="line"/>
      <point x="338" y="300" type="line"/>
      <point x="476" y="300" type="line"/>
      <point x="476" y="0" type="line"/>
      <point x="457" y="0" type="line"/>
      <point x="457" y="88" type="line"/>
      <point x="411" y="-10"/>
      <point x="276" y="-10" type="qcurve"/>
      <point x="188" y="-10"/>
      <point x="65" y="90"/>
      <point x="65" y="189" type="qcurve"/>
      <point x="65" y="503" type="line"/>
      <point x="65" y="631"/>
      <point x="152" y="684" type="qcurve"/>
      <point x="197" y="709"/>
      <point x="259" y="709" type="qcurve"/>
      <point x="336" y="709"/>
      <point x="401" y="676" type="qcurve"/>
    </contour>
  </outline>
</glyph>
<glyph name="gbreve" format="1">
  <advance width="494"/>
  <unicode hex="011F"/>
  <outline>
    <contour>
      <point x="436" y="160" type="qcurve"/>
      <point x="436" y="397" type="line"/>
      <point x="399" y="491"/>
      <point x="271" y="491" type="qcurve"/>
      <point x="190" y="491"/>
      <point x="140" y="443" type="qcurve"/>
      <point x="122" y="425"/>
      <point x="97" y="361"/>
      <point x="97" y="320" type="qcurve"/>
      <point x="97" y="167" type="line"/>
      <point x="97" y="95"/>
      <point x="182" y="6"/>
      <point x="264" y="6" type="qcurve"/>
      <point x="355" y="6"/>
      <point x="406" y="70" type="qcurve"/>
      <point x="436" y="106"/>
    </contour>
    <contour>
      <point x="348" y="-210" type="qcurve"/>
      <point x="342" y="-192" type="line"/>
      <point x="365" y="-183"/>
      <point x="388" y="-171"/>
      <point x="404" y="-157" type="qcurve"/>
      <point x="436" y="-130"/>
      <point x="436" y="-63" type="qcurve"/>
      <point x="436" y="75" type="line"/>
      <point x="378" y="-12"/>
      <point x="264" y="-12" type="qcurve"/>
      <point x="176" y="-12"/>
      <point x="78" y="84"/>
      <point x="78" y="176" type="qcurve"/>
      <point x="78" y="325" type="line"/>
      <point x="78" y="413"/>
      <point x="184" y="510"/>
      <point x="271" y="510" type="qcurve"/>
      <point x="384" y="510"/>
      <point x="436" y="437" type="qcurve"/>
      <point x="436" y="501" type="line"/>
      <point x="455" y="501" type="line"/>
      <point x="455" y="-64" type="line"/>
      <point x="455" y="-124"/>
      <point x="405" y="-192"/>
    </contour>
    <contour>
      <point x="395" y="650" type="line"/>
      <point x="395" y="645" type="line"/>
      <point x="395" y="598"/>
      <point x="328" y="532"/>
      <point x="236" y="532"/>
      <point x="169" y="598"/>
      <point x="169" y="645" type="qcurve"/>
      <point x="169" y="650" type="line"/>
      <point x="190" y="650" type="line"/>
      <point x="190" y="645" type="line"/>
      <point x="190" y="612"/>
      <point x="240" y="552"/>
      <point x="322" y="552"/>
      <point x="374" y="613"/>
      <point x="374" y="645" type="qcurve"/>
      <point x="374" y="650" type="line"/>
    </contour>
  </outline>
</glyph>
<glyph name="gdotaccent" format="1">
  <advance width="494"/>
  <unicode hex="0121"/>
  <outline>
    <contour>
      <point x="436" y="160" type="qcurve"/>
      <point x="436" y="397" type="line"/>
      <point x="399" y="491"/>
      <point x="271" y="491" type="qcurve"/>
      <point x="190" y="491"/>
      <point x="140" y="443" type="qcurve"/>
      <point x="122" y="425"/>
      <point x="97" y="361"/>
      <point x="97" y="320" type="qcurve"/>
      <point x="97" y="167" type="line"/>
      <point x="97" y="95"/>
      <point x="182" y="6"/>
      <point x="264" y="6" type="qcurve"/>
      <point x="355" y="6"/>
      <point x="406" y="70" type="qcurve"/>
      <point x="436" y="106"/>
    </contour>
    <contour>
      <point x="348" y="-210" type="qcurve"/>
      <point x="342" y="-192" type="line"/>
      <point x="365" y="-183"/>
      <point x="388" y="-171"/>
      <point x="404" y="-157" type="qcurve"/>
      <point x="436" y="-130"/>
      <point x="436" y="-63" type="qcurve"/>
      <point x="436" y="75" type="line"/>
      <point x="378" y="-12"/>
      <point x="264" y="-12" type="qcurve"/>
      <point x="176" y="-12"/>
      <point x="78" y="84"/>
      <point x="78" y="176" type="qcurve"/>
      <point x="78" y="325" type="line"/>
      <point x="78" y="413"/>
      <point x="184" y="510"/>
      <point x="271" y="510" type="qcurve"/>
      <point x="384" y="510"/>
      <point x="436" y="437" type="qcurve"/>
      <point x="436" y="501" type="line"/>
      <point x="455" y="501" type="line"/>
      <point x="455" y="-64" type="line"/>
      <point x="455" y="-124"/>
      <point x="405" y="-192"/>
    </contour>
    <contour>
      <point x="293" y="590" type="qcurve"/>
      <point x="293" y="577"/>
      <point x="266" y="577"/>
      <point x="266" y="604"/>
      <point x="293" y="604"/>
    </contour>
  </outline>
</glyph>
<glyph name="Hcircumflex" format="1">
  <advance width="588"/>
  <unicode hex="0124"/>
  <outline>
    <contour>
      <point x="440" y="772" type="line"/>
      <point x="423" y="756" type="line"/>
      <point x="297" y="883" type="line"/>
      <point x="166" y="756" type="line"/>
      <point x="150" y="772" type="line"/>
      <point x="298" y="913" type="line"/>
    </contour>
    <contour>
      <point x="508" y="0" type="line"/>
      <point x="489" y="0" type="line"/>
      <point x="489" y="394" type="line"/>
      <point x="97" y="394" type="line"/>
      <point x="97" y="0" type="line"/>
      <point x="78" y="0" type="line"/>
      <point x="78" y="700" type="line"/>
      <point x="97" y="700" type="line"/>
      <point x="97" y="413" type="line"/>
      <point x="489" y="413" type="line"/>
      <point x="489" y="700" type="line"/>
      <point x="508" y="700" type="line"/>
    </contour>
  </outline>
</glyph>
<glyph name="hcircumflex" format="1">
  <advance width="579"/>
  <unicode hex="0125"/>
  <outline>
    <contour>
      <point x="169" y="475" type="line"/>
      <point x="237" y="510"/>
      <point x="393" y="510"/>
      <point x="434" y="489" type="qcurve"/>
      <point x="519" y="450"/>
      <point x="519" y="346" type="qcurve"/>
      <point x="519" y="0" type="line"/>
      <point x="500" y="0" type="line"/>
      <point x="500" y="347" type="line"/>
      <point x="500" y="408"/>
      <point x="429" y="481"/>
      <point x="377" y="488" type="qcurve"/>
      <point x="354" y="491"/>
      <point x="331" y="491" type="qcurve"/>
      <point x="240" y="491"/>
      <point x="169" y="454" type="qcurve"/>
      <point x="169" y="0" type="line"/>
      <point x="150" y="0" type="line"/>
      <point x="150" y="700" type="line"/>
      <point x="169" y="700" type="line"/>
    </contour>
    <contour>
      <point x="308" y="772" type="line"/>
      <point x="291" y="756" type="line"/>
      <point x="165" y="883" type="line"/>
      <point x="34" y="756" type="line"/>
      <point x="18" y="772" type="line"/>
      <point x="166" y="913" type="line"/>
    </contour>
  </outline>
</glyph>
<glyph name="Hbar" format="1">
  <advance width="685"/>
  <unicode hex="0126"/>
  <outline>
    <contour>
      <point x="538" y="413" type="line"/>
      <point x="538" y="519" type="line"/>
      <point x="146" y="519" type="line"/>
      <point x="146" y="413" type="line"/>
    </contour>
    <contour>
      <point x="557" y="0" type="line"/>
      <point x="538" y="0" type="line"/>
      <point x="538" y="394" type="line"/>
      <point x="146" y="394" type="line"/>
      <point x="146" y="0" type="line"/>
      <point x="127" y="0" type="line"/>
      <point x="127" y="519" type="line"/>
      <point x="78" y="519" type="line"/>
      <point x="78" y="538" type="line"/>
      <point x="127" y="538" type="line"/>
      <point x="127" y="700" type="line"/>
      <point x="146" y="700" type="line"/>
      <point x="146" y="538" type="line"/>
      <point x="538" y="538" type="line"/>
      <point x="538" y="700" type="line"/>
      <point x="557" y="700" type="line"/>
      <point x="557" y="538" type="line"/>
      <point x="605" y="538" type="line"/>
      <point x="605" y="519" type="line"/>
      <point x="557" y="519" type="line"/>
    </contour>
  </outline>
</glyph>
<glyph name="hbar" format="1">
  <advance width="548"/>
  <unicode hex="0127"/>
  <outline>
    <contour>
      <point x="159" y="475" type="line"/>
      <point x="227" y="510"/>
      <point x="383" y="510"/>
      <point x="424" y="489" type="qcurve"/>
      <point x="509" y="450"/>
      <point x="509" y="346" type="qcurve"/>
      <point x="509" y="0" type="line"/>
      <point x="490" y="0" type="line"/>
      <point x="490" y="347" type="line"/>
      <point x="490" y="408"/>
      <point x="419" y="481"/>
      <point x="367" y="488" type="qcurve"/>
      <point x="344" y="491"/>
      <point x="321" y="491" type="qcurve"/>
      <point x="230" y="491"/>
      <point x="159" y="454" type="qcurve"/>
      <point x="159" y="0" type="line"/>
      <point x="140" y="0" type="line"/>
      <point x="140" y="598" type="line"/>
      <point x="78" y="598" type="line"/>
      <point x="78" y="617" type="line"/>
      <point x="140" y="617" type="line"/>
      <point x="140" y="700" type="line"/>
      <point x="159" y="700" type="line"/>
      <point x="159" y="617" type="line"/>
      <point x="312" y="617" type="line"/>
      <point x="312" y="598" type="line"/>
      <point x="159" y="598" type="line"/>
    </contour>
  </outline>
</glyph>
<glyph name="Itilde" format="1">
  <advance width="479"/>
  <unicode hex="0128"/>
  <outline>
    <contour>
      <point x="177" y="826" type="qcurve"/>
      <point x="204" y="826"/>
      <point x="269" y="794" type="qcurve"/>
      <point x="294" y="782"/>
      <point x="358" y="782"/>
      <point x="389" y="814" type="qcurve"/>
      <point x="399" y="797" type="line"/>
      <point x="361" y="762"/>
      <point x="317" y="762" type="qcurve"/>
      <point x="291" y="762"/>
      <point x="241" y="785"/>
      <point x="194" y="805"/>
      <point x="173" y="805" type="qcurve"/>
      <point x="127" y="805"/>
      <point x="89" y="761" type="qcurve"/>
      <point x="78" y="777" type="line"/>
      <point x="125" y="826"/>
    </contour>
    <contour>
      <point x="268" y="0" type="line"/>
      <point x="249" y="0" type="line"/>
      <point x="249" y="679" type="line"/>
      <point x="163" y="681" type="line"/>
      <point x="163" y="700" type="line"/>
      <point x="268" y="700" type="line"/>
    </contour>
  </outline>
</glyph>
